<?xml version="1.0" encoding="UTF-8"?><svg xmlns="http://www.w3.org/2000/svg" width="53" height="211.7139" viewBox="0 0 53 211.7139"><defs><style>.c{fill:#fff;stroke:#000;stroke-miterlimit:10;stroke-width:9px;}</style></defs><g id="a"><polygon points="40.6962 180.006 27.0394 180.1368 13.3825 180.2676 20.3243 192.0294 27.266 203.7912 33.9811 191.8986 40.6962 180.006"/></g><g id="b"><path d="M26.6804,9c5.3027,0,10.6488,.4088,15.89,1.2152l1.4297,.22V152.724l-12.4111,26.6957-5.0889,10.9458-5.0889-10.9458-12.4111-26.6957V10.4788l2.3659-.3505c5.0534-.7487,10.2059-1.1283,15.3145-1.1283m0-9c-5.5595,0-11.1185,.4084-16.6335,1.2254L0,2.7139V154.7139l13.25,28.5,13.25,28.5,13.25-28.5,13.25-28.5V2.7139l-9.0611-1.3941c-5.7187-.8798-11.4888-1.3198-17.2585-1.3198h0Z"/><path class="c" d="M26.5,6.7139V153.7139"/><path d="M26.6812,9.3852h0c5.3019,0,10.6484,.4089,15.8892,1.2152l1.4296,.2199V145.8594c-5.956,.5305-11.6433,2.5848-16.6058,6.0204l-.1837,.1272-1.7084-1.2813c-4.5056-3.3793-10.0887-5.2404-15.7208-5.2405-.2593,0-.5202,.0039-.7813,.0117V10.8639l2.3658-.3505c5.0529-.7486,10.2058-1.1282,15.3154-1.1283m-.0009-9c-5.5588,0-11.1192,.4085-16.6334,1.2254L0,3.099V155.099l8.6366-.5757c.3822-.0255,.7637-.0381,1.1447-.0381,3.7113,0,7.3353,1.2013,10.3207,3.4404l6.898,5.1735,5.5171-3.8195c4.2996-2.9767,9.3923-4.5581,14.5908-4.558,.6541,0,1.3105,.0251,1.9665,.0755l3.9256,.302V3.099l-9.0611-1.394c-5.7193-.8799-11.4882-1.3199-17.2586-1.3198h0Z"/></g></svg>