<?xml version="1.0" encoding="UTF-8"?><svg id="a" xmlns="http://www.w3.org/2000/svg" width="36" height="36" xmlns:xlink="http://www.w3.org/1999/xlink" viewBox="0 0 36 36"><defs><style>.c{clip-path:url(#b);}.d{fill:none;}</style><clipPath id="b"><rect class="d" width="36" height="36"/></clipPath></defs><g class="c"><path d="M54.977,24.6667c-.422,.2747-.9784,.4235-1.5349,.4235-.899,0-1.5105-.5436-1.5105-1.5336v-3.5593h3.2533v-4.9327h-3.2533v-2.9756h-5.0268v2.9757c-1.749,.0286-3.4796,.0515-5.1858,.0801v-3.0615h-5.0268v3.1588c-1.1191,.0229-2.2199,.0515-3.3084,.0801V2.6183h.0183V.6498h-7.8459l-.0122-.0057-7.1549,15.5306c-.4648,.0458-.9295,.0973-1.3759,.1488-4.3786,.515-7.7359,1.2303-10.2615,2.1974-1.5105,.578-2.7213,1.2303-3.712,2.0086-1.1436,.8984-1.963,1.9571-2.4217,3.1359C.1471,24.867-.0547,26.0744,.0126,27.2532c.0673,1.133,.3791,2.2088,.9356,3.2103,1.0029,1.8083,2.7274,3.2446,4.8617,4.04,1.168,.4349,2.385,.6524,3.5836,.6524,1.009,0,1.9997-.1545,2.9415-.4578,1.1436-.372,2.1709-.9556,3.0515-1.7339,.9234-.8126,1.6634-1.8254,2.2076-3.0043l4.2868-9.2932c2.067-.1602,4.2746-.2861,6.5923-.3834v10.5864h4.8984v-10.7696c1.0885-.0286,2.1893-.0572,3.3084-.0858v3.5822c0,3.4449,2.1465,5.1273,5.8218,5.1273,1.3209,0,2.6173-.2461,3.4918-.7668l-1.2414-3.2961c-.422,.2747-.9784,.4235-1.5349,.4235-.899,0-1.5105-.5436-1.5105-1.5336v-3.5593h5.198v3.6108c0,3.4449,2.1465,5.1273,5.8218,5.1273,1.3209,0,2.6235-.2461,3.4918-.7668l-1.2414-3.2961Zm-42.0672,3.3934c-.5015,1.0873-1.2598,1.7968-2.2504,2.123-.8928,.2918-1.9752,.2461-2.9598-.1202-.9784-.3662-1.7857-1.0186-2.2137-1.7968-.477-.8641-.5015-1.8598-.0673-2.9642,.1529-.3891,.4525-.7554,.9112-1.1159,.5687-.4463,1.3576-.8641,2.3544-1.2418,1.8101-.6924,4.2318-1.2418,7.3628-1.6767l-3.1371,6.7925Zm15.5634-12.5664c-1.4799,.0629-2.917,.1373-4.3113,.2175l4.3113-9.3561V15.4937Z"/></g></svg>