<?xml version="1.0" encoding="UTF-8"?><svg xmlns="http://www.w3.org/2000/svg" width="543.3314" height="641.9733" viewBox="0 0 543.3314 641.9733"><defs><style>.c,.d{fill:#f40575;}.d{stroke:#f40575;}.d,.e,.f,.g,.h,.i,.j,.k,.l,.m,.n{stroke-miterlimit:10;}.e{stroke-width:4px;}.e,.f,.h,.i,.j,.k,.l,.m{stroke:#000;}.e,.h,.k,.m{fill:none;}.o,.l{fill:#fff;}.f,.h,.j,.m{stroke-width:3px;}.f,.m{stroke-linecap:round;}.p,.j{fill:#ffbc13;}.q,.n{fill:#6287e5;}.g{stroke:#5ccf8d;}.g,.r{fill:#5ccf8d;}.s{fill:gray;}.i{stroke-width:8px;}.k,.l{stroke-width:5px;}.n{stroke:#6287e5;}</style></defs><g id="a"/><g id="b"><g><path class="k" d="M524.123,262.9488c-26.719-40.904-73.9131-41.8853-114.8886-48.2943-20.9406-3.2753-43.0021-8.5479-59.6819-23.9643-9.0269-8.3431-13.9367-19.325-13.5583-32.1446,.349-11.8238,3.8868-23.3218,6.753-34.5765,2.9859-11.7247,5.6126-23.6922,4.9234-36.0267-.6903-12.3545-5.3494-24.418-12.391-34.1913-15.1979-21.0934-39.2554-30.1819-63.0331-30.2659-24.4019-.0864-49.0259,9.3759-67.6925,26.1277-19.5597,17.5532-29.574,42.3614-40.7202,66.5022-10.6741,23.1181-24.8092,47.0876-49.3747,53.7624-26.7855,7.278-55.5039-2.9546-81.7909,7.8646-19.2161,7.9091-35.4167,29.9979-28.5694,53.4328,7.0858,24.251,33.8078,34.443,53.755,41.293,12.8296,4.4057,25.9234,7.6215,39.3078,8.6926,14.1505,1.1324,28.3021,.3421,42.4409,.0562,24.2652-.4908,49.9001,1.3395,69.946,18.5586,8.2647,7.0993,14.713,16.5414,16.986,27.8198,1.4607,7.2477,12.0461,6.1751,10.5704-1.1471-4.5837-22.7436-20.8085-38.925-40.0416-47.7784-23.1887-10.6743-48.284-9.2432-72.7296-8.6201-13.7517,.3505-27.4485,.2179-41.0797-2.4465-13.19-2.5783-26.1751-6.9478-38.6269-12.4471-9.3832-4.144-19.3582-9.5011-25.8226-18.3379-6.9455-9.4945-7.3012-21.4991-1.4996-31.5407,14.0388-24.2989,44.2196-21.6579,67.3581-21.2798,12.941,.2114,26.0492-.2357,38.3498-4.7711,10.6666-3.9329,19.8159-11.1661,27.5024-19.9616,16.2223-18.5629,24.5047-43.0599,35.4928-65.3123,11.6653-23.6239,28.3449-42.1126,51.6589-51.8139,22.5564-9.3861,49.8217-10.5377,71.8011,2.4675,9.9882,5.91,18.6258,15.3959,23.4343,26.6627,4.7928,11.23,4.9533,22.9097,2.8901,34.7695-3.86,22.1871-14.5461,44.7299-8.7451,67.8492,5.6702,22.5979,26.723,36.5515,45.8837,43.6669,38.5094,14.3006,82.6,6.9225,118.9264,28.925,39.0125,23.6294,49.011,81.3058,26.4016,120.5515-22.9694,39.8703-70.5984,57.9194-111.8182,40.97-9.7635-4.0146-18.8118-9.7677-26.62-17.3894-9.4328-9.2076-15.4-21.1202-21.8292-32.786-11.6037-21.0553-29.8111-41.0419-54.0318-32.7883-10.8585,3.7002-19.7849,12.2499-27.262,21.2267-4.5689,5.4852,3.8126,12.8065,8.3597,7.3473,8.3271-9.9972,20.012-20.6345,33.4361-18.8218,11.8262,1.5969,20.594,12.3842,26.8476,22.6135,7.2092,11.7922,12.6718,24.7526,21.5407,35.2962,7.3095,8.6896,15.9801,15.7663,25.5811,21.1451,40.2075,22.5262,89.4753,12.4307,120.6162-21.2222,31.4242-33.959,37.6269-88.9775,11.044-129.6733Z"/><path class="i" d="M273.3928,569.007c-.011-.0236-.0205-.0458-.03-.0701l-8.9858-22.9636c-1.2425-3.1627-3.8398-17.08-4.9627-27.1897-.6811-6.1327,1.952-12.1517,6.8941-15.8462,.4179-.3124,.8298-.6216,1.2365-.9279,.0207-.0156,.0416-.03,.0634-.0439,26.5639-16.8941,44.8859-49.4987,49.0573-84.0237,1.035-6.433,1.3242-12.907,1.0006-18.4939-.0021-.0368-.0021-.073,.0001-.1098,.7949-13.4166-2.7683-26.5449-9.7603-38.4151-8.2009-15.3391-20.963-26.2876-35.7309-34.138-12.646-7.2206-27.3495-12.4006-43.3735-14.7495-.1195-.0175-.2385-.0314-.3579-.0486l-.0668-.0137c-3.2707-.6541-6.5098-.9772-9.7089-1.0143-11.2937-.759-22.2566-.0031-32.5442,2.0815-14.9771,2.3681-26.6222,7.7387-35.7703,14.3028-13.236,8.6075-23.3817,20.1691-28.8668,33.7897-2.0418,4.3138-3.3517,9.0724-4.1,15.7525-.0063,.0562-.0152,.1067-.0296,.1613-.2122,.8049-2.0391,8.1576-.9802,18.9265,1.0107,10.2791,1.8221,13.3958,1.9743,13.9164,.0188,.0642,.0304,.1231,.0383,.1896,.1279,1.0695,1.2001,9.9577,1.9874,13.8941,1,5,3.128,12.403-1,20-3.2316,5.9473-2.5032,3.9411-7,9l-2.1911,2.5563c-1.9095,2.2278-1.1576,5.6636,1.5079,6.8901l5.3822,2.4765c.4083,.0681,.6467,.4988,.4874,.8809l-4.1275,9.9059c-.0281,.0675-.0521,.1412-.0688,.2124-.9015,3.8373,.3561,5.1711,1.7271,5.9294,.1833,.1014,.3927,.1454,.6022,.1396l3.2174-.0877c.056-.0015,.112,.0008,.1677,.007l6.5417,.7269c1.2323,.1369,1.6514,1.7181,.6486,2.4474l-3.6632,2.6642c-3.2426,2.3582-3.978,6.8895-1.6476,10.1522l1.4059,1.9683s2.246,1.123,1.123,8.9841c-.0112,.0784,.0069,.1664-.0323,.235-5.0638,8.8817-1.1074,18.8446,13.2763,16.5239,.0944-.0152,.1931-.0194,.2884-.0107l.9611,.0874c.0703,.0064,.1411,.0067,.2115,.0008l20.7063-1.727c4.0621-.3388,8.1523-.0451,12.1243,.8708h0c5.1929,1.1984,9.0724,5.4698,9.7563,10.7235,.9756,7.4943,2.2277,17.0939,2.2277,17.0939,.7299,4.3792-3.6472,9.3781-5.6326,13.3489l-37.0573,70.2139c-.428,.8109,.16,1.7861,1.0769,1.7861h159.2974c.832,0,1.421-.8097,1.1566-1.5986-1.1455-3.4187-4.0207-11.906-7.4736-21.4014-1.725-4.744-20.3661-44.6434-20.9843-45.9663Z"/><path d="M207.5708,197.0131c1.9125-2.8099,4.7422-6.7721,3.761-10.3768-.9244-3.3959-4.6129-4.3575-7.6893-4.6737-3.7355-.384-7.532-.3387-11.2663,.0262-8.4239,.8232-16.6443,3.3313-24.0915,7.3569-.3344,.1808-.665,.3686-.9959,.5557-.1044-.3768-.2582-.7411-.4782-1.083-.9937-1.5447-2.8742-1.8097-4.4992-1.2529-1.6487,.5649-3.1239,1.7626-4.4962,2.8079-1.5497,1.1805-3.022,2.4562-4.3904,3.8435-1.379,1.3979-2.7375,2.9586-3.9983,4.6378-1.7966-.611-3.5995-1.2045-5.4105-1.7739-.7533-.2368-1.7533,.2799-1.9072,1.0829-.365,1.9039,.8587,2.8675,2.1597,4.0723,.6253,.579,1.2506,1.1581,1.8759,1.7371-1.8934,3.5433-3.1621,7.3713-3.2653,11.1999-.0939,3.4869,1.0873,7.1009,3.6468,9.5484,2.8958,2.7691,6.7975,2.9779,10.6055,2.7135,1.042-.0724,2.0753-.1904,3.1007-.3459-.1854,.2705-.3715,.5404-.5533,.8138-.8093,1.2176,.5222,2.5139,1.7509,2.2776,3.2001-.6155,6.0346-2.1725,8.7-3.9892,.825,.7666,1.6511,1.5321,2.4822,2.2921,1.1975,1.0951,2.3825,1.8393,4.026,1.2102,.741-.2837,1.417-.733,2.0407-1.284,.1273,.1496,.2476,.3057,.3513,.4774,1.2661,2.0967,2.1875,4.4712,3.2464,6.6784,1.2174,2.5377,2.4348,5.0754,3.6522,7.6131,.8628,1.7985,3.5374,.2274,2.6775-1.5651-1.3044-2.7189-2.6088-5.4379-3.9131-8.1569-.8326-1.7356-1.5624-3.769-2.5744-5.5215,1.4537,.5288,2.9038,1.0677,4.3527,1.6068,1.6881,.6281,3.3763,1.2563,5.0644,1.8845,1.5214,.5661,3.0271,1.235,4.6473,1.4518,2.6643,.3564,5.2749-1.0815,5.2642-4.0399-.0118-3.2793-3.3578-5.7034-5.6527-7.5591-2.6791-2.1664-5.5491-4.0731-8.5284-5.7996,4.4991-2.8444,8.8073-6.0009,12.6871-9.6382,2.8391-2.6617,5.4264-5.6086,7.6177-8.8281Zm-50.1618-2.3101c1.3778-1.2313,2.8412-2.3648,4.3939-3.3678,.4509-.2913,1.7882-1.3489,2.341-.908,.2838,.2263,.3094,.723,.2546,1.214-2.3549,1.5086-4.6089,3.1747-6.7414,4.9847-1.3277,1.1269-2.7873,2.3364-4.0474,3.6933-.3548-.1278-.7098-.255-1.0652-.3812,1.455-1.889,3.0824-3.6424,4.8644-5.2348Zm-7.0474,8.3783c.1081-.1742,.2227-.344,.3336-.5164,.3184,.1115,.6361,.2247,.954,.3374-.2515,.4312-.4726,.8765-.656,1.3376l-.8556-.7924c.0748-.1231,.1496-.2462,.2241-.3663Zm3.1855,3.3212c.0995-.904,.5204-1.7046,1.0614-2.4302,1.087,.4016,2.1708,.812,3.2518,1.2292-.7383,1.1277-1.467,2.2589-2.1469,3.4097l-1.8289-1.6937-.3657-.3386c.012-.057,.0215-.1157,.0282-.1764Zm10.6529,1.3479c3.0113,1.2624,5.9965,2.5871,8.9531,3.9744-2.1854,2.3227-4.358,4.6599-6.4443,7.0685-1.4254-1.32-2.8508-2.64-4.2762-3.9599-1.1286-1.0452-2.2573-2.0903-3.3859-3.1355,1.707-1.3297,3.4207-2.6514,5.1533-3.9474Zm6.241,13.2166c-.4195-.1061-.84-.2088-1.2614-.3079,2.235-2.5673,4.5704-5.0517,6.9079-7.5296,1.1066,.5383,2.2091,1.0852,3.3071,1.6413-1.6309,1.5943-3.3646,3.0861-5.1388,4.5039-1.2571,.6012-2.5282,1.1688-3.8148,1.6923Zm16.9772-17.2531c-.9783,2.184-2.24,4.2492-3.6757,6.1612-.6588,.8773-1.3605,1.7212-2.0908,2.5406-1.1003-.5693-2.2073-1.1264-3.3208-1.6711,2.532-2.7007,5.0356-5.4319,7.3761-8.3016,.5905-.724,1.2021-1.4603,1.8029-2.2147,.9334,1.0621,.4271,2.3276-.0916,3.4857Zm-2.7207-8.4815c.9307-.4056,2.1879-1.0959,3.3897-1.4291-.3908,.8459-.8737,1.6644-1.4096,2.4581-.5197-.1633-1.0546-.2851-1.5906-.3706-.4659-.0743-.9341-.1391-1.4018-.2064,.3362-.1534,.6735-.3044,1.0123-.452Zm-.4349,3.6485c.1244,.0192,.2512,.0399,.3786,.0619-.723,.8755-1.4587,1.7198-2.1443,2.5343-2.2744,2.7016-4.6777,5.2901-7.0975,7.8613-2.504-1.1734-5.0294-2.2983-7.5588-3.3908-.2483-.1073-.4983-.2105-.7469-.317,1.696-1.2206,3.4119-2.4133,5.1625-3.5566,2.1097-1.3779,4.2671-2.6851,6.4773-3.8958,1.8517,.1973,3.6979,.4205,5.5292,.7028Zm-8.9304,23.4686c.2188-.1703,.438-.3401,.6555-.5122,1.7906-.8771,3.5501-1.8135,5.2752-2.7848l.005-.0028c-.7844,1.4894-1.6097,3.0065-2.5698,4.3969-1.1177-.3798-2.2391-.7473-3.3657-1.0971Zm14.1928-24.4827c-.0512-.0488-.1029-.097-.1557-.1437,.0739-.1095,.1461-.2197,.2182-.3301-.0183,.1587-.0383,.3165-.0625,.4739Zm-8.6271-4.2883c-.9488,.455-1.8863,.9328-2.8152,1.4266-1.4575-.1485-2.9175-.2832-4.3771-.4143,2.6233-.7877,5.3315-1.2757,8.0673-1.4432-.2988,.1494-.5924,.2953-.8751,.4308Zm-7.4678,4.088c-.6096,.3725-1.2162,.7498-1.818,1.1346-2.6823,1.7152-5.2851,3.546-7.8466,5.4344-.4223-.1735-.8443-.3476-1.2675-.5188,1.4472-2.2706,2.7986-4.5832,3.7486-7.0593,.2591,.2262,.5802,.3843,.9326,.4212,2.0742,.2174,4.1616,.4006,6.2507,.5879Zm-13.8454,4.8933c-.901-.3513-1.8044-.6963-2.7094-1.0369,.8998-.88,1.8321-1.7279,2.7876-2.5457,1.0796-.9241,2.1969-1.8021,3.3439-2.6395-.9166,2.1688-2.1321,4.2118-3.4221,6.2221Zm-1.9051,21.7316c-3.393,.2894-7.1754,.4442-9.5621-2.397-3.7566-4.4719-2.0455-10.6917,.4672-15.6617l.4079,.3777c1.7341,1.6059,3.4682,3.2117,5.2023,4.8176-.0711,.1479-.1423,.2956-.2108,.4446-.7573,1.647,1.0392,2.9733,2.4351,1.8789l.1542-.1208,1.867,1.7289c1.8477,1.7111,3.6955,3.4222,5.5432,5.1333-.3615,.4869-.4338,1.1698-.1163,1.7071-.3266,.4083-.6494,.8197-.9692,1.2335-1.7179,.4092-3.4608,.708-5.2184,.858Zm17.0627,2.0353c.3707,.1118,.7447,.2288,1.1124,.3597-.1152,.0717-.2247,.1194-.3216,.1283-.2379,.0218-.5255-.2156-.7908-.488Zm23.5319,2.0316c.4044,1.6331-1.1663,1.6157-2.2871,1.3441-3.0485-.7389-6.0349-2.1623-8.9729-3.2555-1.7615-.6554-3.5248-1.3103-5.295-1.9448,.5915-.9842,1.1186-1.9643,1.6014-2.8113,.703-1.2331,1.3753-2.4826,2.02-3.746,3.586,2.0508,7.035,4.3406,10.1113,7.1012,.9721,.8723,2.4921,1.979,2.8223,3.3124Zm-9.6872-17.4567c1.5015-3.6061,2.9866-7.3767,3.7436-11.215,.444-2.2511,.7354-5.1162-.5152-7.1383,.1725-.7747-.2703-1.6819-1.0889-1.8664-.475-.1071-.9614-.1437-1.4533-.1345-1.3054-.4658-2.7837-.4978-4.1407-.5457-2.1439-.0756-4.2862,.0538-6.4109,.3422-4.0458,.5491-7.9262,1.7496-11.6029,3.5018,.0226-.0966,.0424-.1944,.0636-.2917,.0375-.0228,.0745-.0465,.1121-.0692,5.5657-3.3639,11.6496-5.8009,17.9918-7.236,6.101-1.3805,12.772-2.0147,18.9959-1.1086,1.2026,.1751,2.8361,.4805,3.6406,1.5042,1.179,1.5001,.029,3.6101-.7301,5.0264-1.5607,2.912-3.4846,5.6195-5.6648,8.0987-3.7759,4.2936-8.2219,7.9241-12.9408,11.1322Z"/><path d="M407.3878,309.3566c-1.8474-2.5797-3.6948-5.1593-5.5422-7.739-.0966-.1349-.1935-.2684-.2909-.4001,.9256-.1717,1.8513-.3435,2.7788-.5049,1.6245-.2827,1.1736-2.7613-.3784-2.7958-1.2444-.0277-2.4898-.0564-3.7354-.0868-.2941-1.4539-.6316-2.903-1.0086-4.3444,2.0928-3.0729,4.1557-6.1643,5.9261-9.4404,.6243-1.1552-.7226-2.834-1.9474-1.9474-2.0278,1.4679-4.0742,2.9098-6.1349,4.3308-.8142-2.3402-1.709-4.645-2.6611-6.8995-.1408-.3335-.2837-.6778-.429-1.0269,2.2962-2.3777,4.4515-4.8881,6.4639-7.513,2.8637-3.7353,5.4651-7.7539,6.4984-12.4084,.1273-.5737-.0735-1.3318-.6541-1.6074-1.9032-.9034-3.1122,.5734-4.2132,1.9702-1.3423,1.7031-2.5953,3.4725-3.7685,5.2961-2.1917,3.4066-4.1198,6.9727-6.0078,10.5547-.8835-1.6879-1.9556-3.2563-3.3879-4.3409-3.0826-2.3343-6.4617-.0807-8.4436,2.4955-2.6186,3.4037-5.0263,6.9938-7.3433,10.6075-1.1976,1.8679-2.3617,3.7572-3.4913,5.667-1.0634,1.798-2.1832,3.5481-2.2831,5.6865-1.0329-.2089-2.0644-.4278-3.0928-.6695-1.4873-.3496-2.6454,1.9443-1.0968,2.6015,3.4716,1.4732,6.9492,2.9508,10.4643,4.3272-4.999,2.8532-10.073,5.5759-15.2194,8.1576-4.4347,2.2247-8.9214,4.3432-13.4523,6.3646-1.6737,.7467-.2231,3.1863,1.4368,2.458,12.3602-5.4235,25.1551-9.8216,38.2203-13.1824,.0856,.0248,.171,.0499,.2566,.0745l-.1379,.1417c-.9466,.8679-1.861,1.7715-2.7384,2.7163-1.2464,1.3421,.6809,3.28,2.0129,2.0129,.9512-.9049,1.8776-1.8334,2.7922-2.7729,.4368-.4009,.882-.7925,1.335-1.1755l.1442,.0392c-.3411,.7918-.6526,1.5948-.923,2.4118-.6323,1.9105-1.2551,4.2633-.6103,6.2552,.6359,1.9642,2.4204,2.7034,4.2922,1.9607,1.9223-.7628,3.7854-2.7476,5.8638-2.995,.295-.0351,.4111-.0738,.4485-.0911-.0335,.0268-.0984,.1152-.001,.3179,.214,.4456-.2377,1.7688-.336,2.2668-.277,1.4028-.6762,2.7695-1.158,4.1147-.6189,1.7278,2.1307,2.4716,2.745,.7568,.9923-2.77,3.8477-11.38-2.0328-10.2053-2.172,.4339-3.9233,1.8247-5.8372,2.8389-.2266,.1201-.9028,.6063-1.1083,.4997-.3072-.1594-.287-.9902-.2901-1.2643-.013-1.1492,.3463-2.3733,.6889-3.4558,.2923-.9237,.6447-1.8302,1.0403-2.7222,1.651,.3582,3.3129,.6091,4.9298,.6219,2.2662,.0181,3.8954-.9593,4.6027-2.6031,1.452,2.0275,2.9039,4.055,4.3559,6.0825,1.0574,1.4765,3.5275,.0567,2.458-1.4368Zm-18.4262-9.0859c.0796,.0042,.1593,.0076,.2389,.0117-.2259,.2642-.4585,.5226-.6871,.7844-.584,.1388-1.1657,.2866-1.7487,.4296,.7594-.3815,1.4957-.806,2.1968-1.2257Zm6.7395-8.5605c-1.9206,1.8372-3.9894,3.4919-6.2355,4.9189-.4103,.2606-.8266,.5116-1.2459,.7577-.8184-.0453-1.6364-.0951-2.4541-.1494,2.2211-1.3826,4.4275-2.7889,6.6145-4.2257,1.0357-.6804,2.0674-1.367,3.0949-2.0595,.0748,.2528,.1532,.5046,.226,.758Zm.6259,6.0151c.2264-.3342,.452-.6667,.6765-.9977,.0791,.3404,.1508,.6824,.2263,1.0236-.301-.0086-.6019-.0167-.9029-.0258Zm2.8563-9.3137c-.327,.5016-.6565,1.0016-.9893,1.4995-.0688-.2242-.1373-.4485-.2078-.6722,.3997-.2748,.7986-.5507,1.197-.8274Zm-4.5938-.2982c-2.9181,1.9732-5.8685,3.898-8.8486,5.7756,.6191-1.2562,1.2363-2.5133,1.8628-3.7658,1.4704-2.9399,2.967-5.8667,4.4777-8.786,.9196,2.2258,1.7558,4.4868,2.5081,6.7762Zm-19.8791-1.7712c1.7485-2.7797,3.5709-5.5129,5.465-8.1955,1.2103-1.7141,4.028-7.0821,6.7672-5.5916,1.1543,.6281,1.9322,2.1582,2.5567,3.253,.3859,.6766,.7376,1.3724,1.0727,2.0764-.4541,.4479-.9115,.8923-1.3752,1.33-5.4119,5.1083-11.49,9.4501-18.0405,12.9588,.3006-.5183,.6283-1.0207,.9193-1.5127,.8585-1.4514,1.737-2.891,2.6349-4.3184Zm12.3588-1.4545c-.6841,1.3476-1.3714,2.6937-2.047,4.0456-1.0694,2.1401-2.13,4.2847-3.1762,6.4363-.2128,.4375-.4219,.8752-.6184,1.3157-.0946,.0575-.19,.1138-.2847,.1712-3.3892-.3137-6.7661-.7339-10.1235-1.3008,5.7953-2.9344,11.2527-6.5203,16.2498-10.668Zm-16.118,21.0333c2.0445-1.1267,4.0767-2.2756,6.0965-3.4462,.8387,.3074,1.68,.6075,2.5245,.898-2.8884,.7991-5.7628,1.6476-8.621,2.5481Zm27.1262-2.3959c-.4351,1.2371-2.2432,.9881-3.2869,.8489-.8005-.1067-1.6-.2399-2.3975-.3926,.1884-.343,.3813-.6839,.5787-1.0227,1.7259-.382,3.4569-.7411,5.1906-1.087,.0805,.6031,.0817,1.1799-.0848,1.6535Z"/><path class="l" d="M486.1387,202.4698c-21.1019-4.5869-40.7268,3.2807-43.8336,17.5729-1.1556,5.3163,.1389,10.7722,3.3045,15.7649,.022,.0347,.0194,.082-.007,.115l-11.0129,13.8242c-.0541,.0679-.0039,.1691,.0765,.1545l18.4095-3.356,2.6258-.4787c.0208-.0038,.0416,.0007,.0591,.0128,5.2837,3.6772,11.8128,6.557,19.1277,8.147,21.1019,4.5869,40.7269-3.2808,43.8336-17.5729s-11.4813-29.5968-32.5832-34.1837Z"/><g><path class="o" d="M223.1564,90.4427c-.0078,0-.0259-.0112-.0303-.0186L205.8752,15.3123c-.019-.0825,.0527-.1953,.1348-.2144l54.8091-12.5879,.0312-.0005c.2285,0,.4053,.1084,.4502,.3022l10.3203,44.9395,10.7529-20.9634,.4326,.147c2.5332,.8584,4.918,2.0898,7.0879,3.6602l.1738,.1255-15.4434,30.1084,3.8779,16.8828-55.3462,12.731Z"/><path d="M259.3333,5.4164l8.3178,36.2164,3.0676,13.3566,6.2544-12.1939,3.0401-5.927,3.5736-6.9673c1.1214,.4697,2.2048,1.0228,3.2427,1.6553l-14.0127,27.3199-.8326,1.6232,.4084,1.778,3.118,13.5761-50.5021,11.5988-16.1773-70.4372,50.5021-11.5988m1.5723-5.4164c-.2134,0-.4297,.0238-.6461,.0735l-54.8098,12.5881c-1.436,.3298-2.341,1.7745-2.0112,3.2105l17.25,75.1078c.268,1.1671,1.3164,1.9628,2.4677,1.9628,.186,0,.3746-.0208,.5631-.0641l55.3282-12.7072c1.3505-.3102,2.2016-1.6689,1.8915-3.0193l-3.6733-15.9938,15.9602-31.1169,.0452-.0882-1.9113-1.3836c-2.3686-1.7146-4.9812-3.0638-7.7504-4.0026l-2.4756-.8392-5.5696,10.8587-3.0401,5.927-8.7876-38.2619c-.3075-1.3389-1.5101-2.2516-2.831-2.2517h0Z"/></g><g><polygon points="269.4123 68.9751 266.2694 67.401 263.1266 65.8268 263.3347 69.3357 263.5429 72.8446 266.4776 70.9099 269.4123 68.9751"/><path d="M283.3702,29.7674c1.1214,.4697,2.2048,1.0228,3.2427,1.6553l-15.3566,29.9401-3.4067,2.6532,.1672-4.3148,15.3534-29.9339m-2.453-6.1733l-17.8539,34.8089-.3132,8.083-.3133,8.083,6.3819-4.9703,6.3819-4.9704,17.8539-34.8089-1.9113-1.3836c-2.3685-1.7146-4.9812-3.0638-7.7504-4.0026l-2.4756-.8392h0Z"/><path class="l" d="M286.5161,27.6227l-17.2666,33.6639"/><g><path class="r" d="M274.0924,61.3123c-1.0342-.396-2.1357-.6016-3.2529-.6016-.373,0-.749,.0234-1.1201,.0693l-.1826-.375c-.6602-1.356-1.7441-2.4565-3.0811-3.1382l15.6562-30.5244,.4326,.1465c2.5352,.8594,4.9199,2.0908,7.0879,3.6606l.1738,.1255-15.7139,30.6372Z"/><path d="M283.325,29.8556c1.1214,.4697,2.2048,1.0227,3.2426,1.6553l-13.7792,26.8647c-.5375-.0916-1.0824-.1454-1.6311-.1604-.425-.6384-.9253-1.2207-1.4882-1.7353l13.6559-26.6244m-2.453-6.1733l-17.8539,34.8089,2.0454,.8826c.9724,.4196,1.7621,1.1738,2.226,2.1259l.972,1.995,1.7121-.2266c.2884-.0382,.5776-.0571,.8659-.0571,1.2131,0,2.409,.3347,3.4523,.9754l.8635,.5302,17.8539-34.8089-1.9113-1.3835c-2.3686-1.7146-4.9811-3.0638-7.7504-4.0026l-2.4756-.8392h0Z"/></g></g><line class="k" x1="218.322" y1="29.3423" x2="256.4202" y2="20.5923"/><line class="k" x1="220.7638" y1="39.9744" x2="255.1847" y2="32.0194"/><line class="k" x1="223.2057" y1="50.6065" x2="261.1707" y2="41.8375"/><line class="k" x1="228.9394" y1="73.541" x2="250.0702" y2="68.6383"/><line class="k" x1="226.0906" y1="61.1369" x2="259.1825" y2="53.4871"/><polygon class="q" points="238.3119 239.0067 241.5397 232.5299 245.0776 227.9632 248.4588 225.024 252.4174 222.4866 258.5359 219.5777 265.2912 217.3556 269.3516 216.7048 274.4021 216.8382 281.1935 218.0284 286.7214 220.0348 293.6783 223.9611 298.7396 228.221 304.2379 235.3155 308.546 249.2015 309.7993 257.3048 308.4207 264.4528 306.6098 266.0688 303.7948 263.8611 299.8099 261.4812 300.7248 256.9861 301.3533 252.2553 300.3861 247.6779 299.2506 243.459 297.8263 240.0728 295.8569 236.6816 291.7489 231.7951 287.585 227.619 282.1792 225.657 276.5931 223.6295 270.2082 222.5395 265.756 224.0978 260.0861 225.27 254.8494 227.3435 251.5835 229.965 248.2346 234.5396 245.1406 239.1922 242.8281 241.7332 240.063 242.1777 237.4988 241.247 238.3119 239.0067"/><polygon class="p" points="244.9143 241.8887 247.4025 236.9094 250.1358 233.4016 252.7515 231.1466 255.8159 229.2023 260.5548 226.9771 265.7893 225.2821 268.9372 224.7907 272.8549 224.9054 278.1255 225.838 282.418 227.396 287.8235 230.4356 291.7594 233.7276 297.313 239.1758 299.8439 248.5926 300.4069 256.1474 299.3546 261.6478 297.9538 262.8878 295.7651 261.1813 292.6686 259.3393 293.3675 255.8805 293.8437 252.2394 293.0827 248.7127 292.192 245.4616 291.0791 242.8509 289.5435 240.2352 286.3455 236.4629 283.1058 233.2376 278.9082 231.714 274.5705 230.1397 269.6155 229.2853 266.1658 230.4745 261.7708 231.3636 257.7139 232.9477 255.1869 234.9584 252.6002 238.4727 250.2114 242.0477 248.4237 243.9987 246.2801 244.3344 244.2889 243.6117 244.9143 241.8887"/><polygon class="c" points="250.8576 245.4156 252.816 241.4692 254.9551 238.683 256.9953 236.8865 259.3812 235.3326 263.0661 233.5465 267.1315 232.176 269.5731 231.7685 272.6073 231.8348 276.6845 232.5384 280 233.7418 284.1686 236.1081 287.1972 238.6826 291.4657 242.9494 293.368 250.3681 293.7573 256.3289 292.9081 260.6779 291.8153 261.6655 290.1303 260.3318 285.6548 259.5892 285.7216 257.0639 285.7883 254.5387 286.7422 251.9105 286.2972 249.6245 285.7159 247.7139 284.8954 245.2915 282.5732 242.3241 280.3539 240.2439 276.5994 238.8812 273.732 237.4156 270.6951 237.588 267.5218 238.1359 265.2358 238.5809 263.5643 239.6739 260.8695 241.2453 259.1647 243.6009 257.3236 246.332 255.7551 248.3121 251.9005 247.338 250.3625 246.7798 250.8576 245.4156"/><path class="k" d="M249.8255,245.5606c4.2535-11.7191,17.2018-17.7712,28.921-13.5178s17.7712,17.2018,13.5178,28.921"/><path class="k" d="M243.3844,243.121c5.5872-15.3938,22.5956-23.3436,37.9894-17.7564,15.3938,5.5872,23.3436,22.5956,17.7564,37.9894"/><path class="k" d="M256.4637,249.6998c3.5245-9.7106,12.1308-13.6085,19.9633-10.7176,8.7979,3.2473,11.167,13.5416,8.3186,21.3896"/><path class="k" d="M307.2014,268.1006c-.6267-.2274-1.2604-.369-1.8906-.4476-1.2172-2.4956-3.4481-4.5922-6.3858-5.6584-2.7373-.9935-5.5773-.9051-8.0032,.0277-.6342-.4595-1.3471-.8418-2.1274-1.125-4.1588-1.5095-8.6555,.3673-10.0436,4.1919s.8579,8.1486,5.0168,9.6581c.6165,.2237,1.2398,.3644,1.8599,.444,1.2079,2.5319,3.454,4.6634,6.4239,5.7414,2.7645,1.0034,5.6347,.905,8.0761-.0542,.6146,.4347,1.2985,.8004,2.047,1.0721,4.1588,1.5095,8.6555-.3673,10.0436-4.1919s-.8579-8.1486-5.0168-9.6581Z"/><path class="k" d="M307.6777,266.7185c7.156-19.7161-3.026-41.5002-22.7421-48.6561-19.7161-7.156-41.5002,3.026-48.6561,22.7421"/><path class="k" d="M255.646,249.4876c-.6267-.2274-1.2604-.369-1.8906-.4476-1.2172-2.4956-3.4481-4.5922-6.3858-5.6584-2.7373-.9935-5.5773-.9051-8.0032,.0277-.6342-.4595-1.3471-.8418-2.1274-1.125-4.1588-1.5095-8.6555,.3673-10.0436,4.1919-1.3881,3.8245,.8579,8.1486,5.0168,9.6581,.6165,.2237,1.2398,.3644,1.8599,.444,1.2079,2.5319,3.454,4.6634,6.4239,5.7414,2.7645,1.0034,5.6347,.905,8.0761-.0542,.6146,.4347,1.2985,.8004,2.047,1.0721,4.1588,1.5095,8.6555-.3673,10.0436-4.1919s-.8579-8.1486-5.0168-9.6581Z"/><polygon class="q" points="85.493 94.2157 88.784 99.1827 91.8939 104.054 94.9119 110.317 97.0499 114.7539 100.3623 121.6279 101.5416 126.6581 103.0815 130.716 106.199 129.5153 107.8618 124.958 108.526 114.6016 107.7832 109.2995 105.3641 104.2794 102.7734 101.4016 100.5267 98.6216 97.4558 96.7038 93.4134 94.4644 89.6929 93.0423 87.749 92.4947 85.4836 92.7513 84.661 93.6336 85.493 94.2157"/><path class="p" d="M89.6812,92.3873l4.49,2.4333,4.2999,2.5947,3.9207,3.5493,2.2555,2.9355,2.1504,4.4626,1.7282,6.2389,.1586,4.9982-.6307,4.6476-.6661,2.4642,1.4461-.0009,3.3601-3.2509,1.1564-4.1232s1.8694-3.3666,1.9962-3.7293-.1826-4.1342-.1826-4.1342l-.6544-5.1133-2.4223-4.0881-1.6863-3.4995s-2.912-2.6009-3.03-2.8456-2.7659-1.9847-2.7659-1.9847l-4.0987-2.2472-4.0495-.2962-5.018,.1418-1.7577,.847Z"/><path class="q" d="M81.144,95.99l-.8946,5.028-.6499,4.9799,.333,5.2781,.8905,3.5932,2.1504,4.4626,3.8028,5.2393,3.8104,3.2385,4.0281,2.4027,2.3424,1.0145-.9018,1.1305-4.6363,.6024-3.9455-1.6647s-3.798-.6357-4.1607-.7625-3.1197-2.7189-3.1197-2.7189l-3.5915-3.698-1.688-4.4419-1.6863-3.4995s-.2197-3.8982-.3376-4.143,.1712-3.4,.1712-3.4l.7964-4.606,2.2916-3.3518,3.2376-3.8364,1.7577-.847Z"/><polygon class="p" points="84.8643 93.4663 87.6433 98.7979 91.0991 103.466 94.2924 109.467 96.5333 114.1173 99.9447 121.8227 101.3422 125.9747 102.4527 129.9666 99.7892 131.5517 95.4163 129.9027 87.2362 123.8082 83.659 119.8719 81.24 114.8518 80.5324 111.0665 79.7045 107.6028 79.9913 104.067 80.5838 99.5942 81.6108 95.8845 82.2946 94.0707 83.7659 92.5266 84.895 92.4685 84.8643 93.4663"/><circle class="e" cx="93.5226" cy="112.2506" r="21.056"/><path class="e" d="M84.3822,93.282l.771,.9724c9.0288,10.2896,15.2797,23.2616,17.5098,36.9648h0"/><path class="e" d="M107.0271,128.0459l1.0268-3.7985c3.1265-14.6071-4.6553-28.3669-21.4689-32.0269"/><path class="e" d="M82.3694,94.7378c-4.3043,9.6354-3.0173,18.8137,1.8389,25.9886,3.7192,5.4949,9.3776,9.3834,15.7811,11.1216l.4753,.129"/><path d="M154.1947,60.328c-1.2812-1.789-2.5623-3.5779-3.8435-5.3669-.067-.0936-.1342-.1861-.2017-.2774,.6419-.119,1.2838-.2382,1.9271-.3501,1.1266-.196,.8139-1.9149-.2624-1.9389-.863-.0192-1.7266-.0391-2.5905-.0602-.204-1.0083-.438-2.0132-.6994-3.0128,1.4514-2.1311,2.882-4.2749,4.1097-6.5468,.4329-.8011-.5011-1.9654-1.3505-1.3505-1.4063,1.018-2.8254,2.0179-4.2545,3.0034-.5646-1.6229-1.1852-3.2213-1.8454-4.7847-.0977-.2313-.1968-.47-.2975-.7121,1.5924-1.6489,3.0871-3.3899,4.4827-5.2102,1.9859-2.5904,3.79-5.3773,4.5066-8.6051,.0883-.3978-.051-.9236-.4536-1.1147-1.3198-.6265-2.1583,.3976-2.9218,1.3663-.9309,1.1811-1.7998,2.4082-2.6134,3.6728-1.5199,2.3625-2.8571,4.8355-4.1663,7.3196-.6127-1.1705-1.3562-2.2582-2.3494-3.0104-2.1378-1.6188-4.4811-.056-5.8556,1.7306-1.816,2.3605-3.4857,4.8502-5.0925,7.3563-.8305,1.2954-1.6378,2.6056-2.4212,3.93-.7375,1.2469-1.514,2.4606-1.5833,3.9435-.7163-.1449-1.4317-.2967-2.1448-.4643-1.0314-.2425-1.8346,1.3484-.7606,1.8041,2.4075,1.0217,4.8192,2.0464,7.2569,3.0009-3.4668,1.9787-6.9855,3.8669-10.5545,5.6573-3.0754,1.5428-6.187,3.012-9.3291,4.4138-1.1607,.5178-.1547,2.2097,.9964,1.7046,8.5717-3.7611,17.4449-6.8112,26.5055-9.1419,.0593,.0172,.1186,.0346,.178,.0517l-.0956,.0983c-.6564,.6019-1.2906,1.2285-1.8991,1.8837-.8643,.9308,.4722,2.2746,1.3959,1.3959,.6596-.6275,1.3021-1.2715,1.9364-1.923,.3029-.278,.6117-.5496,.9258-.8152l.1,.0272c-.2365,.5491-.4526,1.106-.6401,1.6726-.4385,1.3249-.8704,2.9566-.4232,4.3379,.441,1.3622,1.6785,1.8748,2.9766,1.3597,1.3331-.529,2.6251-1.9054,4.0665-2.077,.2045-.0243,.2851-.0512,.311-.0631-.0232,.0186-.0682,.0799-.0007,.2204,.1484,.309-.1648,1.2266-.233,1.572-.1921,.9728-.4689,1.9206-.8031,2.8535-.4292,1.1982,1.4776,1.7141,1.9036,.5248,.6881-1.921,2.6683-7.892-1.4097-7.0773-1.5063,.3009-2.7207,1.2654-4.048,1.9687-.1572,.0833-.6261,.4205-.7686,.3465-.213-.1105-.199-.6867-.2012-.8768-.009-.7969,.2401-1.6459,.4777-2.3966,.2027-.6406,.4471-1.2692,.7215-1.8879,1.145,.2484,2.2975,.4224,3.4188,.4313,1.5716,.0125,2.7014-.6653,3.192-1.8052,1.0069,1.4061,2.0139,2.8121,3.0208,4.2181,.7333,1.0239,2.4463,.0393,1.7046-.9964Zm-12.7784-6.301c.0552,.0029,.1105,.0052,.1657,.0081-.1567,.1832-.318,.3624-.4765,.544-.405,.0963-.8084,.1988-1.2127,.298,.5267-.2645,1.0373-.559,1.5235-.85Zm4.6738-5.9367c-1.3319,1.2741-2.7667,2.4216-4.3242,3.4112-.2845,.1808-.5733,.3548-.864,.5254-.5676-.0314-1.1349-.066-1.7019-.1036,1.5403-.9588,3.0705-1.9341,4.5871-2.9305,.7183-.4719,1.4337-.948,2.1463-1.4282,.0518,.1753,.1062,.3499,.1567,.5256Zm.434,4.1714c.157-.2318,.3134-.4624,.4692-.6919,.0548,.2361,.1046,.4732,.157,.7098-.2087-.006-.4174-.0116-.6261-.0179Zm1.9808-6.459c-.2268,.3478-.4553,.6946-.686,1.0399-.0477-.1555-.0952-.311-.1441-.4661,.2772-.1906,.5538-.3819,.8301-.5738Zm-3.1857-.2068c-2.0237,1.3684-4.0698,2.7032-6.1365,4.0053,.4294-.8711,.8574-1.743,1.2919-2.6116,1.0197-2.0388,2.0576-4.0685,3.1053-6.093,.6378,1.5436,1.2176,3.1115,1.7393,4.6993Zm-13.786-1.2283c1.2126-1.9277,2.4764-3.8231,3.7899-5.6835,.8393-1.1888,2.7934-4.9114,4.693-3.8778,.8005,.4356,1.34,1.4967,1.773,2.2559,.2676,.4692,.5115,.9517,.7439,1.44-.3149,.3106-.6321,.6188-.9537,.9223-3.7531,3.5425-7.9682,6.5535-12.511,8.9868,.2084-.3594,.4357-.7078,.6375-1.049,.5954-1.0066,1.2046-2.0049,1.8272-2.9948Zm8.5708-1.0087c-.4744,.9346-.9511,1.8681-1.4196,2.8056-.7416,1.4841-1.4771,2.9714-2.2027,4.4635-.1475,.3034-.2926,.6069-.4289,.9125-.0656,.0399-.1318,.0789-.1974,.1187-2.3504-.2176-4.6923-.509-7.0206-.9021,4.019-2.035,7.8037-4.5218,11.2691-7.3982Zm-11.1777,14.5865c1.4179-.7813,2.8272-1.5781,4.2279-2.3899,.5816,.2132,1.165,.4213,1.7507,.6228-2.0031,.5541-3.9964,1.1426-5.9786,1.7671Zm18.8118-1.6616c-.3018,.8579-1.5556,.6853-2.2795,.5887-.5551-.074-1.1096-.1664-1.6627-.2723,.1306-.2379,.2644-.4743,.4013-.7093,1.1969-.2649,2.3973-.5139,3.5996-.7538,.0558,.4183,.0567,.8183-.0588,1.1467Z"/><path d="M414.8498,158.3103c1.2199-1.7924,3.0249-4.3197,2.399-6.6191-.5896-2.1662-2.9425-2.7795-4.9048-2.9813-2.3827-.2449-4.8045-.2161-7.1865,.0167-5.3734,.5251-10.617,2.125-15.3673,4.6928-.2133,.1153-.4242,.2351-.6353,.3544-.0666-.2404-.1647-.4727-.305-.6908-.6339-.9853-1.8334-1.1544-2.8699-.7992-1.0517,.3604-1.9926,1.1243-2.868,1.7911-.9885,.753-1.9276,1.5668-2.8005,2.4516-.8796,.8917-1.7462,1.8872-2.5504,2.9583-1.146-.3898-2.296-.7683-3.4512-1.1315-.4805-.1511-1.1184,.1786-1.2166,.6907-.2328,1.2145,.5477,1.8291,1.3776,2.5976l1.1966,1.1081c-1.2077,2.2602-2.017,4.702-2.0828,7.1441-.0599,2.2242,.6936,4.5295,2.3262,6.0907,1.8472,1.7663,4.3359,1.8996,6.7649,1.7308,.6647-.0462,1.3238-.1215,1.9778-.2206-.1182,.1726-.237,.3447-.3529,.5191-.5162,.7767,.3331,1.6036,1.1169,1.4528,2.0413-.3926,3.8493-1.3858,5.5495-2.5446,.5263,.489,1.0532,.9773,1.5833,1.462,.7639,.6985,1.5197,1.1733,2.5681,.772,.4727-.1809,.9039-.4676,1.3017-.819,.0812,.0954,.158,.195,.2241,.3045,.8076,1.3374,1.3953,2.852,2.0708,4.26l2.3297,4.8562c.5504,1.1472,2.2564,.1451,1.7079-.9983-.832-1.7343-1.6641-3.4687-2.4961-5.203-.5311-1.1071-.9966-2.4041-1.6422-3.522,.9273,.3373,1.8523,.6811,2.7764,1.0249,1.0768,.4007,2.1536,.8014,3.2305,1.2021,.9705,.3611,1.9309,.7878,2.9644,.926,1.6995,.2274,3.3647-.6899,3.3579-2.5769-.0076-2.0918-2.1418-3.638-3.6057-4.8218-1.7089-1.3819-3.5396-2.5981-5.4401-3.6994,2.8699-1.8144,5.6179-3.8278,8.0928-6.148,1.811-1.6978,3.4613-3.5776,4.8591-5.6312Zm-31.9969-1.4736c.8789-.7854,1.8124-1.5084,2.8028-2.1482,.2876-.1858,1.1407-.8604,1.4933-.5792,.1811,.1444,.1973,.4612,.1624,.7744-1.5022,.9623-2.9399,2.0251-4.3002,3.1796-.8469,.7188-1.778,1.4904-2.5817,2.3558-.2263-.0816-.4528-.1627-.6795-.2432,.9281-1.2049,1.9662-2.3234,3.1029-3.3392Zm-4.4953,5.3443c.069-.1111,.142-.2194,.2128-.3294,.2031,.0711,.4058,.1433,.6086,.2152-.1604,.275-.3015,.5591-.4185,.8532l-.5458-.5054c.0477-.0785,.0954-.1571,.1429-.2337Zm2.0319,2.1185c.0635-.5766,.3319-1.0873,.6771-1.5502,.6934,.2562,1.3847,.5179,2.0743,.7841-.471,.7193-.9357,1.4409-1.3694,2.175l-1.1666-1.0804-.2333-.216c.0077-.0363,.0137-.0738,.018-.1125Zm6.7952,.8598c1.9208,.8053,3.825,1.6503,5.7109,2.5351-1.394,1.4816-2.7799,2.9724-4.1106,4.5088l-2.7277-2.5259c-.7199-.6667-1.4399-1.3334-2.1598-2.0001,1.0889-.8482,2.182-1.6913,3.2871-2.518Zm3.981,8.4305c-.2676-.0677-.5358-.1332-.8046-.1964,1.4256-1.6376,2.9153-3.2224,4.4063-4.8029,.7058,.3434,1.4091,.6922,2.1095,1.047-1.0403,1.0169-2.1462,1.9685-3.2779,2.8729-.8019,.3835-1.6127,.7455-2.4334,1.0795Zm10.8293-11.0053c-.624,1.3931-1.4288,2.7105-2.3447,3.9301-.4202,.5596-.8678,1.0979-1.3337,1.6206-.7018-.3631-1.408-.7185-2.1183-1.066,1.6151-1.7227,3.2121-3.4649,4.705-5.2954,.3767-.4618,.7668-.9315,1.15-1.4127,.5954,.6775,.2724,1.4847-.0584,2.2234Zm-1.7355-5.4101c.5937-.2587,1.3956-.699,2.1622-.9116-.2493,.5396-.5573,1.0617-.8991,1.568-.3315-.1042-.6727-.1818-1.0146-.2364-.2972-.0474-.5959-.0887-.8941-.1317,.2145-.0978,.4296-.1941,.6457-.2883Zm-.2774,2.3273c.0793,.0122,.1602,.0255,.2415,.0395-.4612,.5584-.9304,1.097-1.3678,1.6165-1.4508,1.7233-2.9838,3.3744-4.5273,5.0145-1.5972-.7485-3.2081-1.466-4.8216-2.1629-.1584-.0684-.3178-.1343-.4764-.2022,1.0818-.7786,2.1763-1.5394,3.293-2.2687,1.3457-.8789,2.7218-1.7128,4.1317-2.485,1.1812,.1259,2.3588,.2682,3.5269,.4483Zm-5.6965,14.97c.1396-.1086,.2794-.2169,.4181-.3267,1.1422-.5595,2.2645-1.1568,3.3649-1.7763l.0032-.0018c-.5004,.95-1.0268,1.9177-1.6392,2.8046-.7129-.2423-1.4283-.4767-2.1469-.6998Zm9.0532-15.6169c-.0327-.0311-.0657-.0618-.0993-.0917,.0471-.0698,.0932-.1402,.1392-.2106-.0117,.1012-.0244,.2019-.0399,.3023Zm-5.503-2.7354c-.6052,.2902-1.2032,.595-1.7957,.91-.9297-.0947-1.861-.1807-2.792-.2642,1.6734-.5025,3.4008-.8137,5.1459-.9206-.1906,.0953-.3779,.1883-.5582,.2748Zm-4.7635,2.6076c-.3888,.2376-.7758,.4783-1.1596,.7237-1.711,1.0941-3.3712,2.2619-5.0051,3.4665-.2694-.1107-.5386-.2217-.8085-.3309,.9231-1.4483,1.7851-2.9235,2.3912-4.503,.1653,.1443,.3701,.2451,.5949,.2687,1.3231,.1387,2.6546,.2555,3.9872,.375Zm-8.8316,3.1213c-.5747-.2241-1.151-.4441-1.7283-.6614,.574-.5613,1.1687-1.1022,1.7781-1.6239,.6886-.5895,1.4014-1.1495,2.133-1.6836-.5847,1.3834-1.36,2.6866-2.1829,3.9689Zm-1.2152,13.862c-2.1643,.1846-4.577,.2833-6.0994-1.529-2.3963-2.8525-1.3048-6.8199,.298-9.9902l.2602,.2409,3.3184,3.073c-.0453,.0943-.0908,.1886-.1345,.2836-.483,1.0506,.6629,1.8966,1.5533,1.1985l.0984-.077,1.1909,1.1028c1.1786,1.0915,2.3572,2.1829,3.5359,3.2744-.2306,.3106-.2767,.7462-.0742,1.0889-.2084,.2604-.4143,.5228-.6182,.7868-1.0958,.261-2.2075,.4516-3.3287,.5473Zm10.8839,1.2983c.2365,.0713,.475,.1459,.7096,.2294-.0735,.0457-.1433,.0762-.2052,.0818-.1518,.0139-.3352-.1375-.5044-.3113Zm15.0104,1.2959c.258,1.0417-.7439,1.0306-1.4589,.8573-1.9446-.4713-3.8495-1.3793-5.7236-2.0766-1.1236-.4181-2.2484-.8358-3.3775-1.2406,.3773-.6278,.7135-1.253,1.0215-1.7932,.4484-.7865,.8773-1.5836,1.2885-2.3895,2.2874,1.3081,4.4874,2.7688,6.4497,4.5297,.62,.5564,1.5897,1.2624,1.8003,2.1129Zm-6.1792-11.1351c.9577-2.3002,1.9051-4.7054,2.3879-7.1537,.2832-1.4359,.4691-3.2635-.3286-4.5533,.11-.4942-.1724-1.0728-.6946-1.1906-.303-.0683-.6133-.0916-.927-.0858-.8327-.2971-1.7757-.3176-2.6413-.3481-1.3675-.0482-2.734,.0343-4.0893,.2183-2.5807,.3503-5.0559,1.116-7.4012,2.2337,.0144-.0616,.0271-.124,.0406-.186,.0239-.0145,.0475-.0297,.0715-.0441,3.5502-2.1457,7.431-3.7002,11.4765-4.6156,3.8917-.8806,8.1469-1.2851,12.117-.7071,.7671,.1117,1.8091,.3065,2.3223,.9595,.7521,.9569,.0185,2.3028-.4657,3.2062-.9955,1.8575-2.2227,3.5845-3.6135,5.166-2.4085,2.7388-5.2445,5.0546-8.2546,7.1009Z"/><path d="M118.2982,273.4431c1.4862-2.1836,3.6851-5.2626,2.9227-8.0638-.7183-2.6389-3.5847-3.3862-5.9753-3.632-2.9028-.2984-5.8531-.2632-8.755,.0204-6.5462,.6397-12.9343,2.5888-18.7214,5.7171-.2599,.1405-.5167,.2864-.7739,.4318-.0812-.2928-.2006-.5759-.3716-.8416-.7722-1.2004-2.2336-1.4063-3.4963-.9737-1.2812,.439-2.4276,1.3697-3.494,2.182-1.2043,.9173-2.3484,1.9087-3.4118,2.9867-1.0716,1.0863-2.1273,2.2991-3.1071,3.604-1.3962-.4748-2.7972-.936-4.2045-1.3785-.5854-.184-1.3625,.2175-1.4821,.8415-.2836,1.4795,.6673,2.2283,1.6783,3.1646l1.4577,1.3499c-1.4714,2.7535-2.4573,5.7282-2.5374,8.7034-.073,2.7097,.8449,5.5181,2.834,7.42,2.2503,2.1518,5.2823,2.3142,8.2415,2.1086,.8097-.0562,1.6127-.148,2.4095-.2688-.144,.2102-.2887,.42-.4299,.6324-.6289,.9462,.4058,1.9536,1.3606,1.7699,2.4868-.4783,4.6895-1.6882,6.7608-3.1,.6411,.5958,1.2831,1.1906,1.9289,1.7812,.9306,.851,1.8514,1.4293,3.1286,.9404,.5759-.2204,1.1012-.5696,1.5858-.9978,.0989,.1162,.1924,.2376,.273,.371,.9839,1.6294,1.6999,3.4745,2.5228,5.1898l2.8381,5.9161c.6705,1.3976,2.7489,.1767,2.0807-1.2162-1.0136-2.1129-2.0273-4.2258-3.0409-6.3387-.647-1.3487-1.2141-2.9289-2.0006-4.2907,1.1297,.4109,2.2565,.8297,3.3824,1.2487,1.3119,.4881,2.6237,.9763,3.9356,1.4644,1.1823,.4399,2.3524,.9597,3.6114,1.1282,2.0704,.277,4.0991-.8404,4.0908-3.1394-.0092-2.5483-2.6093-4.4321-4.3927-5.8742-2.0819-1.6835-4.3122-3.1652-6.6274-4.5068,3.4963-2.2104,6.8441-4.6633,9.8591-7.4898,2.2063-2.0684,4.2168-4.3584,5.9197-6.8603Zm-38.9806-1.7952c1.0707-.9568,2.2079-1.8377,3.4145-2.6171,.3504-.2264,1.3896-1.0482,1.8192-.7056,.2206,.1759,.2404,.5618,.1978,.9434-1.83,1.1723-3.5815,2.4671-5.2387,3.8736-1.0318,.8757-2.166,1.8156-3.1452,2.87-.2757-.0993-.5516-.1982-.8278-.2963,1.1306-1.4679,2.3953-2.8305,3.7801-4.068Zm-5.4765,6.5107c.084-.1354,.173-.2673,.2592-.4013,.2474,.0866,.4943,.1746,.7414,.2622-.1954,.3351-.3672,.6811-.5098,1.0395l-.6649-.6157c.0581-.0956,.1163-.1914,.1741-.2846Zm2.4754,2.5809c.0773-.7025,.4044-1.3247,.8248-1.8885,.8447,.3121,1.6869,.631,2.527,.9552-.5738,.8763-1.14,1.7554-1.6683,2.6497l-1.4213-1.3162-.2842-.2632c.0093-.0443,.0167-.0899,.0219-.1371Zm8.2783,1.0475c2.3401,.981,4.6599,2.0104,6.9574,3.0885-1.6982,1.805-3.3866,3.6212-5.0078,5.4929l-3.323-3.0773c-.8771-.8122-1.7541-1.6244-2.6312-2.4366,1.3265-1.0333,2.6582-2.0604,4.0046-3.0676Zm4.8499,10.2706c-.326-.0824-.6527-.1622-.9802-.2393,1.7368-1.995,3.5516-3.9257,5.3681-5.8512,.8599,.4183,1.7167,.8433,2.57,1.2755-1.2673,1.2389-2.6146,2.3982-3.9933,3.4999-.9769,.4672-1.9647,.9083-2.9645,1.3151Zm13.193-13.4074c-.7602,1.6972-1.7407,3.3021-2.8564,4.7879-.5119,.6817-1.0572,1.3375-1.6248,1.9743-.855-.4424-1.7153-.8753-2.5806-1.2986,1.9676-2.0987,3.9132-4.2211,5.732-6.4512,.4589-.5626,.9341-1.1348,1.401-1.721,.7253,.8253,.3319,1.8088-.0712,2.7087Zm-2.1142-6.5909c.7233-.3152,1.7002-.8516,2.6341-1.1106-.3037,.6574-.679,1.2934-1.0954,1.9102-.4039-.1269-.8195-.2215-1.2361-.288-.362-.0578-.7259-.1081-1.0893-.1604,.2613-.1192,.5234-.2365,.7866-.3512Zm-.3379,2.8353c.0967,.0149,.1952,.031,.2942,.0481-.5619,.6803-1.1335,1.3365-1.6663,1.9694-1.7674,2.0994-3.6351,4.111-5.5155,6.109-1.9459-.9119-3.9083-1.786-5.8739-2.635-.193-.0833-.3872-.1636-.5804-.2463,1.318-.9485,2.6514-1.8754,4.0117-2.7639,1.6395-1.0708,3.3159-2.0866,5.0335-3.0274,1.439,.1533,2.8736,.3268,4.2967,.5462Zm-6.9398,18.2374c.17-.1324,.3404-.2643,.5094-.398,1.3915-.6816,2.7588-1.4092,4.0993-2.1641l.0039-.0022c-.6096,1.1574-1.2509,2.3363-1.997,3.4168-.8685-.2952-1.74-.5807-2.6155-.8525Zm11.0292-19.0255c-.0398-.0379-.08-.0753-.121-.1117,.0574-.0851,.1136-.1708,.1696-.2565-.0142,.1233-.0298,.246-.0486,.3682Zm-6.7041-3.3324c-.7373,.3536-1.4658,.7249-2.1877,1.1086-1.1326-.1154-2.2672-.2201-3.4014-.3219,2.0386-.6121,4.1431-.9913,6.2691-1.1215-.2322,.1161-.4604,.2295-.68,.3348Zm-5.8032,3.1767c-.4737,.2895-.9451,.5827-1.4127,.8817-2.0844,1.3329-4.107,2.7556-6.0976,4.2231-.3281-.1349-.6561-.2701-.9849-.4031,1.1246-1.7645,2.1748-3.5616,2.9131-5.4858,.2013,.1758,.4509,.2987,.7247,.3273,1.6118,.1689,3.234,.3113,4.8574,.4569Zm-10.7592,3.8026c-.7002-.273-1.4022-.5411-2.1055-.8058,.6992-.6838,1.4237-1.3427,2.1662-1.9783,.8389-.7181,1.7072-1.4004,2.5986-2.0511-.7123,1.6854-1.6568,3.273-2.6593,4.8352Zm-1.4804,16.8876c-2.6367,.2249-5.576,.3452-7.4307-1.8627-2.9193-3.4751-1.5896-8.3085,.363-12.1707l.317,.2935,4.0427,3.7437c-.0552,.1149-.1106,.2297-.1638,.3455-.5885,1.2798,.8076,2.3105,1.8923,1.4601l.1199-.0938,1.4508,1.3435c1.4359,1.3297,2.8717,2.6594,4.3076,3.9891-.2809,.3784-.3371,.909-.0904,1.3266-.2538,.3173-.5047,.637-.7532,.9585-1.335,.318-2.6894,.5502-4.0552,.6667Zm13.2594,1.5816c.2881,.0869,.5787,.1778,.8645,.2795-.0895,.0557-.1746,.0928-.2499,.0997-.1849,.0169-.4083-.1675-.6145-.3792Zm18.2866,1.5788c.3143,1.2691-.9063,1.2556-1.7773,1.0445-2.369-.5742-4.6897-1.6804-6.9728-2.5299-1.3688-.5093-2.7391-1.0182-4.1147-1.5113,.4597-.7648,.8692-1.5264,1.2445-2.1846,.5463-.9582,1.0688-1.9292,1.5697-2.911,2.7867,1.5937,5.4668,3.3731,7.8575,5.5183,.7554,.6778,1.9366,1.5379,2.1932,2.574Zm-7.5279-13.5655c1.1668-2.8023,2.3209-5.7324,2.9092-8.7151,.345-1.7494,.5714-3.9758-.4004-5.5472,.134-.602-.21-1.307-.8462-1.4504-.3692-.0832-.7471-.1116-1.1294-.1046-1.0144-.3619-2.1632-.3869-3.2177-.4241-1.666-.0588-3.3308,.0418-4.9819,.2659-3.144,.4267-6.1594,1.3596-9.0166,2.7212,.0176-.0751,.033-.1511,.0494-.2266,.0292-.0177,.0579-.0361,.0871-.0538,4.3251-2.6141,9.0529-4.5079,13.9814-5.6231,4.7411-1.0728,9.9251-1.5656,14.7617-.8615,.9345,.136,2.2039,.3734,2.8291,1.1689,.9162,1.1657,.0225,2.8054-.5673,3.906-1.2128,2.2629-2.7079,4.3669-4.4021,6.2935-2.9342,3.3366-6.3892,6.1578-10.0562,8.6508Z"/><g><path class="g" d="M431.1139,366.3177c-.5137,.1689-.9814,.0791-1.4023-.2715-.4199-.3496-.6025-.8086-.5449-1.377l1.6543-21.0312c.0645-.7334,.4062-1.2031,1.0322-1.4092,.6602-.2178,1.2158-.0439,1.667,.5195l13.8721,15.9805c.3711,.4482,.4912,.9209,.3613,1.4229-.1299,.501-.4619,.8389-.9941,1.0137-.2754,.0908-.5635,.0996-.8623,.0254s-.5488-.2314-.75-.4707l-12.4189-14.7188,.7725-.2539-1.3545,19.2539c-.0312,.3359-.1475,.6182-.3467,.8457-.2002,.2295-.4287,.3857-.6855,.4707Zm-.0996-5.2188l.3213-2.7314,10.7979-3.5557,1.8809,2.0059-13,4.2812Z"/><path class="d" d="M452.7643,359.1878c-.4043,.1338-.7891,.1084-1.1553-.0762s-.6152-.4795-.748-.8838l-6.1406-18.6475c-.1396-.4229-.1162-.8125,.0723-1.1689,.1875-.3574,.4834-.6025,.8877-.7363l6.583-2.167c1.248-.4111,2.4258-.5293,3.5322-.3545,1.1055,.1758,2.0723,.6064,2.8975,1.29,.8262,.6855,1.4229,1.5879,1.792,2.707,.2969,.9004,.3203,1.793,.0723,2.6787-.2471,.8867-.7236,1.6787-1.4297,2.3789,1.3096-.1055,2.4727,.1533,3.4912,.7734,1.0195,.6221,1.7588,1.6299,2.2178,3.0264,.418,1.2666,.4883,2.4854,.2119,3.6553-.2764,1.1689-.8555,2.21-1.7354,3.1201-.8809,.9111-2.0098,1.5928-3.3867,2.0459l-7.1621,2.3584Zm-2.7402-13.1416l5.1514-1.6963c1.0469-.3447,1.8193-.8838,2.3213-1.6191,.5-.7354,.5791-1.626,.2344-2.6729s-.9355-1.7109-1.7715-1.9961c-.8369-.2842-1.7783-.2539-2.8252,.0908l-5.1514,1.6953,2.041,6.1982Zm3.3018,10.0264l5.7295-1.8867c.8438-.2783,1.54-.6699,2.0859-1.1758,.5459-.5049,.9082-1.1025,1.0879-1.7939,.1797-.6885,.1309-1.4561-.1475-2.3008-.2598-.79-.6582-1.3809-1.1943-1.7754-.5371-.3926-1.1699-.6172-1.9004-.6719s-1.5176,.0576-2.3623,.3359l-5.7295,1.8867,2.4307,7.3818Z"/><path class="n" d="M480.4274,350.3851c-1.4873,.4893-2.9707,.667-4.4502,.5332-1.4785-.1328-2.8652-.542-4.1582-1.2256-1.2949-.6836-2.4326-1.6055-3.415-2.7676-.9844-1.1621-1.7314-2.5234-2.2461-4.085-.5078-1.543-.7109-3.0684-.6074-4.5791,.1025-1.5088,.4717-2.9229,1.1074-4.2412,.6338-1.3184,1.5-2.4736,2.5977-3.4668,1.0986-.9912,2.4004-1.7363,3.9053-2.2324,1.4141-.4658,2.6914-.6816,3.832-.6514,1.1406,.0332,2.3633,.3018,3.6699,.8066,.1826,.0625,.3359,.1396,.458,.2324,.1221,.0918,.2168,.1924,.2822,.3027,.0684,.1113,.1279,.248,.1826,.4131,.1143,.3486,.0859,.6797-.0869,.9902-.1719,.3115-.4277,.5381-.7676,.6807s-.7168,.1396-1.1328-.0088c-.8721-.3643-1.7236-.582-2.5518-.6553s-1.8389,.0859-3.0322,.4795c-1.084,.3564-2.0312,.9121-2.8398,1.668-.8105,.7549-1.4502,1.6377-1.9219,2.6475-.4717,1.0107-.7412,2.0908-.8096,3.2441-.0684,1.1514,.0879,2.3066,.4688,3.4629,.3877,1.1748,.9502,2.2061,1.6904,3.0928,.7393,.8848,1.5977,1.5947,2.5781,2.127,.9795,.5322,2.0176,.8574,3.1152,.9746,1.0957,.1172,2.1865-.0029,3.2695-.3594,.9375-.3086,1.7705-.7607,2.5-1.3574,.7285-.5957,1.3867-1.3066,1.9697-2.1299,.2529-.3477,.5439-.5596,.873-.6387,.3311-.0781,.6445-.0381,.9404,.1182,.2959,.1572,.5107,.4375,.6436,.8418,.0605,.1836,.082,.375,.0664,.5732s-.0732,.3955-.1709,.5898c-.7324,1.1172-1.5967,2.0625-2.5918,2.8389-.998,.7754-2.1201,1.3701-3.3682,1.7812Z"/></g><path d="M457.579,405.8577c1.9125-2.8099,4.7422-6.7721,3.761-10.3768-.9244-3.3959-4.6129-4.3575-7.6893-4.6737-3.7355-.384-7.532-.3387-11.2663,.0262-8.4239,.8232-16.6443,3.3313-24.0915,7.3569-.3344,.1808-.665,.3686-.9959,.5557-.1044-.3768-.2582-.7411-.4782-1.083-.9937-1.5447-2.8742-1.8097-4.4992-1.2529-1.6487,.5649-3.1239,1.7626-4.4962,2.8079-1.5497,1.1805-3.022,2.4562-4.3904,3.8435-1.379,1.3979-2.7375,2.9586-3.9983,4.6378-1.7966-.611-3.5995-1.2045-5.4105-1.7739-.7533-.2368-1.7533,.2799-1.9072,1.0829-.365,1.9039,.8587,2.8675,2.1597,4.0723,.6253,.579,1.2506,1.1581,1.8759,1.7371-1.8934,3.5433-3.1621,7.3713-3.2653,11.1999-.0939,3.4869,1.0873,7.1009,3.6468,9.5484,2.8958,2.7691,6.7975,2.9779,10.6055,2.7135,1.042-.0724,2.0753-.1904,3.1007-.3459-.1854,.2705-.3715,.5404-.5533,.8138-.8093,1.2176,.5222,2.5139,1.7509,2.2776,3.2001-.6155,6.0346-2.1725,8.7-3.9892,.825,.7666,1.6511,1.5321,2.4822,2.2921,1.1975,1.0951,2.3825,1.8393,4.026,1.2102,.741-.2837,1.417-.733,2.0407-1.284,.1273,.1496,.2476,.3057,.3513,.4774,1.2661,2.0967,2.1875,4.4712,3.2464,6.6784,1.2174,2.5377,2.4348,5.0754,3.6522,7.6131,.8628,1.7985,3.5374,.2274,2.6775-1.5651-1.3044-2.7189-2.6088-5.4379-3.9131-8.1569-.8326-1.7356-1.5624-3.769-2.5744-5.5215,1.4537,.5288,2.9038,1.0677,4.3527,1.6068,1.6881,.6281,3.3763,1.2563,5.0644,1.8845,1.5214,.5661,3.0271,1.235,4.6473,1.4518,2.6643,.3564,5.2749-1.0815,5.2642-4.0399-.0118-3.2793-3.3578-5.7034-5.6527-7.5591-2.6791-2.1664-5.5491-4.0731-8.5284-5.7996,4.4991-2.8444,8.8073-6.0009,12.6871-9.6382,2.8391-2.6617,5.4264-5.6086,7.6177-8.8281Zm-50.1618-2.3101c1.3778-1.2313,2.8412-2.3648,4.3939-3.3678,.4509-.2913,1.7882-1.3489,2.341-.908,.2838,.2263,.3094,.723,.2546,1.214-2.3549,1.5086-4.6089,3.1747-6.7414,4.9847-1.3277,1.1269-2.7873,2.3364-4.0474,3.6933-.3548-.1278-.7098-.255-1.0652-.3812,1.455-1.889,3.0824-3.6424,4.8644-5.2348Zm-7.0474,8.3783c.1081-.1742,.2227-.344,.3336-.5164,.3184,.1115,.6361,.2247,.954,.3374-.2515,.4312-.4726,.8765-.656,1.3376l-.8556-.7924c.0748-.1231,.1496-.2462,.2241-.3663Zm3.1855,3.3212c.0995-.904,.5204-1.7046,1.0614-2.4302,1.087,.4016,2.1708,.812,3.2518,1.2292-.7383,1.1277-1.467,2.2589-2.1469,3.4097l-1.8289-1.6937-.3657-.3386c.012-.057,.0215-.1157,.0282-.1764Zm10.6529,1.3479c3.0113,1.2624,5.9965,2.5871,8.9531,3.9744-2.1854,2.3227-4.358,4.6599-6.4443,7.0685-1.4254-1.32-2.8508-2.64-4.2762-3.9599-1.1286-1.0452-2.2573-2.0903-3.3859-3.1355,1.707-1.3297,3.4207-2.6514,5.1533-3.9474Zm6.241,13.2166c-.4195-.1061-.84-.2088-1.2614-.3079,2.235-2.5673,4.5704-5.0517,6.9079-7.5296,1.1066,.5383,2.2091,1.0852,3.3071,1.6413-1.6309,1.5943-3.3646,3.0861-5.1388,4.5039-1.2571,.6012-2.5282,1.1688-3.8148,1.6923Zm16.9772-17.2531c-.9783,2.184-2.24,4.2492-3.6757,6.1612-.6588,.8773-1.3605,1.7212-2.0908,2.5406-1.1003-.5693-2.2073-1.1264-3.3208-1.6711,2.532-2.7007,5.0356-5.4319,7.3761-8.3016,.5905-.724,1.2021-1.4603,1.8029-2.2147,.9334,1.0621,.4271,2.3276-.0916,3.4857Zm-2.7207-8.4815c.9307-.4056,2.1879-1.0959,3.3897-1.4291-.3908,.8459-.8737,1.6644-1.4096,2.4581-.5197-.1633-1.0546-.2851-1.5906-.3706-.4659-.0743-.9341-.1391-1.4018-.2064,.3362-.1534,.6735-.3044,1.0123-.452Zm-.4349,3.6485c.1244,.0192,.2512,.0399,.3786,.0619-.723,.8755-1.4587,1.7198-2.1443,2.5343-2.2744,2.7016-4.6777,5.2901-7.0975,7.8613-2.504-1.1734-5.0294-2.2983-7.5588-3.3908-.2483-.1073-.4983-.2105-.7469-.317,1.696-1.2206,3.4119-2.4133,5.1625-3.5566,2.1097-1.3779,4.2671-2.6851,6.4773-3.8958,1.8517,.1973,3.6979,.4205,5.5292,.7028Zm-8.9304,23.4686c.2188-.1703,.438-.3401,.6555-.5122,1.7906-.8771,3.5501-1.8135,5.2752-2.7848l.005-.0028c-.7844,1.4894-1.6097,3.0065-2.5698,4.3969-1.1177-.3798-2.2391-.7473-3.3657-1.0971Zm14.1928-24.4827c-.0512-.0488-.1029-.097-.1557-.1437,.0739-.1095,.1461-.2197,.2182-.3301-.0183,.1587-.0383,.3165-.0625,.4739Zm-8.6271-4.2883c-.9488,.455-1.8863,.9328-2.8152,1.4266-1.4575-.1485-2.9175-.2832-4.3771-.4143,2.6233-.7877,5.3315-1.2757,8.0673-1.4432-.2988,.1494-.5924,.2953-.8751,.4308Zm-7.4678,4.088c-.6096,.3725-1.2162,.7498-1.818,1.1346-2.6823,1.7152-5.2851,3.546-7.8466,5.4344-.4223-.1735-.8443-.3476-1.2675-.5188,1.4472-2.2706,2.7986-4.5832,3.7486-7.0593,.2591,.2262,.5802,.3843,.9326,.4212,2.0742,.2174,4.1616,.4006,6.2507,.5879Zm-13.8454,4.8933c-.901-.3513-1.8044-.6963-2.7094-1.0369,.8998-.88,1.8321-1.7279,2.7876-2.5457,1.0796-.9241,2.1969-1.8021,3.3439-2.6395-.9166,2.1688-2.1321,4.2118-3.4221,6.2221Zm-1.9051,21.7316c-3.393,.2894-7.1754,.4442-9.5621-2.397-3.7566-4.4719-2.0455-10.6917,.4672-15.6617l.4079,.3777c1.7341,1.6059,3.4682,3.2117,5.2023,4.8176-.0711,.1479-.1423,.2956-.2108,.4446-.7573,1.647,1.0392,2.9733,2.4351,1.8789l.1542-.1208,1.867,1.7289c1.8477,1.7111,3.6955,3.4222,5.5432,5.1333-.3615,.4869-.4338,1.1698-.1163,1.7071-.3266,.4083-.6494,.8197-.9692,1.2335-1.7179,.4092-3.4608,.708-5.2184,.858Zm17.0627,2.0353c.3707,.1118,.7447,.2288,1.1124,.3597-.1152,.0717-.2247,.1194-.3216,.1283-.2379,.0218-.5255-.2156-.7908-.488Zm23.5319,2.0316c.4044,1.6331-1.1663,1.6157-2.2871,1.3441-3.0485-.7389-6.0349-2.1623-8.9729-3.2555-1.7615-.6554-3.5248-1.3103-5.295-1.9448,.5915-.9842,1.1186-1.9643,1.6014-2.8113,.703-1.2331,1.3753-2.4826,2.02-3.746,3.586,2.0508,7.035,4.3406,10.1113,7.1012,.9721,.8723,2.4921,1.979,2.8223,3.3124Zm-9.6872-17.4567c1.5015-3.6061,2.9866-7.3767,3.7436-11.215,.444-2.2511,.7354-5.1162-.5152-7.1383,.1725-.7747-.2703-1.6819-1.0889-1.8664-.475-.1071-.9614-.1437-1.4533-.1345-1.3054-.4658-2.7837-.4978-4.1407-.5457-2.1439-.0756-4.2862,.0538-6.4109,.3422-4.0458,.5491-7.9262,1.7496-11.6029,3.5018,.0226-.0966,.0424-.1944,.0636-.2917,.0375-.0228,.0745-.0465,.1121-.0692,5.5657-3.3639,11.6496-5.8009,17.9918-7.236,6.101-1.3805,12.772-2.0147,18.9959-1.1086,1.2026,.1751,2.8361,.4805,3.6406,1.5042,1.179,1.5001,.029,3.6101-.7301,5.0264-1.5607,2.912-3.4846,5.6195-5.6648,8.0987-3.7759,4.2936-8.2219,7.9241-12.9408,11.1322Z"/><path d="M68.1305,167.5652c-2.1697,.3664-4.3394,.7328-6.5091,1.0992-.1135,.0192-.2261,.0389-.3378,.0595,.1747-.6291,.3492-1.2582,.5309-1.8853,.3181-1.0984-1.3637-1.5715-1.8574-.6149-.3959,.7671-.7927,1.5344-1.1906,2.3015-.9955-.2591-2.0013-.4897-3.0142-.6933-1.2782-2.2392-2.5771-4.4653-4.08-6.5653-.5299-.7405-1.986-.4119-1.8061,.6211,.2978,1.7103,.5737,3.4243,.8323,5.1408-1.7061-.2047-3.4147-.3483-5.1093-.4409-.2507-.0137-.5087-.0294-.7705-.0451-.7831-2.1544-1.6918-4.2614-2.7153-6.3141-1.4565-2.9211-3.1693-5.765-5.7555-7.8251-.3188-.2539-.8523-.3594-1.2007-.0814-1.142,.9112-.5896,2.1139-.0541,3.2251,.6529,1.3547,1.3744,2.6739,2.1538,3.9598,1.4561,2.4023,3.0918,4.6889,4.7496,6.9553-1.3207,.037-2.6243,.2279-3.7359,.7905-2.3926,1.2108-2.0163,4.0023-1.0139,6.0212,1.3244,2.6675,2.8291,5.2603,4.3762,7.8037,.7996,1.3147,1.6228,2.615,2.4693,3.9,.7969,1.2098,1.5469,2.4401,2.8491,3.1529-.4444,.5801-.8947,1.1564-1.3582,1.7236-.6704,.8205,.4068,2.2401,1.2875,1.475,1.9743-1.7152,3.9533-3.4328,5.8805-5.2046,.2571,3.9834,.41,7.9738,.4531,11.9665,.0371,3.4405-.0078,6.8812-.1267,10.3198-.0439,1.2702,1.9178,1.1085,1.9689-.1475,.3809-9.3528,1.533-18.6646,3.4138-27.8292,.0415-.0458,.0831-.0914,.1245-.1373l.0464,.1291c.2528,.8539,.5377,1.6987,.8596,2.533,.4572,1.1851,2.2512,.5736,1.8668-.642-.2745-.8681-.5713-1.7279-.8785-2.5838-.1169-.3942-.2255-.7908-.3264-1.1896l.0683-.0779c.3897,.4535,.7953,.8919,1.2222,1.309,.9982,.9753,2.2749,2.0793,3.7125,2.2835,1.4175,.2014,2.4212-.6858,2.5278-2.0783,.1095-1.43-.5605-3.195-.0823-4.5655,.0679-.1945,.0791-.2787,.0797-.3072,.0065,.029,.0418,.0963,.1978,.0974,.3428,.0022,1.0299,.6863,1.3104,.8991,.7899,.5994,1.5202,1.264,2.2118,1.9736,.8884,.9114,2.1886-.5758,1.3068-1.4804-1.4243-1.4612-5.9212-5.8603-6.9782-1.8382-.3904,1.4856-.0566,3.0001-.0069,4.5014,.0059,.1778,.1032,.7471-.0258,.8427-.1928,.1429-.7044-.1224-.8762-.2039-.7201-.3415-1.3737-.9379-1.944-1.4807-.4867-.4632-.9444-.9586-1.3799-1.4766,.7256-.9199,1.3875-1.8793,1.8875-2.8829,.7008-1.4068,.5874-2.7195-.2218-3.6604,1.7053-.288,3.4105-.5759,5.1158-.8639,1.2418-.2097,1.1086-2.181-.1475-1.9689Zm-11.2685,8.7184c.0268-.0484,.0532-.097,.08-.1454,.0959,.2212,.1861,.4447,.2798,.6669-.0912,.4062-.176,.8137-.2643,1.2205-.0067-.5893-.0472-1.1774-.0954-1.742Zm-3.2842-6.8045c.5606,1.7559,.9623,3.5486,1.1682,5.3824,.0376,.335,.0673,.6708,.0931,1.007-.2773,.4962-.5572,.9909-.8397,1.4839-.1858-1.8048-.3909-3.6077-.6208-5.4078-.1089-.8525-.2229-1.7043-.3418-2.5553,.1803,.0303,.361,.058,.5411,.0898Zm3.9389,1.4401c-.1394-.2428-.278-.4845-.4159-.7252,.2362,.0543,.4711,.1136,.7067,.1704-.0969,.1849-.1935,.37-.2908,.5548Zm-4.9351-4.6138c.2131,.3564,.4244,.7139,.6335,1.0727-.1606-.0254-.3213-.0509-.4821-.075-.0497-.3327-.1002-.6652-.1514-.9977Zm-1.5835,2.772c.3418,2.4189,.6436,4.8432,.907,7.2716-.5944-.768-1.1901-1.5352-1.78-2.3067-1.3847-1.8108-2.7533-3.6339-4.1129-5.4637,1.6669,.1041,3.3303,.271,4.9859,.4987Zm-7.1522,11.8494c-1.2003-1.9354-2.349-3.9027-3.4445-5.8992-.7-1.2758-3.1879-4.665-1.4256-5.9185,.7426-.5283,1.9328-.5475,2.8051-.6035,.5391-.0346,1.0797-.0421,1.6204-.0367,.141,.4193,.2788,.8396,.4104,1.2616,1.5368,4.9269,2.3932,10.0356,2.5867,15.1854-.2315-.345-.4449-.7021-.663-1.0331-.6433-.9766-1.2731-1.9621-1.8895-2.9559Zm2.8539-8.1444c.6317,.8364,1.2614,1.6742,1.8984,2.5066,1.0083,1.3176,2.0221,2.631,3.0446,3.9376,.2079,.2657,.417,.5292,.6318,.7857,.007,.0765,.0131,.153,.02,.2295-1.2267,2.0167-2.516,3.9933-3.8908,5.913-.0654-4.5044-.6396-8.9964-1.7039-13.3724Zm8.2036,16.4441c-.08-1.6169-.1777-3.2329-.2927-4.8478,.4467-.4292,.8897-.8621,1.3278-1.3-.3809,2.0431-.7266,4.0925-1.0351,6.1478Zm6.7603-17.6336c.6386,.6476-.0667,1.6986-.471,2.3067-.3101,.4664-.6363,.9241-.9742,1.3746-.1564-.2218-.3102-.4457-.4613-.6718,.2871-1.1918,.5899-2.3798,.9019-3.5654,.4004,.1333,.7602,.3081,1.0046,.5559Z"/><path class="q" d="M67.3996,241.8778c-.8364,0-1.5303-.2754-2.0806-.8267-.5513-.5503-.8267-1.2441-.8267-2.0801v-7.6382h-7.6377c-.8364,0-1.5303-.2852-2.0806-.855-.5513-.5698-.8267-1.2729-.8267-2.1089,0-.8354,.2754-1.5293,.8267-2.0806,.5503-.5503,1.2441-.8267,2.0806-.8267h7.6377v-7.6382c0-.7979,.2939-1.4819,.8838-2.0518,.5884-.5698,1.2627-.855,2.0234-.855,.8735,0,1.5762,.2759,2.1089,.8267,.5317,.5513,.7979,1.2451,.7979,2.0801v7.6382h7.6382c.7979,0,1.4907,.2852,2.0806,.855,.5884,.5703,.8833,1.2734,.8833,2.1089,0,.7983-.2949,1.4824-.8833,2.0522-.5898,.5698-1.2827,.855-2.0806,.855h-7.6382v7.6382c0,.8359-.2661,1.5298-.7979,2.0801-.5327,.5513-1.2354,.8267-2.1089,.8267Z"/><path class="r" d="M93.2799,231.0086c-.895,0-1.6377-.2842-2.2266-.854-.5898-.5688-.8848-1.3008-.8848-2.1958,0-.9351,.2949-1.687,.8848-2.2573,.5889-.5688,1.3315-.854,2.2266-.854h13.603c.894,0,1.626,.2852,2.1958,.854,.5688,.5703,.854,1.3223,.854,2.2573,0,.895-.2852,1.627-.854,2.1958-.5698,.5698-1.3018,.854-2.1958,.854h-13.603Z"/><path class="j" d="M272.6539,123.8669c-7.4161,.283-13.4276,6.3995-13.6127,13.843-.1078,4.3325,1.7182,8.2378,4.6724,10.9138,1.4693,1.3309,2.338,3.2017,2.338,5.1878v3.4267h-.4749v9.407c0,2.7059,3.1225,4.8995,7.344,4.8995s7.6437-1.9976,7.6437-4.7035c0-.0238,0-.2103-.0004-.392h.0004v-9.211h-.483v-2.9585c0-2.1477,.9525-4.1645,2.5506-5.5935,2.9111-2.6031,4.745-6.3926,4.745-10.6129,0-8.0359-6.6453-14.5145-14.7232-14.2062Z"/><path class="s" d="M267.5388,158.4643h12.2082v9.8101l-.6916,.4863c-1.8088,1.2718-4.03,1.92-6.2892,1.8353l-.4625-.0173c-2.0999-.0787-4.056-1.0215-5.3462-2.5767h0l-.2907-1.09v-8.4476"/><path class="h" d="M280.0195,157.2381c-2.0438,.545-4.5872,.8175-6.6764,.8175-2.4525,0-4.3601-.2725-6.9489-.8175"/><path class="h" d="M280.292,161.2545c-2.1042,.545-4.7227,.8175-6.8737,.8175-2.525,0-4.4889-.2725-7.1543-.8175"/><path class="h" d="M280.1617,165.342c-2.0651,.545-4.635,.8175-6.7461,.8175-2.4781,0-4.4056-.2725-7.0214-.8175"/><path class="m" d="M263.5992,138.801c1.3564-3.4476,1.7596-4.7698,3.2779-6.3277s3.1588-2.0968,5.8318-3.0195"/><line class="f" x1="273.3771" y1="117.9733" x2="273.3771" y2="106.9733"/><line class="f" x1="284.0802" y1="119.5358" x2="291.6151" y2="110.1647"/><line class="f" x1="291.0504" y1="126.8032" x2="301.6047" y2="122.5363"/><line class="f" x1="263.0995" y1="119.2166" x2="255.5534" y2="109.8316"/><line class="f" x1="257.1436" y1="127.043" x2="246.5893" y2="122.776"/><path d="M376.1076,92.0603c-1.8937-2.6443-3.7873-5.2885-5.681-7.9328-.0991-.1383-.1983-.2751-.2981-.4101,.9488-.176,1.8976-.3521,2.8484-.5175,1.6652-.2898,1.203-2.8304-.3879-2.8658-1.2756-.0284-2.5521-.0578-3.829-.0889-.3015-1.4903-.6474-2.9757-1.0338-4.4532,2.1452-3.1499,4.2598-6.3187,6.0745-9.6768,.6399-1.1841-.7407-2.905-1.9962-1.9962-2.0786,1.5047-4.1763,2.9827-6.2885,4.4393-.8345-2.3988-1.7518-4.7614-2.7277-7.0723-.1444-.3419-.2908-.6947-.4398-1.0526,2.3537-2.4372,4.563-5.0105,6.6258-7.7012,2.9354-3.8289,5.602-7.9481,6.6611-12.7192,.1305-.588-.0754-1.3652-.6705-1.6476-1.9508-.926-3.1901,.5877-4.3187,2.0196-1.3759,1.7457-2.6603,3.5595-3.8629,5.4287-2.2466,3.4919-4.223,7.1473-6.1582,10.819-.9056-1.7302-2.0046-3.3379-3.4727-4.4496-3.1598-2.3928-6.6235-.0827-8.6551,2.558-2.6842,3.489-5.1522,7.169-7.5272,10.8732-1.2276,1.9147-2.4209,3.8513-3.5788,5.8089-1.0901,1.843-2.2379,3.637-2.3403,5.8289-1.0588-.2141-2.1161-.4385-3.1702-.6863-1.5245-.3584-2.7117,1.993-1.1242,2.6666,3.5585,1.5101,7.1232,3.0247,10.7264,4.4355-5.1242,2.9247-10.3252,5.7156-15.6005,8.362-4.5457,2.2804-9.1449,4.452-13.7892,6.524-1.7156,.7654-.2287,3.2661,1.4727,2.5196,12.6698-5.5593,25.7851-10.0676,39.1775-13.5125,.0877,.0254,.1753,.0512,.2631,.0764l-.1413,.1453c-.9703,.8896-1.9076,1.8159-2.807,2.7843-1.2776,1.3757,.698,3.3621,2.0633,2.0633,.975-.9275,1.9246-1.8794,2.8621-2.8424,.4478-.4109,.9041-.8123,1.3685-1.205l.1478,.0402c-.3496,.8116-.6689,1.6347-.9461,2.4722-.6481,1.9583-1.2865,4.3701-.6255,6.4119,.6518,2.0134,2.481,2.7712,4.3997,2.0098,1.9704-.7819,3.8802-2.8164,6.0106-3.07,.3023-.036,.4214-.0756,.4597-.0933-.0343,.0275-.1008,.1181-.0011,.3258,.2193,.4568-.2436,1.8131-.3444,2.3235-.2839,1.4379-.6931,2.8388-1.187,4.2177-.6344,1.771,2.1841,2.5335,2.8137,.7757,1.0171-2.8394,3.9441-11.665-2.0837-10.4608-2.2264,.4448-4.0215,1.8704-5.9833,2.91-.2323,.1231-.9254,.6215-1.1361,.5122-.3149-.1634-.2942-1.015-.2974-1.296-.0134-1.178,.3549-2.4328,.7061-3.5423,.2996-.9468,.6609-1.876,1.0664-2.7904,1.6924,.3672,3.3959,.6243,5.0532,.6375,2.323,.0185,3.993-.9834,4.718-2.6683,1.4883,2.0783,2.9767,4.1565,4.465,6.2348,1.0839,1.5135,3.6159,.0581,2.5196-1.4727Zm-18.8876-9.3134c.0816,.0043,.1633,.0077,.2449,.012-.2316,.2708-.47,.5356-.7043,.804-.5986,.1423-1.1949,.2938-1.7924,.4404,.7784-.391,1.5332-.8262,2.2519-1.2564Zm6.9082-8.7749c-1.9687,1.8832-4.0894,3.5794-6.3916,5.042-.4205,.2672-.8473,.5245-1.2771,.7766-.8389-.0465-1.6774-.0975-2.5155-.1531,2.2767-1.4172,4.5384-2.8588,6.7802-4.3315,1.0617-.6974,2.1191-1.4012,3.1724-2.111,.0766,.2592,.157,.5172,.2316,.7769Zm.6415,6.1657c.2321-.3426,.4633-.6834,.6935-1.0227,.0811,.349,.1546,.6995,.232,1.0492-.3085-.0088-.617-.0171-.9255-.0265Zm2.9278-9.547c-.3352,.5142-.6729,1.0267-1.014,1.5371-.0705-.2298-.1408-.4597-.213-.689,.4097-.2817,.8186-.5645,1.227-.8481Zm-4.7088-.3056c-2.9912,2.0227-6.0155,3.9956-9.0702,5.9203,.6347-1.2876,1.2673-2.5762,1.9095-3.8601,1.5072-3.0135,3.0413-6.0136,4.5899-9.0061,.9427,2.2816,1.7997,4.5991,2.5709,6.9459Zm-20.3769-1.8155c1.7923-2.8493,3.6603-5.6509,5.6019-8.4007,1.2406-1.7571,4.1288-7.2595,6.9367-5.7317,1.1832,.6438,1.9806,2.2122,2.6207,3.3345,.3956,.6936,.7561,1.4068,1.0995,2.1284-.4655,.4591-.9344,.9147-1.4096,1.3633-5.5475,5.2362-11.7777,9.6867-18.4923,13.2834,.3081-.5313,.644-1.0463,.9423-1.5506,.88-1.4878,1.7805-2.9634,2.7008-4.4266Zm12.6684-1.4909c-.7012,1.3814-1.4058,2.7612-2.0983,4.147-1.0962,2.1937-2.1834,4.392-3.2557,6.5974-.2181,.4485-.4325,.8971-.6339,1.3487-.097,.0589-.1948,.1166-.2918,.1754-3.4741-.3216-6.9356-.7523-10.377-1.3334,5.9405-3.0079,11.5345-6.6836,16.6568-10.9351Zm-16.5217,21.5601c2.0958-1.1549,4.1788-2.3326,6.2492-3.5325,.8597,.3151,1.722,.6227,2.5878,.9205-2.9608,.8191-5.9071,1.6888-8.8369,2.612Zm27.8055-2.456c-.446,1.2681-2.2994,1.0129-3.3692,.8702-.8205-.1094-1.6401-.2459-2.4576-.4025,.1931-.3516,.3908-.7011,.5932-1.0484,1.7691-.3915,3.5435-.7597,5.3206-1.1143,.0825,.6182,.0838,1.2095-.0869,1.6949Z"/></g></g></svg>