<?xml version="1.0" encoding="UTF-8"?><svg xmlns="http://www.w3.org/2000/svg" width="489.4982" height="578.176" viewBox="0 0 489.4982 578.176"><defs><style>.c,.d{fill:#f40575;}.d{stroke:#f40575;}.d,.e,.f,.g,.h,.i,.j,.k,.l,.m,.n{stroke-miterlimit:10;}.e{stroke-width:4px;}.e,.f,.h,.i,.j,.k,.l,.m{stroke:#000;}.e,.h,.k,.m{fill:none;}.o,.l{fill:#fff;}.f,.h,.j,.m{stroke-width:3px;}.f,.m{stroke-linecap:round;}.p,.j{fill:#ffbc13;}.q,.n{fill:#6287e5;}.g{stroke:#5ccf8d;}.g,.r{fill:#5ccf8d;}.s{fill:gray;}.i{stroke-width:8px;}.k,.l{stroke-width:5px;}.n{stroke:#6287e5;}</style></defs><g id="a"/><g id="b"><g><path class="k" d="M471.9607,236.6539c-24.0471-36.8136-66.5218-37.6968-103.3997-43.4649-18.8466-2.9478-38.7019-7.6931-53.7137-21.5679-8.1242-7.5088-12.5431-17.3925-12.2025-28.9302,.3141-10.6415,3.4981-20.9896,6.0777-31.1189,2.6873-10.5522,5.0513-21.323,4.4311-32.424-.6213-11.1191-4.8144-21.9762-11.1519-30.7721-13.6781-18.984-35.3299-27.1637-56.7298-27.2393-21.9618-.0777-44.1233,8.4383-60.9232,23.5149-17.6037,15.7979-26.6166,38.1253-36.6482,59.852-9.6067,20.8063-22.3283,42.3789-44.4373,48.3862-24.107,6.5502-49.9535-2.6592-73.6119,7.0781-17.2945,7.1182-31.8751,26.9981-25.7125,48.0895,6.3772,21.8259,30.427,30.9987,48.3795,37.1637,11.5467,3.9652,23.3311,6.8594,35.377,7.8234,12.7354,1.0192,25.4719,.3079,38.1968,.0505,21.8387-.4417,44.9101,1.2055,62.9514,16.7027,7.4382,6.3894,13.2417,14.8873,15.2874,25.0379,1.3146,6.5229,10.8415,5.5576,9.5134-1.0324-4.1253-20.4692-18.7277-35.0325-36.0375-43.0005-20.8698-9.6069-43.4556-8.3189-65.4567-7.7581-12.3766,.3155-24.7036,.1962-36.9717-2.2019-11.871-2.3205-23.5576-6.2531-34.7642-11.2024-8.4449-3.7296-17.4224-8.551-23.2403-16.5041-6.251-8.545-6.5711-19.3492-1.3497-28.3866,12.6349-21.8691,39.7977-19.4921,60.6223-19.1518,11.6469,.1903,23.4443-.2121,34.5148-4.2939,9.6-3.5396,17.8343-10.0495,24.7522-17.9654,14.6001-16.7066,22.0542-38.7539,31.9435-58.7811,10.4987-21.2615,25.5104-37.9013,46.493-46.6325,20.3007-8.4475,44.8395-9.484,64.621,2.2207,8.9894,5.319,16.7632,13.8563,21.0909,23.9964,4.3136,10.107,4.458,20.6188,2.6011,31.2925-3.474,19.9684-13.0915,40.2569-7.8706,61.0643,5.1032,20.3381,24.0507,32.8963,41.2953,39.3002,34.6585,12.8705,74.34,6.2302,107.0337,26.0325,35.1112,21.2665,44.1099,73.1752,23.7614,108.4964-20.6725,35.8833-63.5386,52.1274-100.6364,36.873-8.7871-3.6132-16.9306-8.791-23.958-15.6505-8.4895-8.2868-13.86-19.0082-19.6463-29.5074-10.4433-18.9497-26.83-36.9377-48.6286-29.5094-9.7727,3.3301-17.8064,11.0249-24.5358,19.1041-4.112,4.9367,3.4313,11.5259,7.5237,6.6126,7.4944-8.9975,18.0108-18.5711,30.0925-16.9396,10.6436,1.4372,18.5346,11.1458,24.1629,20.3521,6.4883,10.613,11.4046,22.2773,19.3866,31.7666,6.5786,7.8207,14.3821,14.1896,23.023,19.0306,36.1868,20.2736,80.5278,11.1877,108.5546-19.0999,28.2818-30.5631,33.8642-80.0798,9.9396-116.706Z"/><path class="i" d="M246.3035,512.1063c-.0099-.0212-.0184-.0412-.027-.0631l-8.0872-20.6672c-1.1182-2.8464-3.4558-15.372-4.4664-24.4707-.613-5.5194,1.7568-10.9365,6.2047-14.2616,.3761-.2812,.7469-.5594,1.1129-.8351,.0186-.014,.0374-.027,.0571-.0395,23.9075-15.2047,40.3973-44.5488,44.1515-75.6214,.9315-5.7897,1.1918-11.6163,.9005-16.6445-.0019-.0331-.0018-.0657,.0001-.0988,.7154-12.075-2.4915-23.8904-8.7842-34.5736-7.3808-13.8051-18.8667-23.6588-32.1578-30.7242-11.3814-6.4986-24.6146-11.1605-39.0361-13.2746-.1076-.0158-.2146-.0283-.3221-.0437l-.0602-.0123c-2.9436-.5887-5.8588-.8795-8.738-.9129-10.1643-.6831-20.0309-.0027-29.2898,1.8734-13.4793,2.1313-23.96,6.9648-32.1933,12.8725-11.9124,7.7467-21.0435,18.1522-25.9801,30.4107-1.8377,3.8824-3.0165,8.1652-3.69,14.1772-.0057,.0506-.0136,.096-.0266,.1452-.191,.7244-1.8351,7.3418-.8822,17.0339,.9096,9.2512,1.6399,12.0562,1.7769,12.5247,.0169,.0578,.0273,.1108,.0345,.1706,.1151,.9625,1.0801,8.9619,1.7886,12.5047,.9,4.5,2.8152,11.1627-.9,18-2.9084,5.3525-2.2529,3.547-6.3,8.1l-1.972,2.3007c-1.7186,2.005-1.0418,5.0973,1.3571,6.2011l4.8439,2.2289c.3675,.0612,.582,.4489,.4387,.7928l-3.7147,8.9153c-.0253,.0608-.0469,.1271-.0619,.1912-.8113,3.4535,.3205,4.654,1.5544,5.3365,.165,.0913,.3535,.1308,.5419,.1257l2.8957-.0789c.0504-.0014,.1008,.0007,.1509,.0063l5.8876,.6542c1.1091,.1232,1.4862,1.5463,.5838,2.2027l-3.2969,2.3977c-2.9183,2.1224-3.5802,6.2006-1.4828,9.137l1.2653,1.7715s2.0214,1.0107,1.0107,8.0857c-.0101,.0705,.0062,.1497-.0291,.2115-4.5574,7.9935-.9966,16.9602,11.9486,14.8715,.085-.0137,.1738-.0174,.2595-.0096l.865,.0787c.0633,.0058,.127,.006,.1903,.0007l18.6357-1.5543c3.6559-.3049,7.337-.0406,10.9119,.7837h0c4.6736,1.0785,8.1652,4.9228,8.7807,9.6512,.878,6.7448,2.0049,15.3845,2.0049,15.3845,.6569,3.9412-3.2825,8.4402-5.0694,12.014l-33.3516,63.1925c-.3852,.7298,.144,1.6075,.9692,1.6075h143.3676c.7488,0,1.2789-.7288,1.041-1.4388-1.0309-3.0768-3.6186-10.7154-6.7262-19.2612-1.5525-4.2696-18.3295-40.1791-18.8858-41.3697Z"/><path d="M187.0637,177.3118c1.7213-2.5289,4.268-6.0949,3.3849-9.3392-.8319-3.0563-4.1517-3.9218-6.9204-4.2064-3.3619-.3456-6.7788-.3048-10.1397,.0236-7.5815,.7408-14.9799,2.9982-21.6823,6.6212-.301,.1627-.5985,.3317-.8963,.5001-.094-.3392-.2324-.667-.4303-.9747-.8944-1.3902-2.5868-1.6287-4.0492-1.1276-1.4838,.5084-2.8115,1.5863-4.0465,2.5271-1.3947,1.0624-2.7198,2.2106-3.9514,3.4591-1.2411,1.2582-2.4638,2.6627-3.5985,4.174-1.617-.5499-3.2395-1.0841-4.8694-1.5965-.678-.2131-1.578,.2519-1.7165,.9746-.3285,1.7135,.7728,2.5807,1.9438,3.6651l1.6883,1.5634c-1.7041,3.189-2.8459,6.6342-2.9387,10.0799-.0845,3.1382,.9786,6.3908,3.2822,8.5936,2.6062,2.4922,6.1177,2.6802,9.5449,2.4421,.9378-.0651,1.8678-.1714,2.7906-.3113-.1668,.2435-.3344,.4864-.4979,.7325-.7284,1.0958,.47,2.2625,1.5758,2.0498,2.8801-.554,5.4312-1.9552,7.83-3.5902,.7425,.69,1.486,1.3789,2.2339,2.0629,1.0778,.9856,2.1443,1.6554,3.6234,1.0892,.6669-.2553,1.2753-.6597,1.8366-1.1556,.1146,.1346,.2229,.2751,.3161,.4296,1.1395,1.8871,1.9687,4.024,2.9217,6.0106l3.287,6.8518c.7765,1.6187,3.1837,.2047,2.4098-1.4086-1.1739-2.447-2.3479-4.8941-3.5218-7.3412-.7494-1.562-1.4061-3.3921-2.317-4.9693,1.3083,.4759,2.6134,.961,3.9174,1.4461,1.5193,.5653,3.0387,1.1307,4.558,1.6961,1.3693,.5095,2.7244,1.1115,4.1825,1.3066,2.3979,.3208,4.7474-.9734,4.7378-3.6359-.0107-2.9514-3.022-5.1331-5.0874-6.8032-2.4112-1.9497-4.9942-3.6658-7.6756-5.2196,4.0492-2.56,7.9266-5.4008,11.4184-8.6744,2.5552-2.3955,4.8837-5.0477,6.8559-7.9453Zm-45.1456-2.0791c1.2401-1.1081,2.5571-2.1283,3.9545-3.031,.4058-.2622,1.6094-1.214,2.1069-.8172,.2555,.2037,.2784,.6507,.2291,1.0926-2.1194,1.3577-4.148,2.8573-6.0673,4.4862-1.1949,1.0142-2.5086,2.1028-3.6426,3.3239-.3193-.1151-.6388-.2295-.9587-.3431,1.3095-1.7001,2.7742-3.2782,4.3779-4.7114Zm-6.3427,7.5404c.0973-.1568,.2004-.3096,.3002-.4647,.2865,.1003,.5725,.2022,.8586,.3037-.2264,.388-.4253,.7889-.5904,1.2039l-.7701-.7131c.0673-.1108,.1347-.2216,.2017-.3297Zm2.8669,2.9891c.0896-.8136,.4683-1.5342,.9553-2.1872,.9783,.3615,1.9537,.7308,2.9267,1.1063-.6645,1.0149-1.3203,2.033-1.9322,3.0688l-1.646-1.5243-.3291-.3048c.0108-.0513,.0194-.1041,.0254-.1588Zm9.5876,1.2132c2.7102,1.1362,5.3969,2.3284,8.0578,3.5769-1.9668,2.0904-3.9222,4.1939-5.7998,6.3617-1.2829-1.188-2.5657-2.376-3.8486-3.5639-1.0158-.9407-2.0315-1.8813-3.0473-2.822,1.5363-1.1967,3.0787-2.3863,4.638-3.5527Zm5.6169,11.8949c-.3776-.0955-.756-.1879-1.1353-.2772,2.0115-2.3106,4.1134-4.5466,6.2171-6.7766,.9959,.4845,1.9882,.9767,2.9764,1.4772-1.4678,1.4348-3.0282,2.7775-4.6249,4.0535-1.1314,.5411-2.2754,1.0519-3.4333,1.5231Zm15.2795-15.5278c-.8804,1.9656-2.016,3.8243-3.3082,5.5451-.5929,.7895-1.2244,1.549-1.8818,2.2865-.9902-.5124-1.9865-1.0138-2.9888-1.504,2.2788-2.4307,4.5321-4.8887,6.6385-7.4714,.5314-.6516,1.0819-1.3143,1.6226-1.9932,.84,.9559,.3844,2.0949-.0825,3.1371Zm-2.4486-7.6333c.8377-.3651,1.9691-.9863,3.0507-1.2862-.3517,.7613-.7863,1.498-1.2686,2.2123-.4677-.147-.9491-.2566-1.4316-.3335-.4193-.0669-.8407-.1252-1.2616-.1858,.3026-.138,.6062-.2739,.9111-.4068Zm-.3914,3.2837c.1119,.0173,.2261,.0359,.3407,.0557-.6507,.7879-1.3128,1.5479-1.9299,2.2808-2.047,2.4314-4.21,4.7611-6.3878,7.0752-2.2536-1.0561-4.5265-2.0684-6.8029-3.0518-.2235-.0965-.4484-.1895-.6722-.2853,1.5264-1.0985,3.0707-2.172,4.6462-3.201,1.8988-1.2401,3.8403-2.4166,5.8296-3.5062,1.6666,.1776,3.3281,.3784,4.9763,.6325Zm-8.0374,21.1218c.1969-.1533,.3942-.3061,.5899-.461,1.6115-.7894,3.1951-1.6321,4.7476-2.5063l.0045-.0025c-.706,1.3404-1.4487,2.7058-2.3129,3.9572-1.0059-.3419-2.0152-.6726-3.0292-.9874Zm12.7735-22.0344c-.0461-.0439-.0926-.0873-.1401-.1294,.0665-.0985,.1315-.1978,.1964-.2971-.0164,.1428-.0345,.2849-.0563,.4265Zm-7.7644-3.8595c-.854,.4095-1.6976,.8396-2.5337,1.284-1.3117-.1337-2.6258-.2549-3.9393-.3728,2.361-.709,4.7984-1.1481,7.2606-1.2988-.269,.1345-.5332,.2657-.7876,.3877Zm-6.721,3.6792c-.5486,.3353-1.0946,.6748-1.6362,1.0211-2.4141,1.5437-4.7566,3.1914-7.0619,4.891-.38-.1562-.7599-.3128-1.1407-.4669,1.3025-2.0435,2.5187-4.1249,3.3738-6.3534,.2332,.2036,.5222,.3459,.8393,.3791,1.8668,.1956,3.7454,.3605,5.6257,.5291Zm-12.4609,4.404c-.8109-.3161-1.6239-.6267-2.4385-.9332,.8098-.792,1.6489-1.5551,2.5088-2.2912,.9716-.8317,1.9772-1.6219,3.0095-2.3755-.825,1.9519-1.9189,3.7907-3.0799,5.5999Zm-1.7146,19.5585c-3.0537,.2605-6.4579,.3998-8.6059-2.1573-3.381-4.0247-1.841-9.6225,.4205-14.0956l.3671,.3399c1.5607,1.4453,3.1214,2.8906,4.6821,4.3358-.064,.1331-.1281,.2661-.1897,.4001-.6815,1.4823,.9353,2.6759,2.1916,1.691l.1388-.1087,1.6803,1.556c1.663,1.54,3.3259,3.08,4.9889,4.62-.3253,.4382-.3904,1.0528-.1047,1.5364-.294,.3674-.5845,.7377-.8723,1.1101-1.5461,.3683-3.1147,.6372-4.6966,.7722Zm15.3564,1.8318c.3336,.1007,.6703,.2059,1.0012,.3237-.1036,.0645-.2022,.1075-.2895,.1155-.2141,.0196-.4729-.194-.7117-.4392Zm21.1787,1.8284c.364,1.4698-1.0497,1.4541-2.0584,1.2097-2.7437-.665-5.4314-1.9461-8.0756-2.93-1.5853-.5899-3.1723-1.1793-4.7655-1.7503,.5324-.8858,1.0067-1.7679,1.4413-2.5301,.6327-1.1098,1.2378-2.2343,1.818-3.3714,3.2274,1.8457,6.3315,3.9065,9.1002,6.3911,.8748,.785,2.2429,1.7811,2.5401,2.9811Zm-8.7184-15.711c1.3513-3.2455,2.6879-6.639,3.3692-10.0935,.3996-2.026,.6618-4.6046-.4637-6.4245,.1552-.6973-.2432-1.5137-.98-1.6798-.4275-.0964-.8653-.1293-1.308-.1211-1.1749-.4192-2.5054-.4481-3.7266-.4911-1.9295-.0681-3.8576,.0484-5.7698,.308-3.6412,.4942-7.1335,1.5746-10.4426,3.1516,.0204-.087,.0382-.175,.0573-.2625,.0338-.0205,.067-.0419,.1009-.0623,5.0091-3.0275,10.4846-5.2208,16.1926-6.5124,5.4909-1.2425,11.4948-1.8133,17.0963-.9977,1.0823,.1576,2.5525,.4325,3.2766,1.3538,1.0611,1.3501,.0261,3.2491-.6571,4.5237-1.4046,2.6208-3.1361,5.0575-5.0984,7.2888-3.3983,3.8643-7.3997,7.1317-11.6467,10.019Z"/><path d="M366.899,278.421c-1.6627-2.3217-3.3253-4.6434-4.988-6.9651-.087-.1215-.1742-.2415-.2618-.36,.8331-.1545,1.6661-.3091,2.501-.4544,1.4621-.2544,1.0563-2.4852-.3405-2.5162-1.12-.0249-2.2408-.0508-3.3619-.0781-.2647-1.3085-.5684-2.6127-.9077-3.9099,1.8835-2.7656,3.7401-5.5479,5.3335-8.4963,.5618-1.0397-.6504-2.5506-1.7526-1.7526-1.825,1.3211-3.6668,2.6188-5.5214,3.8977-.7327-2.1062-1.5381-4.1805-2.3949-6.2095-.1268-.3002-.2554-.61-.3861-.9242,2.0666-2.1399,4.0064-4.3993,5.8175-6.7617,2.5773-3.3618,4.9186-6.9785,5.8485-11.1676,.1146-.5163-.0662-1.1986-.5887-1.4466-1.7128-.813-2.801,.516-3.7919,1.7732-1.2081,1.5328-2.3358,3.1253-3.3916,4.7665-1.9725,3.0659-3.7078,6.2754-5.407,9.4992-.7951-1.5191-1.76-2.9307-3.0491-3.9068-2.7743-2.1009-5.8155-.0726-7.5993,2.2459-2.3568,3.0634-4.5237,6.2944-6.609,9.5468-1.0779,1.6811-2.1256,3.3815-3.1422,5.1003-.9571,1.6182-1.9649,3.1933-2.0548,5.1178-.9296-.188-1.858-.385-2.7835-.6026-1.3385-.3147-2.3809,1.7499-.9871,2.3413,3.1244,1.3259,6.2543,2.6557,9.4179,3.8944-4.4991,2.5679-9.0657,5.0184-13.6974,7.3419-3.9912,2.0022-8.0293,3.9089-12.1071,5.7281-1.5063,.672-.2008,2.8677,1.2931,2.2122,11.1242-4.8811,22.6396-8.8394,34.3983-11.8642,.077,.0223,.1539,.0449,.231,.0671l-.1241,.1276c-.8519,.7811-1.6749,1.5943-2.4646,2.4447-1.1217,1.2079,.6128,2.952,1.8116,1.8116,.8561-.8144,1.6898-1.6501,2.513-2.4957,.3931-.3608,.7938-.7132,1.2015-1.058l.1297,.0353c-.307,.7126-.5873,1.4353-.8307,2.1706-.569,1.7194-1.1296,3.837-.5492,5.6297,.5723,1.7678,2.1784,2.4331,3.863,1.7646,1.73-.6865,3.4068-2.4728,5.2774-2.6955,.2655-.0316,.37-.0664,.4037-.082-.0301,.0242-.0885,.1037-.0009,.2861,.1926,.401-.2139,1.5919-.3024,2.0401-.2493,1.2625-.6085,2.4925-1.0422,3.7032-.557,1.555,1.9176,2.2245,2.4705,.6811,.893-2.493,3.4629-10.242-1.8295-9.1847-1.9548,.3905-3.5309,1.6422-5.2534,2.555-.204,.1081-.8125,.5457-.9975,.4497-.2765-.1434-.2583-.8912-.2611-1.1379-.0117-1.0343,.3116-2.136,.62-3.1102,.2631-.8313,.5803-1.6472,.9363-2.45,1.4859,.3224,2.9817,.5481,4.4368,.5597,2.0396,.0162,3.5059-.8634,4.1425-2.3428,1.3068,1.8248,2.6135,3.6495,3.9203,5.4742,.9516,1.3288,3.1748,.051,2.2122-1.2931Zm-16.5835-8.1773c.0717,.0038,.1434,.0068,.215,.0105-.2033,.2378-.4127,.4703-.6184,.706-.5256,.125-1.0491,.258-1.5738,.3867,.6835-.3433,1.3462-.7254,1.9772-1.1031Zm6.0655-7.7045c-1.7286,1.6535-3.5905,3.1427-5.6119,4.427-.3692,.2346-.744,.4605-1.1213,.6819-.7366-.0408-1.4728-.0856-2.2086-.1344,1.999-1.2443,3.9848-2.51,5.9531-3.8031,.9322-.6124,1.8606-1.2303,2.7854-1.8535,.0673,.2275,.1379,.4541,.2034,.6822Zm.5633,5.4136c.2038-.3008,.4068-.6,.6089-.898,.0712,.3064,.1357,.6141,.2037,.9212-.2709-.0078-.5417-.015-.8126-.0233Zm2.5707-8.3824c-.2943,.4514-.5908,.9014-.8903,1.3496-.0619-.2018-.1236-.4036-.187-.6049,.3597-.2474,.7187-.4957,1.0773-.7446Zm-4.1344-.2684c-2.6263,1.7759-5.2817,3.5082-7.9638,5.1981,.5572-1.1305,1.1127-2.262,1.6765-3.3892,1.3234-2.6459,2.6703-5.28,4.03-7.9074,.8277,2.0033,1.5802,4.0381,2.2573,6.0986Zm-17.8911-1.5941c1.5737-2.5017,3.2138-4.9616,4.9185-7.3759,1.0893-1.5427,3.6252-6.3739,6.0905-5.0325,1.0389,.5653,1.739,1.9424,2.301,2.9277,.3473,.609,.6639,1.2352,.9654,1.8688-.4087,.4031-.8204,.8031-1.2377,1.197-4.8707,4.5974-10.341,8.5051-16.2365,11.6629,.2705-.4665,.5655-.9186,.8274-1.3614,.7726-1.3063,1.5633-2.6019,2.3714-3.8866Zm11.123-1.309c-.6157,1.2129-1.2343,2.4243-1.8423,3.6411-.9625,1.9261-1.917,3.8562-2.8586,5.7926-.1915,.3938-.3797,.7877-.5566,1.1842-.0852,.0517-.171,.1024-.2562,.154-3.0503-.2824-6.0895-.6605-9.1111-1.1708,5.2158-2.641,10.1274-5.8683,14.6248-9.6012Zm-14.5062,18.93c1.8401-1.014,3.669-2.048,5.4868-3.1015,.7548,.2766,1.512,.5468,2.2721,.8082-2.5996,.7192-5.1865,1.4828-7.7589,2.2933Zm24.4135-2.1564c-.3916,1.1134-2.0189,.8893-2.9582,.764-.7204-.0961-1.44-.2159-2.1578-.3534,.1696-.3087,.3432-.6155,.5208-.9205,1.5533-.3438,3.1112-.667,4.6715-.9783,.0725,.5428,.0736,1.0619-.0763,1.4881Z"/><path class="l" d="M437.7749,182.2228c-18.9917-4.1283-36.6542,2.9526-39.4502,15.8156-1.04,4.7846,.125,9.695,2.974,14.1884,.0198,.0312,.0174,.0738-.0063,.1035l-9.9116,12.4418c-.0487,.0611-.0035,.1522,.0689,.139l16.5686-3.0204,2.3632-.4308c.0187-.0034,.0375,.0006,.0532,.0115,4.7553,3.3094,10.6315,5.9013,17.2149,7.3323,18.9917,4.1283,36.6542-2.9527,39.4502-15.8156s-10.3331-26.6371-29.3249-30.7653Z"/><g><path class="o" d="M185.8014,13.8121L235.0499,2.5025c.0518,0,.1143,.0264,.127,.085l9.4414,41.1118,9.8926-19.2837,.1846,.0625c2.251,.7627,4.3691,1.8555,6.2949,3.2471l-13.8418,26.9878,3.458,15.0571-49.3506,11.334-15.4546-67.292Z"/><path d="M233.2745,5.474l7.3741,32.1075,3.0676,13.3566,6.2544-12.1939,2.7361-5.3343,3.0027-5.8543c.6941,.3086,1.3708,.654,2.0278,1.035l-12.3971,24.1701-.8325,1.6232,.4083,1.7779,2.6943,11.7311-44.4773,10.2151-14.3357-62.4189,44.4773-10.2151M235.065,0c-.1921,0-.3868,.0214-.5815,.0661l-49.3288,11.3293c-1.2924,.2968-2.107,1.5971-1.8101,2.8895l15.525,67.597c.2412,1.0504,1.1847,1.7665,2.221,1.7665,.1674,0,.3371-.0187,.5068-.0576l49.7954-11.4365c1.2154-.2791,1.9814-1.502,1.7023-2.7174l-3.306-14.3944,14.3642-28.0052,.0407-.0794-1.7202-1.2452c-2.1317-1.5431-4.4831-2.7574-6.9754-3.6023l-2.228-.7553-5.0126,9.7728-2.7361,5.3343-7.9088-34.4357C237.3362,.8215,236.2538,0,235.065,0h0Z"/></g><g><polygon points="242.7211 62.0776 239.8925 60.6609 237.0639 59.2441 237.2513 62.4021 237.4386 65.5601 240.0798 63.8189 242.7211 62.0776"/><path d="M255.5146,27.4351c.6941,.3086,1.3708,.654,2.0278,1.035l-13.5561,26.4298-2.1303,1.6591,.1046-2.6981,13.5541-26.4258m-2.4391-6.2005l-16.0685,31.328-.282,7.2747-.2819,7.2747,5.7437-4.4733,5.7437-4.4733,16.0685-31.328-1.7202-1.2452c-2.1317-1.5431-4.4831-2.7574-6.9754-3.6023l-2.2281-.7553h0Z"/><path class="l" d="M258.1145,24.8604l-15.5399,30.2975"/><g><path class="r" d="M246.8116,54.8697c-.8975-.3164-1.8457-.48-2.8066-.48-.2861,0-.5742,.0146-.8594,.0439l-.0879-.1792c-.5801-1.1924-1.5127-2.1753-2.6631-2.8188l13.8809-27.061,.1846,.0625c2.251,.7627,4.3682,1.855,6.2949,3.2466l-13.9434,27.186Z"/><path d="M255.4739,27.5145c.6941,.3086,1.3708,.654,2.0278,1.035l-12.0226,23.4399c-.3037-.0413-.61-.0698-.9174-.0855-.2978-.4206-.6306-.8139-.9943-1.1759l11.9065-23.2135m-2.439-6.2005l-16.0685,31.328,1.8409,.7943c.8751,.3776,1.5859,1.0564,2.0034,1.9133l.8748,1.7955,1.5409-.204c.2596-.0344,.5198-.0514,.7793-.0514,1.0918,0,2.1681,.3013,3.1071,.8778l.7772,.4772,16.0685-31.328-1.7202-1.2452c-2.1317-1.5431-4.483-2.7574-6.9753-3.6023l-2.2281-.7553h0Z"/></g></g><line class="k" x1="196.7398" y1="26.4081" x2="231.0282" y2="18.5331"/><line class="k" x1="198.9374" y1="35.977" x2="229.9162" y2="28.8174"/><line class="k" x1="201.1352" y1="45.5459" x2="235.3036" y2="37.6538"/><line class="k" x1="206.2955" y1="66.1869" x2="225.3132" y2="61.7745"/><line class="k" x1="203.7315" y1="55.0232" x2="233.5142" y2="48.1383"/><polygon class="q" points="214.7307 215.106 217.6357 209.2769 220.8198 205.1669 223.8629 202.5216 227.4256 200.238 232.9323 197.62 239.0121 195.62 242.6664 195.0343 247.2119 195.1544 253.3242 196.2256 258.2993 198.0313 264.5605 201.565 269.1156 205.3989 274.0641 211.784 277.9414 224.2814 279.0694 231.5743 277.8286 238.0075 276.1988 239.4619 273.6653 237.475 270.0789 235.3331 270.9023 231.2875 271.4679 227.0298 270.5975 222.9101 269.5756 219.1131 268.2937 216.0655 266.5212 213.0135 262.824 208.6156 259.0765 204.8571 254.2112 203.0912 249.1838 201.2665 243.4374 200.2855 239.4304 201.688 234.3275 202.743 229.6145 204.6092 226.6752 206.9685 223.6611 211.0856 220.8765 215.273 218.7953 217.5599 216.3067 217.9599 213.9989 217.1223 214.7307 215.106"/><polygon class="p" points="220.6729 217.6998 222.9122 213.2184 225.3722 210.0614 227.7263 208.0319 230.4843 206.282 234.7494 204.2794 239.4604 202.7539 242.2935 202.3116 245.8194 202.4149 250.563 203.2542 254.4262 204.6564 259.2911 207.392 262.8334 210.3548 267.8317 215.2582 270.1095 223.7333 270.6162 230.5326 269.6691 235.483 268.4084 236.599 266.4386 235.0631 263.6517 233.4054 264.2807 230.2924 264.7094 227.0155 264.0244 223.8414 263.2228 220.9154 262.2212 218.5658 260.8391 216.2116 257.9609 212.8166 255.0453 209.9138 251.2673 208.5426 247.3635 207.1257 242.904 206.3567 239.7992 207.427 235.8437 208.2272 232.1925 209.6529 229.9182 211.4625 227.5902 214.6254 225.4402 217.8429 223.8314 219.5988 221.9021 219.9009 220.11 219.2505 220.6729 217.6998"/><polygon class="c" points="226.0219 220.874 227.7844 217.3223 229.7096 214.8147 231.5458 213.1979 233.6931 211.7993 237.0095 210.1918 240.6684 208.9584 242.8658 208.5916 245.5966 208.6513 249.266 209.2846 252.25 210.3676 256.0018 212.4973 258.7275 214.8144 262.5691 218.6545 264.2812 225.3312 264.6316 230.696 263.8673 234.6101 262.8837 235.4989 261.3673 234.2986 257.3394 233.6302 257.3994 231.3575 257.4594 229.0848 258.3179 226.7195 257.9174 224.662 257.3943 222.9425 256.6559 220.7624 254.5659 218.0917 252.5685 216.2195 249.1894 214.993 246.6088 213.674 243.8756 213.8292 241.0196 214.3223 238.9622 214.7228 237.4579 215.7065 235.0325 217.1207 233.4982 219.2408 231.8413 221.6987 230.4296 223.4809 226.9605 222.6042 225.5763 222.1018 226.0219 220.874"/><path class="k" d="M225.0929,221.0045c3.8281-10.5472,15.4816-15.9941,26.0289-12.166s15.9941,15.4816,12.166,26.0289"/><path class="k" d="M219.2959,218.8089c5.0285-13.8544,20.3361-21.0092,34.1904-15.9807s21.0092,20.3361,15.9807,34.1904"/><path class="k" d="M231.0673,224.7298c3.172-8.7395,10.9177-12.2477,17.9669-9.6458,7.9181,2.9225,10.0503,12.1874,7.4867,19.2506"/><path class="k" d="M276.7313,241.2906c-.564-.2047-1.1344-.3321-1.7015-.4029-1.0955-2.246-3.1033-4.133-5.7472-5.0926-2.4636-.8942-5.0196-.8146-7.2029,.0249-.5708-.4135-1.2124-.7576-1.9147-1.0125-3.743-1.3585-7.79,.3306-9.0393,3.7727s.7721,7.3338,4.5151,8.6923c.5548,.2014,1.1158,.328,1.6739,.3996,1.0871,2.2787,3.1086,4.1971,5.7815,5.1672,2.4881,.9031,5.0712,.8145,7.2685-.0488,.5531,.3912,1.1686,.7204,1.8423,.9649,3.743,1.3585,7.79-.3306,9.0393-3.7727,1.2493-3.4421-.7721-7.3338-4.5151-8.6923Z"/><path class="k" d="M277.1599,240.0467c6.4404-17.7445-2.7234-37.3501-20.4679-43.7905-17.7445-6.4404-37.3501,2.7234-43.7905,20.4679"/><path class="k" d="M230.3314,224.5388c-.564-.2047-1.1344-.3321-1.7015-.4029-1.0955-2.246-3.1033-4.133-5.7472-5.0926-2.4636-.8942-5.0196-.8146-7.2029,.0249-.5708-.4135-1.2124-.7576-1.9147-1.0125-3.743-1.3585-7.79,.3306-9.0393,3.7727s.7721,7.3338,4.5151,8.6923c.5548,.2014,1.1158,.328,1.6739,.3996,1.0871,2.2787,3.1086,4.1971,5.7815,5.1672,2.4881,.9031,5.0712,.8145,7.2685-.0488,.5531,.3912,1.1686,.7204,1.8423,.9649,3.743,1.3585,7.79-.3306,9.0393-3.7727s-.7721-7.3338-4.5151-8.6923Z"/><polygon class="q" points="77.1937 84.7941 80.1556 89.2644 82.9545 93.6485 85.6707 99.2853 87.5949 103.2785 90.576 109.4651 91.6374 113.9923 93.0233 117.6444 95.8291 116.5638 97.3256 112.4621 97.9234 103.1414 97.2549 98.3695 95.0777 93.8514 92.7461 91.2614 90.724 88.7594 87.9602 87.0334 84.3221 85.0179 80.9736 83.7381 79.2241 83.2452 77.1852 83.4761 76.4449 84.2702 77.1937 84.7941"/><path class="p" d="M80.9631,83.1485l4.041,2.19,3.8699,2.3353,3.5286,3.1943,2.03,2.6419,1.9354,4.0164,1.5554,5.615,.1428,4.4984-.5677,4.1829-.5995,2.2178,1.3015-.0008,3.0241-2.9258,1.0408-3.7109s1.6824-3.03,1.7966-3.3564-.1644-3.7208-.1644-3.7208l-.589-4.6019-2.1801-3.6793-1.5177-3.1495s-2.6208-2.3408-2.727-2.5611-2.4893-1.7862-2.4893-1.7862l-3.6889-2.0225-3.6445-.2666-4.5162,.1276-1.5819,.7623Z"/><path class="q" d="M73.2796,86.391l-.8052,4.5252-.5849,4.4819,.2997,4.7503,.8014,3.2339,1.9354,4.0164,3.4225,4.7154,3.4294,2.9146,3.6253,2.1624,2.1082,.9131-.8116,1.0174-4.1727,.5421-3.5509-1.4982s-3.4182-.5721-3.7446-.6863-2.8077-2.447-2.8077-2.447l-3.2323-3.3282-1.5192-3.9977-1.5177-3.1495s-.1977-3.5084-.3039-3.7287,.1541-3.06,.1541-3.06l.7168-4.1454,2.0624-3.0166,2.9139-3.4528,1.5819-.7623Z"/><polygon class="p" points="76.6279 84.1197 79.129 88.9181 82.2392 93.1194 85.1131 98.5203 87.1299 102.7056 90.2002 109.6404 91.458 113.3772 92.4575 116.9699 90.0603 118.3965 86.1247 116.9124 78.7625 111.4274 75.5431 107.8847 73.366 103.3666 72.7292 99.9599 71.9841 96.8425 72.2422 93.6603 72.7754 89.6348 73.6997 86.296 74.3151 84.6636 75.6393 83.2739 76.6555 83.2216 76.6279 84.1197"/><circle class="e" cx="84.4203" cy="101.0255" r="18.9504"/><path class="e" d="M76.194,83.9538l.6939,.8751c8.1259,9.2606,13.7517,20.9355,15.7589,33.2683h0"/><path class="e" d="M96.5744,115.2413l.9241-3.4187c2.8138-13.1464-4.1898-25.5302-19.322-28.8242"/><path class="e" d="M74.3825,85.264c-3.8738,8.6718-2.7156,16.9323,1.655,23.3897,3.3472,4.9455,8.4398,8.4451,14.203,10.0094l.4277,.1161"/><path d="M139.0253,54.2952l-3.4591-4.8302c-.0603-.0842-.1208-.1675-.1815-.2497,.5777-.1071,1.1555-.2144,1.7344-.3151,1.0139-.1764,.7325-1.7234-.2362-1.745-.7767-.0173-1.554-.0352-2.3314-.0542-.1836-.9075-.3942-1.8119-.6295-2.7115,1.3062-1.918,2.5938-3.8474,3.6987-5.8921,.3896-.721-.451-1.7688-1.2154-1.2154-1.2657,.9162-2.5429,1.8161-3.829,2.703-.5082-1.4606-1.0667-2.8992-1.6609-4.3063-.0879-.2082-.1771-.423-.2678-.6409,1.4331-1.484,2.7784-3.0509,4.0344-4.6892,1.7873-2.3314,3.411-4.8395,4.0559-7.7446,.0795-.358-.0459-.8312-.4083-1.0032-1.1878-.5638-1.9425,.3579-2.6296,1.2297-.8378,1.063-1.6198,2.1674-2.3521,3.3055-1.3679,2.1262-2.5714,4.3519-3.7497,6.5877-.5514-1.0535-1.2206-2.0324-2.1145-2.7093-1.924-1.4569-4.033-.0504-5.27,1.5575-1.6344,2.1244-3.1371,4.3651-4.5833,6.6206-.7475,1.1658-1.4741,2.345-2.1791,3.537-.6637,1.1222-1.3626,2.2145-1.425,3.5492-.6447-.1304-1.2885-.267-1.9303-.4179-.9283-.2182-1.6511,1.2135-.6845,1.6237,2.1668,.9195,4.3373,1.8417,6.5312,2.7008-3.1201,1.7808-6.287,3.4802-9.4991,5.0915-2.7679,1.3885-5.5683,2.7108-8.3962,3.9724-1.0446,.466-.1392,1.9887,.8967,1.5342,7.7145-3.385,15.7004-6.1301,23.855-8.2277,.0534,.0155,.1067,.0312,.1602,.0465l-.0861,.0885c-.5908,.5417-1.1615,1.1057-1.7092,1.6954-.7779,.8377,.425,2.0472,1.2563,1.2563,.5937-.5648,1.1719-1.1443,1.7427-1.7307,.2726-.2502,.5505-.4946,.8333-.7337l.09,.0245c-.2129,.4942-.4073,.9954-.5761,1.5053-.3946,1.1924-.7834,2.6609-.3809,3.9041,.3969,1.226,1.5107,1.6873,2.679,1.2237,1.1998-.4761,2.3626-1.7149,3.6598-1.8693,.1841-.0219,.2566-.0461,.2799-.0568-.0209,.0168-.0614,.0719-.0007,.1984,.1335,.2781-.1483,1.104-.2097,1.4148-.1729,.8755-.422,1.7285-.7228,2.5681-.3863,1.0784,1.3299,1.5427,1.7133,.4723,.6193-1.7289,2.4015-7.1028-1.2688-6.3695-1.3556,.2708-2.4487,1.1389-3.6432,1.7719-.1415,.075-.5634,.3784-.6917,.3119-.1917-.0995-.1791-.618-.1811-.7891-.0081-.7173,.2161-1.4813,.4299-2.1569,.1825-.5765,.4024-1.1423,.6493-1.6991,1.0305,.2236,2.0678,.3801,3.0769,.3882,1.4144,.0113,2.4313-.5988,2.8728-1.6247,.9062,1.2655,1.8125,2.5309,2.7187,3.7963,.66,.9215,2.2017,.0354,1.5342-.8967Zm-11.5006-5.6709c.0497,.0026,.0994,.0047,.1491,.0073-.141,.1649-.2862,.3262-.4289,.4896-.3645,.0867-.7276,.1789-1.0914,.2682,.474-.2381,.9336-.5031,1.3711-.765Zm4.2064-5.343c-1.1987,1.1467-2.49,2.1795-3.8918,3.0701-.2561,.1627-.5159,.3193-.7776,.4729-.5108-.0283-1.0214-.0594-1.5317-.0932,1.3863-.8629,2.7634-1.7407,4.1284-2.6374,.6464-.4247,1.2903-.8532,1.9317-1.2854,.0467,.1578,.0956,.3149,.141,.4731Zm.3906,3.7543c.1413-.2086,.2821-.4161,.4223-.6227,.0494,.2125,.0941,.4259,.1413,.6388-.1878-.0054-.3757-.0104-.5635-.0161Zm1.7827-5.8131c-.2041,.3131-.4097,.6251-.6174,.9359-.0429-.1399-.0857-.2799-.1297-.4195,.2495-.1715,.4984-.3437,.7471-.5164Zm-2.8672-.1861c-1.8213,1.2316-3.6628,2.4329-5.5228,3.6048,.3864-.784,.7717-1.5687,1.1627-2.3504,.9177-1.8349,1.8518-3.6616,2.7947-5.4837,.574,1.3892,1.0958,2.8004,1.5654,4.2293Zm-12.4074-1.1055c1.0913-1.7349,2.2288-3.4408,3.4109-5.1151,.7554-1.0699,2.514-4.4202,4.2237-3.49,.7205,.392,1.206,1.347,1.5957,2.0303,.2409,.4223,.4604,.8566,.6695,1.296-.2834,.2796-.5689,.557-.8583,.8301-3.3778,3.1883-7.1714,5.8982-11.2599,8.0882,.1876-.3235,.3922-.6371,.5738-.9441,.5358-.9059,1.0841-1.8044,1.6445-2.6953Zm7.7137-.9078c-.427,.8411-.856,1.6813-1.2776,2.5251-.6675,1.3357-1.3294,2.6743-1.9824,4.0171-.1328,.2731-.2634,.5462-.386,.8212-.0591,.0359-.1186,.071-.1777,.1068-2.1154-.1958-4.223-.4581-6.3185-.8119,3.6171-1.8315,7.0233-4.0696,10.1422-6.6583Zm-10.0599,13.1278c1.2761-.7032,2.5444-1.4203,3.8051-2.1509,.5235,.1918,1.0485,.3792,1.5757,.5605-1.8028,.4987-3.5968,1.0283-5.3808,1.5904Zm16.9306-1.4954c-.2716,.7721-1.4001,.6167-2.0515,.5299-.4996-.0666-.9986-.1497-1.4964-.2451,.1176-.2141,.238-.4269,.3612-.6383,1.0772-.2384,2.1576-.4626,3.2397-.6785,.0503,.3764,.051,.7364-.0529,1.032Z"/><path d="M373.6148,142.4792c1.0979-1.6131,2.7224-3.8878,2.1591-5.9572-.5307-1.9495-2.6482-2.5016-4.4143-2.6831-2.1445-.2204-4.324-.1944-6.4678,.015-4.8361,.4726-9.5553,1.9125-13.8306,4.2235-.192,.1038-.3817,.2116-.5717,.319-.06-.2163-.1482-.4254-.2745-.6217-.5705-.8868-1.6501-1.0389-2.5829-.7193-.9465,.3243-1.7934,1.0119-2.5812,1.612-.8896,.6777-1.7349,1.4101-2.5205,2.2065-.7917,.8025-1.5716,1.6985-2.2954,2.6625-1.0314-.3508-2.0664-.6915-3.1061-1.0184-.4325-.136-1.0065,.1607-1.0949,.6217-.2095,1.093,.493,1.6462,1.2399,2.3379l1.0769,.9973c-1.087,2.0342-1.8153,4.2318-1.8745,6.4297-.0539,2.0018,.6242,4.0765,2.0936,5.4816,1.6625,1.5897,3.9023,1.7096,6.0885,1.5578,.5982-.0415,1.1914-.1093,1.78-.1986-.1064,.1553-.2133,.3102-.3176,.4672-.4646,.699,.2998,1.4432,1.0052,1.3075,1.8371-.3534,3.4644-1.2472,4.9946-2.2901,.4736,.4401,.9479,.8796,1.425,1.3158,.6875,.6287,1.3678,1.0559,2.3113,.6948,.4254-.1628,.8135-.4208,1.1715-.7371,.0731,.0859,.1422,.1755,.2017,.274,.7269,1.2037,1.2558,2.5668,1.8637,3.834l2.0967,4.3706c.4953,1.0325,2.0308,.1305,1.5371-.8985l-2.2465-4.6827c-.478-.9964-.8969-2.1637-1.478-3.1698,.8346,.3036,1.667,.613,2.4988,.9225,.9691,.3606,1.9383,.7212,2.9074,1.0819,.8734,.325,1.7378,.709,2.6679,.8334,1.5296,.2046,3.0282-.6209,3.0221-2.3192-.0068-1.8826-1.9276-3.2742-3.2451-4.3396-1.538-1.2437-3.1856-2.3383-4.8961-3.3295,2.5829-1.6329,5.0561-3.445,7.2835-5.5332,1.6299-1.528,3.1152-3.2198,4.3732-5.0681Zm-28.7972-1.3262c.791-.7069,1.6311-1.3576,2.5225-1.9334,.2589-.1672,1.0266-.7744,1.344-.5213,.1629,.1299,.1776,.4151,.1462,.6969-1.3519,.8661-2.6459,1.8226-3.8701,2.8616-.7622,.6469-1.6002,1.3413-2.3235,2.1203-.2037-.0734-.4075-.1464-.6115-.2189,.8353-1.0844,1.7696-2.0911,2.7926-3.0053Zm-4.0458,4.8098c.0621-.1,.1278-.1975,.1915-.2964,.1828,.064,.3652,.129,.5477,.1937-.1444,.2475-.2713,.5032-.3766,.7679l-.4912-.4549c.0429-.0706,.0859-.1414,.1286-.2103Zm1.8287,1.9067c.0571-.519,.2987-.9786,.6093-1.3952,.6241,.2306,1.2462,.4661,1.8668,.7057-.4239,.6474-.8422,1.2968-1.2325,1.9575l-1.05-.9723-.2099-.1944c.0069-.0327,.0124-.0664,.0162-.1013Zm6.1157,.7738c1.7287,.7247,3.4425,1.4852,5.1398,2.2816-1.2546,1.3334-2.5019,2.6752-3.6996,4.0579l-2.4549-2.2733c-.6479-.6-1.2959-1.2-1.9438-1.8001,.98-.7634,1.9638-1.5222,2.9584-2.2662Zm3.5829,7.5874c-.2408-.0609-.4822-.1198-.7241-.1768,1.2831-1.4739,2.6238-2.9001,3.9657-4.3226,.6353,.309,1.2682,.623,1.8986,.9423-.9363,.9152-1.9316,1.7717-2.9501,2.5856-.7217,.3452-1.4514,.671-2.19,.9715Zm9.7464-9.9048c-.5616,1.2538-1.2859,2.4394-2.1102,3.5371-.3782,.5036-.781,.9881-1.2003,1.4585-.6316-.3268-1.2672-.6467-1.9064-.9594,1.4536-1.5505,2.8909-3.1184,4.2345-4.7658,.339-.4156,.6901-.8383,1.035-1.2714,.5358,.6097,.2452,1.3363-.0526,2.0011Zm-1.5619-4.8691c.5343-.2329,1.256-.6291,1.946-.8204-.2244,.4856-.5016,.9555-.8092,1.4112-.2984-.0938-.6054-.1637-.9132-.2128-.2674-.0427-.5363-.0798-.8047-.1185,.193-.088,.3867-.1747,.5811-.2595Zm-.2497,2.0946c.0714,.011,.1442,.0229,.2173,.0355-.4151,.5026-.8374,.9873-1.231,1.4549-1.3057,1.5509-2.6854,3.037-4.0746,4.5131-1.4375-.6736-2.8873-1.3194-4.3394-1.9466-.1426-.0616-.2861-.1209-.4288-.182,.9736-.7007,1.9587-1.3854,2.9637-2.0418,1.2112-.791,2.4497-1.5415,3.7185-2.2365,1.063,.1133,2.1229,.2414,3.1742,.4035Zm-5.1268,13.473c.1256-.0978,.2515-.1952,.3763-.294,1.0279-.5035,2.0381-1.0411,3.0284-1.5987l.0028-.0016c-.4503,.855-.9241,1.726-1.4753,2.5242-.6416-.2181-1.2855-.429-1.9322-.6298Zm8.1479-14.0552c-.0294-.028-.0591-.0557-.0894-.0825,.0424-.0628,.0839-.1261,.1253-.1895-.0105,.0911-.022,.1817-.0359,.272Zm-4.9527-2.4618c-.5447,.2612-1.0829,.5355-1.6162,.819-.8367-.0853-1.6749-.1626-2.5128-.2378,1.506-.4522,3.0608-.7324,4.6313-.8285-.1716,.0858-.3401,.1695-.5024,.2473Zm-4.2872,2.3468c-.3499,.2139-.6982,.4304-1.0437,.6513-1.5399,.9847-3.0341,2.0357-4.5046,3.1198-.2424-.0996-.4847-.1996-.7276-.2978,.8308-1.3035,1.6066-2.6312,2.152-4.0527,.1487,.1299,.3331,.2206,.5354,.2418,1.1908,.1248,2.3891,.23,3.5885,.3375Zm-7.9485,2.8092c-.5173-.2016-1.0359-.3997-1.5554-.5953,.5166-.5052,1.0518-.9919,1.6003-1.4615,.6198-.5305,1.2612-1.0346,1.9197-1.5153-.5262,1.2451-1.224,2.418-1.9646,3.572Zm-1.0937,12.4758c-1.9479,.1662-4.1193,.255-5.4895-1.3761-2.1566-2.5673-1.1743-6.1379,.2682-8.9912l.2342,.2168,2.9866,2.7657c-.0408,.0849-.0817,.1697-.121,.2552-.4347,.9455,.5966,1.7069,1.3979,1.0786l.0886-.0693,1.0718,.9925c1.0608,.9823,2.1215,1.9646,3.1823,2.9469-.2075,.2795-.249,.6716-.0668,.98-.1875,.2344-.3728,.4706-.5564,.7081-.9862,.2349-1.9868,.4065-2.9958,.4925Zm9.7955,1.1685c.2128,.0642,.4275,.1314,.6386,.2065-.0661,.0411-.129,.0685-.1846,.0737-.1366,.0125-.3017-.1238-.454-.2801Zm13.5093,1.1663c.2322,.9375-.6696,.9276-1.313,.7716-1.7501-.4242-3.4645-1.2414-5.1512-1.8689-1.0112-.3763-2.0236-.7522-3.0398-1.1165,.3396-.565,.6421-1.1277,.9194-1.6139,.4036-.7079,.7895-1.4252,1.1596-2.1505,2.0587,1.1773,4.0387,2.4919,5.8048,4.0767,.558,.5008,1.4307,1.1361,1.6203,1.9016Zm-5.5613-10.0216c.862-2.0702,1.7146-4.2349,2.1492-6.4384,.2549-1.2924,.4222-2.9371-.2958-4.098,.099-.4448-.1552-.9656-.6251-1.0715-.2727-.0615-.5519-.0825-.8343-.0772-.7494-.2674-1.5981-.2858-2.3771-.3133-1.2308-.0434-2.4606,.0309-3.6804,.1964-2.3227,.3152-4.5503,1.0044-6.6611,2.0103,.013-.0555,.0244-.1116,.0365-.1674l.0643-.0397c3.1952-1.9312,6.6879-3.3302,10.3288-4.1541,3.5025-.7925,7.3322-1.1566,10.9053-.6364,.6904,.1005,1.6282,.2759,2.09,.8636,.6769,.8612,.0166,2.0725-.4191,2.8856-.896,1.6717-2.0005,3.2261-3.2521,4.6494-2.1677,2.4649-4.7201,4.5491-7.4291,6.3908Z"/><path d="M106.7184,246.0987c1.3376-1.9652,3.3166-4.7363,2.6304-7.2574-.6465-2.375-3.2262-3.0476-5.3778-3.2688-2.6125-.2686-5.2678-.2369-7.8795,.0183-5.8916,.5757-11.6408,2.3299-16.8493,5.1453-.2339,.1264-.4651,.2578-.6965,.3886-.073-.2636-.1806-.5183-.3344-.7574-.695-1.0803-2.0102-1.2657-3.1467-.8763-1.1531,.3951-2.1848,1.2327-3.1446,1.9638-1.0838,.8256-2.1135,1.7179-3.0706,2.6881-.9645,.9777-1.9146,2.0692-2.7964,3.2436-1.2566-.4273-2.5174-.8424-3.784-1.2406-.5269-.1656-1.2262,.1958-1.3339,.7574-.2552,1.3316,.6006,2.0055,1.5105,2.8481l1.312,1.2149c-1.3242,2.4782-2.2116,5.1554-2.2837,7.8331-.0657,2.4387,.7604,4.9663,2.5506,6.678,2.0253,1.9366,4.7541,2.0827,7.4173,1.8978,.7288-.0506,1.4514-.1332,2.1686-.2419-.1296,.1892-.2598,.378-.387,.5692-.566,.8515,.3652,1.7582,1.2246,1.5929,2.2381-.4305,4.2205-1.5194,6.0847-2.79,.577,.5362,1.1548,1.0715,1.736,1.603,.8375,.7659,1.6663,1.2864,2.8157,.8464,.5183-.1984,.991-.5127,1.4272-.898,.089,.1046,.1732,.2138,.2457,.3339,.8855,1.4664,1.5299,3.1271,2.2705,4.6708l2.5543,5.3245c.6035,1.2579,2.474,.159,1.8726-1.0946-.9123-1.9016-1.8245-3.8032-2.7368-5.7048-.5823-1.2139-1.0927-2.636-1.8005-3.8616,1.0167,.3698,2.0309,.7468,3.0442,1.1238,1.1807,.4393,2.3613,.8787,3.542,1.318,1.0641,.3959,2.1171,.8638,3.2502,1.0154,1.8634,.2493,3.6892-.7564,3.6817-2.8254-.0083-2.2935-2.3484-3.9889-3.9534-5.2867-1.8737-1.5151-3.881-2.8486-5.9647-4.0562,3.1466-1.9893,6.1597-4.1969,8.8732-6.7409,1.9856-1.8616,3.7951-3.9226,5.3277-6.1743Zm-35.0826-1.6157c.9637-.8611,1.9871-1.6539,3.0731-2.3554,.3154-.2037,1.2507-.9434,1.6373-.6351,.1985,.1583,.2164,.5056,.1781,.849-1.647,1.0551-3.2234,2.2204-4.7148,3.4862-.9286,.7881-1.9494,1.6341-2.8307,2.583-.2481-.0894-.4964-.1784-.745-.2666,1.0176-1.3211,2.1558-2.5475,3.4021-3.6612Zm-4.9289,5.8597c.0756-.1219,.1557-.2406,.2333-.3612,.2227,.078,.4449,.1571,.6672,.236-.1759,.3015-.3305,.613-.4588,.9355l-.5984-.5542c.0523-.0861,.1046-.1722,.1567-.2562Zm2.2279,2.3228c.0696-.6322,.3639-1.1922,.7423-1.6997,.7603,.2809,1.5182,.5679,2.2743,.8597-.5164,.7887-1.026,1.5798-1.5015,2.3847l-1.2791-1.1845-.2558-.2368c.0084-.0398,.0151-.0809,.0197-.1234Zm7.4505,.9427c2.1061,.8829,4.1939,1.8094,6.2617,2.7796-1.5284,1.6245-3.0479,3.2591-4.507,4.9436l-2.9907-2.7695c-.7893-.731-1.5787-1.462-2.3681-2.193,1.1939-.93,2.3924-1.8544,3.6042-2.7608Zm4.3649,9.2435c-.2934-.0742-.5875-.146-.8822-.2154,1.5631-1.7955,3.1965-3.5331,4.8313-5.2661,.7739,.3765,1.545,.759,2.313,1.1479-1.1406,1.115-2.3532,2.1584-3.594,3.1499-.8792,.4205-1.7682,.8174-2.668,1.1836Zm11.8737-12.0666c-.6842,1.5275-1.5666,2.9719-2.5708,4.3091-.4607,.6136-.9515,1.2038-1.4623,1.7768-.7695-.3981-1.5437-.7878-2.3226-1.1688,1.7709-1.8889,3.5219-3.799,5.1588-5.806,.413-.5064,.8407-1.0213,1.2609-1.5489,.6528,.7428,.2987,1.6279-.0641,2.4378Zm-1.9028-5.9319c.6509-.2837,1.5302-.7664,2.3707-.9995-.2733,.5916-.6111,1.1641-.9858,1.7192-.3635-.1142-.7376-.1994-1.1125-.2592-.3258-.052-.6533-.0973-.9804-.1444,.2352-.1073,.4711-.2129,.708-.3161Zm-.3041,2.5517c.087,.0134,.1757,.0279,.2648,.0433-.5057,.6123-1.0202,1.2028-1.4997,1.7724-1.5907,1.8894-3.2715,3.6999-4.9639,5.4981-1.7513-.8207-3.5175-1.6074-5.2865-2.3715-.1737-.075-.3485-.1472-.5224-.2217,1.1862-.8536,2.3862-1.6878,3.6106-2.4875,1.4755-.9637,2.9843-1.8779,4.5302-2.7247,1.2951,.138,2.5863,.2941,3.867,.4915Zm-6.2458,16.4137c.153-.1191,.3063-.2379,.4584-.3582,1.2523-.6134,2.4829-1.2683,3.6894-1.9476l.0035-.002c-.5486,1.0416-1.1258,2.1027-1.7973,3.0751-.7817-.2657-1.566-.5226-2.3539-.7673Zm9.9263-17.1229c-.0358-.0342-.072-.0678-.1089-.1005,.0517-.0765,.1022-.1537,.1526-.2309-.0128,.111-.0268,.2214-.0437,.3314Zm-6.0337-2.9992c-.6636,.3182-1.3192,.6524-1.9689,.9978-1.0193-.1039-2.0405-.1981-3.0613-.2897,1.8347-.5509,3.7288-.8922,5.6422-1.0093-.209,.1045-.4143,.2065-.612,.3013Zm-5.2229,2.8591c-.4263,.2605-.8506,.5244-1.2715,.7935-1.876,1.1996-3.6963,2.48-5.4878,3.8008-.2953-.1214-.5905-.2431-.8865-.3628,1.0122-1.588,1.9573-3.2054,2.6218-4.9372,.1812,.1582,.4058,.2688,.6523,.2946,1.4507,.152,2.9106,.2801,4.3717,.4112Zm-9.6833,3.4223c-.6302-.2457-1.262-.487-1.8949-.7252,.6293-.6154,1.2814-1.2085,1.9496-1.7805,.7551-.6463,1.5365-1.2604,2.3387-1.846-.6411,1.5168-1.4911,2.9457-2.3934,4.3517Zm-1.3324,15.1988c-2.3731,.2024-5.0184,.3107-6.6876-1.6764-2.6273-3.1276-1.4306-7.4776,.3267-10.9536l.2853,.2642,3.6384,3.3694c-.0497,.1034-.0995,.2068-.1474,.3109-.5296,1.1519,.7268,2.0795,1.7031,1.3141l.1079-.0845,1.3057,1.2092c1.2923,1.1967,2.5846,2.3934,3.8769,3.5902-.2528,.3405-.3034,.8181-.0813,1.194-.2285,.2855-.4542,.5733-.6779,.8627-1.2015,.2862-2.4204,.4952-3.6497,.6Zm11.9335,1.4235c.2593,.0782,.5209,.16,.778,.2516-.0805,.0501-.1571,.0835-.2249,.0897-.1664,.0152-.3675-.1508-.5531-.3413Zm16.4579,1.4209c.2829,1.1422-.8157,1.13-1.5996,.94-2.1321-.5168-4.2207-1.5123-6.2755-2.2769-1.2319-.4584-2.4652-.9164-3.7033-1.3602,.4137-.6883,.7823-1.3738,1.12-1.9662,.4916-.8624,.9619-1.7363,1.4127-2.6199,2.508,1.4343,4.9202,3.0358,7.0717,4.9665,.6798,.6101,1.743,1.3841,1.9739,2.3166Zm-6.7751-12.209c1.0501-2.5221,2.0888-5.1592,2.6182-7.8436,.3105-1.5744,.5143-3.5782-.3603-4.9925,.1206-.5418-.189-1.1763-.7616-1.3054-.3322-.0749-.6724-.1005-1.0164-.0941-.913-.3257-1.9469-.3482-2.896-.3817-1.4994-.0529-2.9977,.0376-4.4837,.2393-2.8296,.3841-5.5435,1.2236-8.1149,2.4491,.0158-.0676,.0297-.136,.0445-.204,.0262-.0159,.0521-.0325,.0784-.0484,3.8926-2.3527,8.1476-4.0571,12.5832-5.0608,4.267-.9655,8.9326-1.4091,13.2855-.7753,.8411,.1224,1.9835,.3361,2.5462,1.052,.8246,1.0492,.0203,2.5249-.5106,3.5154-1.0915,2.0366-2.4371,3.9302-3.9619,5.6641-2.6408,3.0029-5.7503,5.542-9.0506,7.7857Z"/><g><path class="g" d="M388.2921,329.7101c-.4629,.1523-.8838,.0703-1.2617-.2441-.3789-.3154-.542-.7285-.4912-1.2397l1.4893-18.9287c.0566-.6597,.3672-1.0825,.9287-1.2671,.5947-.1963,1.0947-.0405,1.5,.4668l12.4854,14.3828c.334,.4019,.4424,.8291,.3252,1.2803s-.415,.7549-.8945,.9126c-.248,.0815-.5068,.0884-.7764,.022-.2686-.0664-.4941-.2085-.6748-.4229l-11.1768-13.2471,.6934-.2285-1.2178,17.3286c-.0293,.3022-.1328,.5562-.3125,.7612-.1797,.2061-.3857,.3477-.6162,.4238Zm-.0908-4.6973l.29-2.4575,9.7188-3.2002,1.6924,1.8042-11.7012,3.8535Z"/><path class="d" d="M407.7765,323.2935c-.3633,.1196-.709,.0952-1.0391-.0698-.3291-.167-.5547-.4316-.6738-.7959l-5.5273-16.7832c-.125-.3789-.1016-.7305,.0664-1.0518,.1689-.3213,.4355-.541,.7988-.6606l5.9248-1.9512c1.124-.3701,2.1836-.4766,3.1787-.3193,.9961,.1582,1.8652,.5454,2.6084,1.1611,.7432,.6167,1.2812,1.4292,1.6133,2.437,.2666,.8096,.2881,1.6128,.0654,2.4092-.2236,.7979-.6523,1.5117-1.2881,2.1421,1.1787-.0947,2.2256,.1372,3.1426,.6963,.917,.5596,1.583,1.4673,1.9971,2.7231,.375,1.1396,.4375,2.2368,.1895,3.2896-.249,1.0532-.7695,1.9897-1.5625,2.8091-.792,.8198-1.8086,1.4336-3.0479,1.8418l-6.4463,2.1226Zm-2.4658-11.8286l4.6357-1.5269c.9424-.3101,1.6387-.7959,2.0898-1.4575,.4512-.6606,.5215-1.4629,.2109-2.4043-.3105-.9424-.8418-1.5405-1.5947-1.7979-.7529-.2554-1.6006-.2285-2.543,.0815l-4.6357,1.5269,1.8369,5.5781Zm2.9717,9.0234l5.1562-1.6982c.7598-.25,1.3867-.6016,1.8779-1.0566s.8174-.9937,.9795-1.6152c.1621-.6206,.1172-1.3115-.1328-2.0713-.2334-.71-.5918-1.2437-1.0752-1.5977s-1.0537-.5547-1.71-.6045c-.6572-.0488-1.3672,.0527-2.127,.3027l-5.1562,1.6982,2.1875,6.6426Z"/><path class="n" d="M432.6739,315.3687c-1.3389,.4409-2.6738,.6021-4.0049,.481-1.3311-.1201-2.5781-.4873-3.7432-1.1035-1.1641-.6143-2.1885-1.4438-3.0732-2.4902-.8848-1.0469-1.5586-2.271-2.0215-3.6763-.457-1.3887-.6396-2.7622-.5459-4.1206,.0928-1.3579,.4248-2.6318,.9951-3.8184,.5723-1.1855,1.3516-2.2261,2.3398-3.1191,.9873-.8936,2.1592-1.5635,3.5146-2.0103,1.2725-.4189,2.4229-.6138,3.4482-.5845,1.0254,.0283,2.127,.2695,3.3027,.7256,.165,.0562,.3027,.1245,.4121,.2075s.1953,.1748,.2549,.2729c.0596,.0996,.1143,.2236,.1631,.373,.1035,.3135,.0781,.6108-.0771,.8901-.1553,.2808-.3857,.4844-.6914,.6128-.3057,.1279-.6455,.125-1.0186-.0073-.7861-.3276-1.5518-.5249-2.2969-.5913-.7461-.0654-1.6553,.0786-2.7295,.4321-.9756,.3213-1.8271,.8218-2.5557,1.501-.7285,.6807-1.3057,1.4741-1.7295,2.3838-.4248,.9087-.667,1.8813-.7295,2.9189-.0615,1.0366,.0791,2.0752,.4219,3.1172,.3486,1.0576,.8555,1.9849,1.5215,2.7832,.666,.7974,1.4395,1.436,2.3213,1.915,.8799,.478,1.8154,.7715,2.8027,.876,.9873,.106,1.9678-.002,2.9434-.3232,.8428-.2773,1.5918-.6855,2.249-1.2212,.6572-.5366,1.248-1.1763,1.7734-1.9175,.2266-.312,.4883-.5044,.7861-.5742,.2979-.0708,.5801-.0347,.8457,.106,.2666,.1416,.46,.3936,.5791,.7578,.0547,.165,.0742,.3369,.0605,.5146-.0146,.1802-.0664,.3574-.1543,.5327-.6592,1.0039-1.4355,1.856-2.333,2.5542s-1.9072,1.2319-3.0312,1.6021Z"/></g><path d="M412.0711,365.2719c1.7213-2.5289,4.268-6.0949,3.3849-9.3392-.8319-3.0563-4.1517-3.9218-6.9204-4.2064-3.3619-.3456-6.7788-.3048-10.1397,.0236-7.5815,.7408-14.9799,2.9982-21.6823,6.6212-.301,.1627-.5985,.3317-.8963,.5001-.094-.3392-.2324-.667-.4303-.9747-.8944-1.3902-2.5868-1.6287-4.0492-1.1276-1.4838,.5084-2.8115,1.5863-4.0465,2.5271-1.3947,1.0624-2.7198,2.2106-3.9514,3.4591-1.2411,1.2582-2.4638,2.6627-3.5985,4.174-1.617-.5499-3.2395-1.0841-4.8694-1.5965-.678-.2131-1.578,.2519-1.7165,.9746-.3285,1.7135,.7728,2.5807,1.9438,3.6651l1.6883,1.5634c-1.7041,3.189-2.8459,6.6342-2.9387,10.0799-.0845,3.1382,.9786,6.3908,3.2822,8.5936,2.6062,2.4922,6.1177,2.6802,9.5449,2.4421,.9378-.0651,1.8678-.1714,2.7906-.3113-.1668,.2435-.3344,.4864-.4979,.7325-.7284,1.0958,.47,2.2625,1.5758,2.0498,2.8801-.554,5.4312-1.9552,7.83-3.5902,.7425,.69,1.486,1.3789,2.2339,2.0629,1.0778,.9856,2.1443,1.6554,3.6234,1.0892,.6669-.2553,1.2753-.6597,1.8366-1.1556,.1146,.1346,.2229,.2751,.3161,.4296,1.1395,1.8871,1.9687,4.024,2.9217,6.0106l3.287,6.8518c.7765,1.6187,3.1837,.2047,2.4098-1.4086-1.1739-2.447-2.3479-4.8941-3.5218-7.3412-.7494-1.562-1.4061-3.3921-2.317-4.9693,1.3083,.4759,2.6134,.961,3.9174,1.4461,1.5193,.5653,3.0387,1.1307,4.558,1.6961,1.3693,.5095,2.7244,1.1115,4.1825,1.3066,2.3979,.3208,4.7474-.9734,4.7378-3.6359-.0107-2.9514-3.022-5.1331-5.0874-6.8032-2.4112-1.9497-4.9942-3.6658-7.6756-5.2196,4.0492-2.56,7.9266-5.4008,11.4184-8.6744,2.5552-2.3955,4.8837-5.0477,6.8559-7.9453Zm-45.1456-2.0791c1.2401-1.1081,2.5571-2.1283,3.9545-3.031,.4058-.2622,1.6094-1.214,2.1069-.8172,.2555,.2037,.2784,.6507,.2291,1.0926-2.1194,1.3577-4.148,2.8573-6.0673,4.4862-1.1949,1.0142-2.5086,2.1028-3.6426,3.3239-.3193-.1151-.6388-.2295-.9587-.3431,1.3095-1.7001,2.7742-3.2782,4.3779-4.7114Zm-6.3427,7.5404c.0973-.1568,.2004-.3096,.3002-.4647,.2865,.1003,.5725,.2022,.8586,.3037-.2264,.388-.4253,.7889-.5904,1.2039l-.7701-.7131c.0673-.1108,.1347-.2216,.2017-.3297Zm2.8669,2.9891c.0896-.8136,.4683-1.5342,.9553-2.1872,.9783,.3615,1.9537,.7308,2.9267,1.1063-.6645,1.0149-1.3203,2.033-1.9322,3.0688l-1.646-1.5243-.3291-.3048c.0108-.0513,.0194-.1041,.0254-.1588Zm9.5876,1.2132c2.7102,1.1362,5.3969,2.3284,8.0578,3.5769-1.9668,2.0904-3.9222,4.1939-5.7998,6.3617-1.2829-1.188-2.5657-2.376-3.8486-3.5639-1.0158-.9407-2.0315-1.8813-3.0473-2.822,1.5363-1.1967,3.0787-2.3863,4.638-3.5527Zm5.6169,11.8949c-.3776-.0955-.756-.1879-1.1353-.2772,2.0115-2.3106,4.1134-4.5466,6.2171-6.7766,.9959,.4845,1.9882,.9767,2.9764,1.4772-1.4678,1.4348-3.0282,2.7775-4.6249,4.0535-1.1314,.5411-2.2754,1.0519-3.4333,1.5231Zm15.2795-15.5278c-.8804,1.9656-2.016,3.8243-3.3082,5.5451-.5929,.7895-1.2244,1.549-1.8818,2.2865-.9902-.5124-1.9865-1.0138-2.9888-1.504,2.2788-2.4307,4.5321-4.8887,6.6385-7.4714,.5314-.6516,1.0819-1.3143,1.6226-1.9932,.84,.9559,.3844,2.0949-.0825,3.1371Zm-2.4486-7.6333c.8377-.3651,1.9691-.9863,3.0507-1.2862-.3517,.7613-.7863,1.498-1.2686,2.2123-.4677-.147-.9491-.2566-1.4316-.3335-.4193-.0669-.8407-.1252-1.2616-.1858,.3026-.138,.6062-.2739,.9111-.4068Zm-.3914,3.2837c.1119,.0173,.2261,.0359,.3407,.0557-.6507,.7879-1.3128,1.5479-1.9299,2.2808-2.047,2.4314-4.21,4.7611-6.3878,7.0752-2.2536-1.0561-4.5265-2.0684-6.8029-3.0518-.2235-.0965-.4484-.1895-.6722-.2853,1.5264-1.0985,3.0707-2.172,4.6462-3.201,1.8988-1.2401,3.8403-2.4166,5.8296-3.5062,1.6666,.1776,3.3281,.3784,4.9763,.6325Zm-8.0374,21.1218c.1969-.1533,.3942-.3061,.5899-.461,1.6115-.7894,3.1951-1.6321,4.7476-2.5063l.0045-.0025c-.706,1.3404-1.4487,2.7058-2.3129,3.9572-1.0059-.3419-2.0152-.6726-3.0292-.9874Zm12.7735-22.0344c-.0461-.0439-.0926-.0873-.1401-.1294,.0665-.0985,.1315-.1978,.1964-.2971-.0164,.1428-.0345,.2849-.0563,.4265Zm-7.7644-3.8595c-.854,.4095-1.6976,.8396-2.5337,1.284-1.3117-.1337-2.6258-.2549-3.9393-.3728,2.361-.709,4.7984-1.1481,7.2606-1.2988-.269,.1345-.5332,.2657-.7876,.3877Zm-6.721,3.6792c-.5486,.3353-1.0946,.6748-1.6362,1.0211-2.4141,1.5437-4.7566,3.1914-7.0619,4.891-.38-.1562-.7599-.3128-1.1407-.4669,1.3025-2.0435,2.5187-4.1249,3.3738-6.3534,.2332,.2036,.5222,.3459,.8393,.3791,1.8668,.1956,3.7454,.3605,5.6257,.5291Zm-12.4609,4.404c-.8109-.3161-1.6239-.6267-2.4385-.9332,.8098-.792,1.6489-1.5551,2.5088-2.2912,.9716-.8317,1.9772-1.6219,3.0095-2.3755-.825,1.9519-1.9189,3.7907-3.0799,5.5999Zm-1.7146,19.5585c-3.0537,.2605-6.4579,.3998-8.6059-2.1573-3.381-4.0247-1.841-9.6225,.4205-14.0956l.3671,.3399c1.5607,1.4453,3.1214,2.8906,4.6821,4.3358-.064,.1331-.1281,.2661-.1897,.4001-.6815,1.4823,.9353,2.6759,2.1916,1.691l.1388-.1087,1.6803,1.556c1.663,1.54,3.3259,3.08,4.9889,4.62-.3253,.4382-.3904,1.0528-.1047,1.5364-.294,.3674-.5845,.7377-.8723,1.1101-1.5461,.3683-3.1147,.6372-4.6966,.7722Zm15.3564,1.8318c.3336,.1007,.6703,.2059,1.0012,.3237-.1036,.0645-.2022,.1075-.2895,.1155-.2141,.0196-.4729-.194-.7117-.4392Zm21.1787,1.8284c.364,1.4698-1.0497,1.4541-2.0584,1.2097-2.7437-.665-5.4314-1.9461-8.0756-2.93-1.5853-.5899-3.1723-1.1793-4.7655-1.7503,.5324-.8858,1.0067-1.7679,1.4413-2.5301,.6327-1.1098,1.2378-2.2343,1.818-3.3714,3.2274,1.8457,6.3315,3.9065,9.1002,6.3911,.8748,.785,2.2429,1.7811,2.5401,2.9811Zm-8.7184-15.711c1.3513-3.2455,2.6879-6.639,3.3692-10.0935,.3996-2.026,.6618-4.6046-.4637-6.4245,.1552-.6973-.2432-1.5137-.98-1.6798-.4275-.0964-.8653-.1293-1.308-.1211-1.1749-.4192-2.5054-.4481-3.7266-.4911-1.9295-.0681-3.8576,.0484-5.7698,.308-3.6412,.4942-7.1335,1.5746-10.4426,3.1516,.0204-.087,.0382-.175,.0573-.2625,.0338-.0205,.067-.0419,.1009-.0623,5.0091-3.0275,10.4846-5.2208,16.1926-6.5124,5.4909-1.2425,11.4948-1.8133,17.0963-.9977,1.0823,.1576,2.5525,.4325,3.2766,1.3538,1.0611,1.3501,.0261,3.2491-.6571,4.5237-1.4046,2.6208-3.1361,5.0575-5.0984,7.2888-3.3983,3.8643-7.3997,7.1317-11.6467,10.019Z"/><path d="M61.5674,150.8087l-5.8582,.9892c-.1022,.0172-.2035,.035-.304,.0536,.1572-.5662,.3143-1.1324,.4778-1.6968,.2863-.9886-1.2273-1.4144-1.6717-.5534-.3563,.6904-.7134,1.381-1.0716,2.0713-.896-.2332-1.8011-.4407-2.7128-.624-1.1504-2.0153-2.3194-4.0188-3.672-5.9088-.477-.6664-1.7874-.3707-1.6255,.559,.268,1.5393,.5164,3.0819,.7491,4.6267-1.5355-.1842-3.0732-.3134-4.5984-.3968-.2256-.0123-.4578-.0265-.6934-.0406-.7048-1.9389-1.5226-3.8352-2.4438-5.6827-1.3109-2.629-2.8524-5.1885-5.18-7.0426-.2869-.2285-.7671-.3235-1.0806-.0733-1.0278,.82-.5306,1.9025-.0487,2.9025,.5876,1.2192,1.2369,2.4065,1.9384,3.5639,1.3105,2.1621,2.7826,4.22,4.2746,6.2598-1.1886,.0333-2.3619,.2051-3.3624,.7115-2.1533,1.0897-1.8147,3.602-.9125,5.4191,1.192,2.4008,2.5462,4.7342,3.9386,7.0233,.7197,1.1832,1.4606,2.3535,2.2224,3.51,.7172,1.0888,1.3922,2.1961,2.5642,2.8376-.4,.5221-.8053,1.0407-1.2224,1.5513-.6034,.7384,.3661,2.0161,1.1588,1.3275,1.7769-1.5437,3.5579-3.0895,5.2924-4.6842,.2314,3.5851,.369,7.1765,.4078,10.7698,.0334,3.0965-.007,6.1931-.114,9.2878-.0395,1.1432,1.726,.9977,1.772-.1327,.3428-8.4175,1.3797-16.7981,3.0724-25.0462,.0373-.0412,.0748-.0822,.1121-.1235l.0417,.1161c.2276,.7685,.484,1.5289,.7736,2.2797,.4115,1.0666,2.0261,.5163,1.6802-.5778-.247-.7813-.5142-1.5551-.7906-2.3254-.1052-.3548-.2029-.7117-.2937-1.0707l.0615-.0701c.3507,.4081,.7158,.8027,1.1,1.1781,.8984,.8778,2.0474,1.8714,3.3412,2.0552,1.2758,.1812,2.1791-.6172,2.275-1.8705,.0986-1.287-.5045-2.8755-.0741-4.1089,.0611-.175,.0712-.2508,.0717-.2765,.0059,.0261,.0377,.0867,.178,.0876,.3085,.002,.9269,.6177,1.1793,.8092,.7109,.5395,1.3681,1.1376,1.9907,1.7762,.7996,.8202,1.9697-.5182,1.1761-1.3323-1.2819-1.315-5.329-5.2743-6.2804-1.6544-.3514,1.337-.0509,2.7001-.0062,4.0512,.0053,.16,.0929,.6723-.0233,.7584-.1735,.1286-.634-.1102-.7886-.1835-.6481-.3074-1.2363-.8441-1.7496-1.3327-.438-.4169-.8499-.8628-1.2419-1.3289,.653-.8279,1.2488-1.6913,1.6988-2.5946,.6307-1.2661,.5286-2.4475-.1996-3.2943,1.5348-.2592,3.0695-.5183,4.6042-.7775,1.1177-.1887,.9977-1.9629-.1327-1.772Zm-10.1416,7.8466c.0241-.0435,.0479-.0873,.072-.1308,.0863,.199,.1675,.4003,.2518,.6002-.082,.3656-.1584,.7323-.2379,1.0984-.006-.5304-.0425-1.0596-.0859-1.5678Zm-2.9558-6.1241c.5045,1.5803,.866,3.1937,1.0513,4.8442,.0338,.3015,.0606,.6037,.0838,.9063-.2495,.4466-.5015,.8918-.7558,1.3355-.1672-1.6243-.3518-3.247-.5587-4.867-.098-.7672-.2006-1.5338-.3076-2.2998,.1623,.0273,.3249,.0522,.487,.0808Zm3.545,1.2961c-.1254-.2185-.2502-.4361-.3743-.6527,.2126,.0489,.424,.1023,.6361,.1533-.0872,.1664-.1742,.333-.2617,.4993Zm-4.4416-4.1524c.1918,.3208,.382,.6425,.5701,.9655-.1446-.0228-.2891-.0458-.4339-.0675-.0447-.2994-.0902-.5987-.1363-.8979Zm-1.4252,2.4948c.3077,2.177,.5793,4.3588,.8163,6.5444-.535-.6912-1.0711-1.3816-1.602-2.076-1.2462-1.6297-2.478-3.2705-3.7016-4.9173,1.5002,.0937,2.9973,.2439,4.4873,.4489Zm-6.4369,10.6645c-1.0802-1.7419-2.1141-3.5124-3.1001-5.3093-.63-1.1482-2.8691-4.1985-1.2831-5.3267,.6684-.4754,1.7396-.4927,2.5246-.5432,.4852-.0312,.9717-.0379,1.4583-.033,.1269,.3773,.2509,.7556,.3694,1.1355,1.3831,4.4342,2.1539,9.0321,2.3281,13.6669-.2084-.3105-.4004-.6319-.5967-.9298-.579-.8789-1.1458-1.7659-1.7005-2.6603Zm2.5685-7.3299c.5685,.7527,1.1353,1.5068,1.7085,2.2559,.9074,1.1858,1.8199,2.3679,2.7401,3.5439,.1871,.2391,.3753,.4763,.5686,.7072,.0063,.0688,.0118,.1377,.018,.2065-1.1041,1.815-2.2644,3.5939-3.5017,5.3217-.0589-4.0539-.5757-8.0967-1.5335-12.0352Zm7.3832,14.7997c-.072-1.4552-.16-2.9096-.2634-4.363,.4021-.3862,.8008-.7759,1.195-1.17-.3428,1.8388-.654,3.6833-.9316,5.533Zm6.0842-15.8702c.5747,.5828-.0601,1.5287-.4239,2.076-.2791,.4197-.5727,.8317-.8767,1.2372-.1408-.1996-.2792-.4011-.4152-.6046,.2584-1.0726,.531-2.1418,.8117-3.2089,.3603,.12,.6842,.2773,.9041,.5003Z"/><path class="q" d="M60.9093,217.6895c-.7524,0-1.377-.2476-1.8726-.7441-.4961-.4951-.7437-1.1196-.7437-1.8721v-6.8745h-6.874c-.7529,0-1.3774-.2563-1.8726-.7695-.4961-.5127-.7441-1.1455-.7441-1.8979,0-.752,.248-1.3765,.7441-1.8726,.4951-.4951,1.1196-.7437,1.8726-.7437h6.874v-6.8745c0-.7178,.2646-1.3335,.7949-1.8467,.5298-.5127,1.1367-.7695,1.8213-.7695,.7866,0,1.4189,.2485,1.8979,.7441,.4785,.4961,.7183,1.1206,.7183,1.8721v6.8745h6.8745c.7183,0,1.3418,.2563,1.8721,.7695,.5303,.5127,.7954,1.146,.7954,1.8979,0,.7183-.2651,1.334-.7954,1.8467-.5303,.5132-1.1538,.7695-1.8721,.7695h-6.8745v6.8745c0,.7524-.2397,1.377-.7183,1.8721-.479,.4966-1.1113,.7441-1.8979,.7441Z"/><path class="r" d="M84.2018,207.9073c-.8057,0-1.4736-.2559-2.0039-.7686-.5308-.5122-.7959-1.1709-.7959-1.9766,0-.8413,.2651-1.5181,.7959-2.0312,.5303-.5122,1.1982-.7686,2.0039-.7686h12.2427c.8047,0,1.4634,.2563,1.9766,.7686,.5117,.5132,.7686,1.1899,.7686,2.0312,0,.8057-.2568,1.4644-.7686,1.9766-.5132,.5127-1.1719,.7686-1.9766,.7686h-12.2427Z"/><path class="j" d="M245.6385,111.4802c-6.6745,.2547-12.0848,5.7595-12.2514,12.4587-.097,3.8992,1.5463,7.414,4.2052,9.8224,1.3224,1.1978,2.1042,2.8815,2.1042,4.669v3.084h-.4274v8.4663c0,2.4353,2.8102,4.4095,6.6096,4.4095s6.8794-1.7978,6.8794-4.2332c0-.0214,0-.1893-.0003-.3528h.0003v-8.2899h-.4347v-2.6627c0-1.933,.8572-3.748,2.2955-5.0342,2.62-2.3428,4.2705-5.7533,4.2705-9.5516,0-7.2323-5.9808-13.0631-13.2509-12.7856Z"/><path class="s" d="M241.0349,142.6179h10.9874v8.8291l-.6225,.4377c-1.6279,1.1446-3.627,1.728-5.6603,1.6517l-.4163-.0156c-1.8899-.0709-3.6504-.9194-4.8116-2.319h0l-.2616-.981v-7.6029"/><path class="h" d="M252.2675,141.5142c-1.8394,.4905-4.1284,.7358-6.0087,.7358-2.2073,0-3.9241-.2453-6.254-.7358"/><path class="h" d="M252.5128,145.129c-1.8938,.4905-4.2505,.7358-6.1863,.7358-2.2725,0-4.04-.2453-6.4388-.7358"/><path class="h" d="M252.3956,148.8078c-1.8586,.4905-4.1715,.7358-6.0715,.7358-2.2303,0-3.965-.2453-6.3193-.7358"/><path class="m" d="M237.4893,124.9209c1.2207-3.1028,1.5836-4.2928,2.9501-5.6949s2.8429-1.8871,5.2487-2.7176"/><line class="f" x1="246.2894" y1="106.176" x2="246.2894" y2="96.276"/><line class="f" x1="255.9222" y1="107.5822" x2="262.7036" y2="99.1482"/><line class="f" x1="262.1953" y1="114.1228" x2="271.6942" y2="110.2826"/><line class="f" x1="237.0395" y1="107.295" x2="230.248" y2="98.8484"/><line class="f" x1="231.6792" y1="114.3386" x2="222.1804" y2="110.4984"/><path d="M338.7468,82.8542c-1.7043-2.3798-3.4086-4.7597-5.1129-7.1395-.0892-.1245-.1785-.2476-.2683-.3691,.8539-.1584,1.7079-.3169,2.5636-.4658,1.4987-.2608,1.0827-2.5474-.3491-2.5793-1.148-.0255-2.2969-.052-3.4461-.08-.2713-1.3413-.5826-2.6781-.9304-4.0078,1.9307-2.8349,3.8338-5.6869,5.467-8.7091,.5759-1.0657-.6667-2.6145-1.7965-1.7965-1.8708,1.3542-3.7586,2.6844-5.6596,3.9953-.7511-2.1589-1.5766-4.2852-2.4549-6.365-.1299-.3077-.2618-.6253-.3958-.9473,2.1183-2.1935,4.1067-4.5095,5.9632-6.9311,2.6418-3.446,5.0418-7.1533,5.995-11.4472,.1175-.5292-.0678-1.2286-.6034-1.4829-1.7557-.8334-2.8711,.529-3.8868,1.8176-1.2384,1.5712-2.3943,3.2036-3.4766,4.8858-2.0219,3.1427-3.8007,6.4326-5.5424,9.7371-.815-1.5571-1.8041-3.0041-3.1254-4.0046-2.8438-2.1535-5.9612-.0745-7.7896,2.3022-2.4158,3.1401-4.637,6.4521-6.7745,9.7859-1.1049,1.7232-2.1788,3.4662-3.2209,5.228-.9811,1.6587-2.0141,3.2733-2.1062,5.246-.9529-.1927-1.9045-.3947-2.8532-.6177-1.3721-.3225-2.4405,1.7937-1.0118,2.4,3.2027,1.3591,6.4109,2.7222,9.6538,3.992-4.6118,2.6322-9.2927,5.144-14.0405,7.5258-4.0912,2.0524-8.2304,4.0068-12.4103,5.8716-1.5441,.6889-.2058,2.9395,1.3255,2.2676,11.4028-5.0034,23.2066-9.0608,35.2598-12.1613,.0789,.0229,.1578,.0461,.2367,.0687l-.1272,.1308c-.8733,.8006-1.7169,1.6343-2.5263,2.5059-1.1498,1.2382,.6282,3.0259,1.857,1.857,.8775-.8348,1.7322-1.6914,2.5759-2.5582,.403-.3698,.8137-.7311,1.2316-1.0845l.133,.0362c-.3147,.7305-.602,1.4712-.8515,2.225-.5833,1.7625-1.1579,3.9331-.563,5.7707,.5866,1.8121,2.2329,2.494,3.9598,1.8088,1.7734-.7037,3.4922-2.5348,5.4096-2.763,.2721-.0324,.3793-.0681,.4138-.084-.0309,.0248-.0908,.1063-.001,.2932,.1974,.4111-.2193,1.6318-.31,2.0912-.2555,1.2941-.6238,2.5549-1.0683,3.7959-.571,1.5939,1.9656,2.2802,2.5323,.6982,.9154-2.5554,3.5496-10.4985-1.8753-9.4148-2.0037,.4003-3.6194,1.6833-5.385,2.619-.2091,.1108-.8328,.5593-1.0225,.461-.2834-.147-.2648-.9135-.2676-1.1664-.012-1.0602,.3194-2.1895,.6355-3.1881,.2697-.8521,.5948-1.6884,.9598-2.5114,1.5231,.3305,3.0563,.5619,4.5479,.5738,2.0907,.0167,3.5937-.885,4.2462-2.4015,1.3395,1.8705,2.679,3.7409,4.0185,5.6113,.9755,1.3621,3.2543,.0523,2.2676-1.3255Zm-16.9989-8.3821c.0735,.0038,.147,.007,.2204,.0108-.2084,.2437-.423,.4821-.6339,.7236-.5388,.1281-1.0754,.2644-1.6132,.3964,.7006-.3519,1.3799-.7436,2.0267-1.1308Zm6.2174-7.8974c-1.7719,1.6949-3.6804,3.2214-5.7525,4.5378-.3785,.2404-.7626,.472-1.1494,.699-.755-.0418-1.5097-.0877-2.264-.1378,2.049-1.2755,4.0846-2.5729,6.1022-3.8983,.9555-.6277,1.9072-1.2611,2.8552-1.8999,.069,.2332,.1413,.4655,.2085,.6992Zm.5774,5.5491c.2089-.3083,.417-.6151,.6241-.9204,.0729,.3141,.1391,.6295,.2088,.9443-.2777-.008-.5553-.0154-.8329-.0238Zm2.6351-8.5923c-.3017,.4627-.6056,.924-.9126,1.3834-.0634-.2068-.1267-.4137-.1917-.6201,.3687-.2536,.7367-.5081,1.1043-.7633Zm-4.2379-.2751c-2.692,1.8204-5.4139,3.5961-8.1632,5.3282,.5712-1.1589,1.1406-2.3186,1.7185-3.4741,1.3565-2.7122,2.7371-5.4122,4.1309-8.1055,.8484,2.0534,1.6198,4.1392,2.3138,6.2513Zm-18.3392-1.634c1.6131-2.5644,3.2943-5.0858,5.0417-7.5606,1.1166-1.5814,3.716-6.5335,6.2431-5.1585,1.0649,.5794,1.7825,1.991,2.3586,3.001,.356,.6242,.6805,1.2661,.9896,1.9156-.4189,.4132-.8409,.8232-1.2686,1.227-4.9927,4.7126-10.6,8.7181-16.6431,11.955,.2773-.4781,.5796-.9416,.8481-1.3955,.792-1.339,1.6024-2.6671,2.4308-3.9839Zm11.4015-1.3418c-.6311,1.2433-1.2652,2.485-1.8884,3.7323-.9866,1.9743-1.965,3.9528-2.9302,5.9377-.1963,.4037-.3893,.8074-.5705,1.2138-.0873,.053-.1753,.105-.2626,.1579-3.1267-.2894-6.242-.6771-9.3393-1.2001,5.3464-2.7071,10.3811-6.0153,14.9911-9.8416Zm-14.8695,19.4041c1.8862-1.0394,3.7609-2.0993,5.6243-3.1792,.7737,.2835,1.5498,.5605,2.329,.8285-2.6647,.7372-5.3164,1.5199-7.9532,2.3508Zm25.025-2.2104c-.4014,1.1413-2.0694,.9116-3.0323,.7832-.7385-.0985-1.4761-.2213-2.2118-.3622,.1738-.3164,.3518-.631,.5339-.9435,1.5922-.3524,3.1891-.6837,4.7885-1.0028,.0743,.5564,.0754,1.0885-.0783,1.5254Z"/></g></g></svg>