<?xml version="1.0" encoding="UTF-8"?><svg id="a" xmlns="http://www.w3.org/2000/svg" width="167.1948" height="102.4797" viewBox="0 0 167.1948 102.4797"><defs><style>.c{fill:none;stroke:#000;stroke-linecap:round;stroke-miterlimit:10;stroke-width:10px;}</style></defs><g id="b"><g><path class="c" d="M154.5616,40.073l-.3411,43.913"/><path d="M83.8752,7.4369l71.2651,27.5366-22.2371,10.7256-4.0376,1.9474v35.9702c0,1.1212,0,1.5408-3.3043,2.9756-13.4926,5.8048-27.5544,8.7481-41.7949,8.7481s-28.3023-2.9432-41.7728-8.7385c-3.3265-1.4445-3.3265-1.864-3.3265-2.9852v-31.2545l-4.7243-1.6981-21.4857-7.7226L83.8752,7.4369m-.1643-7.4369c-.5944,0-1.1873,.1362-1.731,.4065L2.4549,39.9414c-3.0668,1.5246-2.8073,5.9825,.4158,7.1408l28.6572,10.3003v26.2343c0,5.2435,2.969,7.5131,7.6221,9.5336h0c14.4565,6.2195,29.5364,9.3292,44.6162,9.3292s30.1598-3.1097,44.6162-9.3292h0c4.653-2.0205,7.6221-4.2901,7.6221-9.5336v-31.4874l28.9911-13.9833c3.0651-1.4784,2.8865-5.9026-.2878-7.1291L85.1122,.2614c-.4519-.1746-.9271-.2614-1.4013-.2614h0Z"/></g><path d="M83.5778,7.6814l71.265,27.5366-68.7641,33.1671c-.58,.2797-1.227,.4276-1.8711,.4276-.4978,0-.9878-.0854-1.4563-.2538L12.1597,43.1861,83.5778,7.6814m-.1644-7.437c-.5943,0-1.1874,.1363-1.731,.4066L2.1576,40.1859c-3.0668,1.5246-2.8073,5.9824,.4157,7.1408l77.7632,27.9506c1.2541,.4508,2.5639,.6746,3.8711,.6746,1.7055,0,3.4064-.3811,4.9726-1.1365l75.5182-36.4249c3.0651-1.4784,2.8866-5.9026-.2877-7.1291L84.8148,.5058c-.4519-.1746-.927-.2614-1.4013-.2614h0Z"/></g></svg>