<?xml version="1.0" encoding="UTF-8"?><svg id="a" xmlns="http://www.w3.org/2000/svg" width="234.1948" height="143.5463" viewBox="0 0 234.1948 143.5463"><defs><style>.c{fill:none;stroke:#000;stroke-linecap:round;stroke-miterlimit:10;stroke-width:10px;}</style></defs><g id="b"><g><path class="c" d="M216.4991,56.1315l-.4778,61.5103"/><path d="M117.4865,10.4171l99.8231,38.5714-31.1481,15.0237-5.6556,2.7278v50.3845c0,1.5705,0,2.1582-4.6285,4.168-18.8995,8.131-38.5963,12.2537-58.5433,12.2537s-39.6439-4.1227-58.5124-12.2403c-4.6595-2.0233-4.6595-2.6109-4.6595-4.1815v-43.7791l-6.6175-2.3786-30.0956-10.8173L117.4865,10.4171m-.2302-10.4171c-.8326,0-1.6631,.1908-2.4246,.5694L3.4387,55.9471c-4.2957,2.1356-3.9322,8.3798,.5824,10.0024l40.141,14.428v36.7471c0,7.3447,4.1588,10.5238,10.6765,13.354h0c20.2496,8.7118,41.3725,13.0677,62.4953,13.0677s42.2457-4.3559,62.4953-13.0677h0c6.5176-2.8302,10.6765-6.0093,10.6765-13.354v-44.1053l40.6087-19.5868c4.2934-2.0708,4.0432-8.2679-.4032-9.986L119.2192,.3661c-.633-.2446-1.2986-.3661-1.9629-.3661h0Z"/></g><path d="M117.0699,10.7596l99.823,38.5714-96.3199,46.4582c-.8124,.3918-1.7187,.599-2.6209,.599-.6973,0-1.3836-.1196-2.0399-.3555L17.0325,60.4921,117.0699,10.7596m-.2303-10.4172c-.8325,0-1.6632,.1909-2.4246,.5695L3.0222,56.2896c-4.2957,2.1356-3.9322,8.3797,.5823,10.0024l108.9252,39.1512c1.7567,.6314,3.5914,.945,5.4224,.945,2.3889,0,4.7715-.5338,6.9652-1.5919l105.7806-51.0214c4.2934-2.0708,4.0433-8.2679-.403-9.9859L118.8026,.7085c-.633-.2446-1.2985-.3661-1.9629-.3661h0Z"/></g></svg>