<?xml version="1.0" encoding="utf-8"?>
<!-- Generator: Adobe Illustrator 26.2.1, SVG Export Plug-In . SVG Version: 6.00 Build 0)  -->
<svg version="1.1" id="Layer_1" xmlns="http://www.w3.org/2000/svg" xmlns:xlink="http://www.w3.org/1999/xlink" x="0px" y="0px"
	 viewBox="0 0 2328.4 833.5" style="enable-background:new 0 0 2328.4 833.5;" xml:space="preserve">
<g>
	<path d="M899,419.8c-6.9,4.8-16,7.4-25.1,7.4c-14.7,0-24.7-9.5-24.7-26.8v-62.2h53.2v-86.2h-53.2v-52H767V252
		c-28.6,0.5-56.9,0.9-84.8,1.4v-53.5h-82.2v55.2c-18.3,0.4-36.3,0.9-54.1,1.4V34.5h0.3V0.1H417.9L417.7,0l-117,271.4
		c-7.6,0.8-15.2,1.7-22.5,2.6c-71.6,9-126.5,21.5-167.8,38.4c-24.7,10.1-44.5,21.5-60.7,35.1c-18.7,15.7-32.1,34.2-39.6,54.8
		c-7.7,21-11,42.1-9.9,62.7c1.1,19.8,6.2,38.6,15.3,56.1c16.4,31.6,44.6,56.7,79.5,70.6c19.1,7.6,39,11.4,58.6,11.4
		c16.5,0,32.7-2.7,48.1-8c18.7-6.5,35.5-16.7,49.9-30.3c15.1-14.2,27.2-31.9,36.1-52.5l70.1-162.4c33.8-2.8,69.9-5,107.8-6.7v185
		h80.1V340c17.8-0.5,35.8-1,54.1-1.5v62.6c0,60.2,35.1,89.6,95.2,89.6c21.6,0,42.8-4.3,57.1-13.4l-20.3-57.6
		c-6.9,4.8-16,7.4-25.1,7.4c-14.7,0-24.7-9.5-24.7-26.8v-62.2H767v63.1c0,60.2,35.1,89.6,95.2,89.6c21.6,0,42.9-4.3,57.1-13.4
		L899,419.8z M211.1,479.1c-8.2,19-20.6,31.4-36.8,37.1c-14.6,5.1-32.3,4.3-48.4-2.1c-16-6.4-29.2-17.8-36.2-31.4
		c-7.8-15.1-8.2-32.5-1.1-51.8c2.5-6.8,7.4-13.2,14.9-19.5c9.3-7.8,22.2-15.1,38.5-21.7c29.6-12.1,69.2-21.7,120.4-29.3L211.1,479.1
		z M465.6,259.5c-24.2,1.1-47.7,2.4-70.5,3.8l70.5-163.5V259.5z"/>
	<path d="M1110.4,385.1c-11,18.1-23.4,29-45.2,36.1c-28.8,9.4-52.4,2.5-66.4-18l162.2-52.7c-1.6-6.3-3.2-14-5.1-19.7
		c-23.9-73.7-91.1-98.3-157-76.9c-70.4,22.9-107.2,87.6-85.3,154.7c21.7,66.7,89,98.9,168.5,73.1c42.4-13.8,69.7-36.3,83.3-67.1
		L1110.4,385.1z M1017.5,309.2c24.3-7.9,46.4,1.3,58.1,23.4l-91.4,29.7C981.2,337.4,993.3,317.1,1017.5,309.2z"/>
	<path d="M1331.3,248.4c-29.4,0-55.8,10-74.4,29.4v-25.5h-78.3v234.6h82.2V373.5c0-39,20.3-55.4,46.7-55.4c23.8,0,38.5,14.3,38.5,48
		v120.8h82.2V352.7C1428.3,280,1386.3,248.4,1331.3,248.4z"/>
	<path d="M1574.6,427.1c-14.7,0-24.7-9.5-24.7-26.8v-77.9h53.7v-61.5h-53.7v-61h-82.2v61h-34.2v61.5h34.2v78.8
		c0,60.2,35.1,89.6,95.2,89.6c21.6,0,42.8-4.3,57.1-13.4l-20.3-57.6C1592.8,424.5,1583.7,427.1,1574.6,427.1z"/>
	<rect x="1637.7" y="260.3" width="82.2" height="226.5"/>
	<path d="M2327.4,482.9c-73.1-13.1-140.4-21.1-200.7-24c-0.8,0-1.4-0.9-1-1.6l81.3-193.4c0-0.1,0-0.1,0.1-0.2l0.4-0.9l34.7-78.9
		l-85.2-0.3l-21.2,48.3l-0.5,1.1l-81,190.4l-1.1,2.6l-1.1-2.6c0,0,0,0,0,0l-0.3-0.8c0,0,0,0,0,0l-1.1-2.6l-70.6-159.4l-60.3,0.3v0
		h-55.8v-5.2c0-20.8,10-30.7,27.3-30.7c8.7,0,17.7,3,24.7,6.9l20.3-58c-13.4-8.2-34.6-12.1-54.5-12.1c-62.8,0-97.8,36.8-97.8,93.1
		v6.1h-34.2v61.5h34.2v164.5h82.2V322.4l62.2-0.3l50.3,141.6c-26,3.4-50.2,8.4-72.3,14.7c-47.6,13.6-87.3,34.3-118.2,61.5
		c-28.9,25.4-50.2,56.6-63.5,92.8c-7.7,21-11,42.1-9.9,62.7c1.1,19.8,6.2,38.6,15.3,56.1c16.4,31.6,44.6,56.7,79.5,70.6
		c19.1,7.6,39,11.4,58.6,11.4c16.5,0,32.7-2.7,48.1-8c18.7-6.5,35.4-16.7,49.9-30.3c15.1-14.2,27.2-31.9,36.1-52.5l86.6-200.7
		c0.2-0.4,0.6-0.7,1.1-0.7c64.4,0.9,138.7,8.9,222.4,23.8c0.6,0.1,1.3-0.3,1.4-1l14.3-79.8C2328.5,483.6,2328.1,483,2327.4,482.9z
		 M1994.6,545.8l-68.7,163.7c-8.2,19-20.6,31.4-36.8,37.1c-14.6,5.1-32.3,4.3-48.4-2.1c-16-6.4-29.2-17.8-36.3-31.4
		c-7.8-15.1-8.2-32.5-1.1-51.8c8.5-23.3,21.7-42.5,40.2-58.8c21.5-18.9,50.4-33.7,86-43.9C1949.3,553,1997.6,535.9,1994.6,545.8z"/>
	<circle cx="1678.5" cy="197.9" r="45.1"/>
	<path d="M767,251.9L767,251.9c-28.6,0.5-56.9,1-84.8,1.5v-0.2c42.3-1,84.3-1.8,83.7-1.3H767z"/>
</g>
</svg>
