<?xml version="1.0" encoding="UTF-8"?><svg id="a" xmlns="http://www.w3.org/2000/svg" width="215.6343" height="192" viewBox="0 0 215.6343 192"><defs><style>.b{fill:none;stroke:#000;stroke-miterlimit:10;stroke-width:8px;}</style></defs><path d="M59.0857,93.1086c15.1368,0,27.4514,12.3146,27.4514,27.4514,0,7.6685-3.0899,14.7847-8.7005,20.0378l-9.3547,8.7587,11.9771,4.558c15.0387,5.7232,25.6435,17.055,28.7631,30.0855H8.9493c3.1196-13.0305,13.7244-24.3623,28.7631-30.0855l11.9771-4.558-9.3547-8.7587c-5.6106-5.2531-8.7005-12.3693-8.7005-20.0378,0-15.1368,12.3146-27.4514,27.4514-27.4514m0-8c-19.5793,0-35.4514,15.8721-35.4514,35.4514,0,10.2117,4.3236,19.4087,11.2327,25.8776C14.3162,154.2584,0,171.7101,0,192H118.1714c0-20.2899-14.3163-37.7416-34.867-45.5624,6.9091-6.4689,11.2327-15.6659,11.2327-25.8776,0-19.5793-15.8721-35.4514-35.4514-35.4514h0Z"/><path class="b" d="M152.5486,4c-32.6321,0-59.0857,16.3531-59.0857,36.5257,0,7.5036,3.6628,14.4776,9.9397,20.2793,.0436,.0403,.0549,.1048,.0266,.157l-11.8247,21.8581c-.0581,.1073,.0485,.2291,.1626,.1858l26.107-9.9164,3.7237-1.4144c.0295-.0112,.0617-.0113,.0913-.0001,8.9824,3.408,19.5479,5.3765,30.8596,5.3765,32.6321,0,59.0857-16.3532,59.0857-36.5257S185.1807,4,152.5486,4Z"/></svg>