<?xml version="1.0" encoding="UTF-8"?><svg id="a" xmlns="http://www.w3.org/2000/svg" width="155.3033" height="176.6074" viewBox="0 0 155.3033 176.6074"><defs><style>.d{fill:#fff;stroke:gray;stroke-miterlimit:10;stroke-width:9px;}.e{fill:gray;}</style></defs><g id="b"><polygon class="e" points="145.6422 143.237 135.3058 152.1636 124.9693 161.0902 137.8682 165.5785 150.7671 170.0669 148.2047 156.6519 145.6422 143.237"/></g><g id="c"><path class="e" d="M24.4217,21.8077c4.0463-3.4273,8.3899-6.5707,12.9105-9.3428l1.2331-.7562,91.965,108.5751,7.7837,28.3921,3.1914,11.6414-10.9577-5.0632-26.7246-12.3488L11.8863,34.3634l1.5788-1.7966c3.3721-3.8374,7.0585-7.4573,10.9567-10.7591m-5.8169-6.8676c-4.2422,3.5933-8.2201,7.4978-11.9004,11.6857L0,34.2553l98.2416,115.9853,28.5309,13.1834,28.5309,13.1834-8.3097-30.3111-8.3097-30.3111L40.4422,0l-7.8152,4.7926c-4.9324,3.0248-9.6197,6.4184-14.0223,10.1475h0Z"/><path class="d" d="M22.8064,20.1799l95.0099,112.17"/><path class="e" d="M24.6712,22.1011h0c4.0457-3.4268,8.3897-6.5703,12.9098-9.3423l1.233-.7562L126.0934,115.0457c-4.2019,4.2543-7.2139,9.4977-8.7801,15.3267l-.058,.2158-2.1317,.1265c-5.6222,.3335-11.0853,2.5218-15.383,6.1619-.1979,.1676-.3944,.3392-.5886,.5139L12.1351,34.6573l1.5787-1.7965c3.3718-3.837,7.0585-7.4572,10.9573-10.7597m-5.8176-6.867c-4.2417,3.5928-8.2206,7.4983-11.9003,11.6857L.2489,34.5491l98.2416,115.9853,6.2182-6.0214c.2752-.2665,.5581-.5227,.8489-.7689,2.8319-2.3987,6.3737-3.8243,10.0989-4.0453l8.6074-.5107,1.7412-6.4804c1.3569-5.0503,4.2209-9.5486,8.1877-12.9084,.4991-.4228,1.0162-.8279,1.5494-1.2134l3.1907-2.3068L40.6911,.2939l-7.8152,4.7927c-4.9329,3.0251-9.6193,6.418-14.0224,10.1476h0Z"/></g></svg>