<?xml version="1.0" encoding="UTF-8"?><svg id="a" xmlns="http://www.w3.org/2000/svg" width="184" height="220" viewBox="0 0 184 220"><defs><style>.b,.c{fill:none;stroke:#000;stroke-miterlimit:10;stroke-width:10px;}.c{stroke-linecap:round;}</style></defs><line class="b" x1="30" y1="41" x2="116" y2="41"/><line class="b" x1="30" y1="65" x2="116" y2="65"/><line class="b" x1="30" y1="89" x2="116" y2="89"/><line class="b" x1="31" y1="141" x2="74" y2="141"/><line class="b" x1="31" y1="113" x2="97" y2="113"/><path class="b" d="M144,123.436V7.5694c0-1.419-1.1504-2.5694-2.5695-2.5694H7.5695c-1.4191,0-2.5695,1.1504-2.5695,2.5694V179.1113c0,1.4191,1.1504,2.5695,2.5695,2.5695H87.9069c5.6843,19.2593,23.4918,33.3193,44.5931,33.3193,25.6812,0,46.5-20.8188,46.5-46.5,0-21.7118-14.8814-39.9453-35-45.064Z"/><circle class="b" cx="132.5" cy="168.5" r="46.5"/><line class="c" x1="133" y1="168" x2="133" y2="141"/><line class="c" x1="149" y1="178" x2="133.0718" y2="169"/></svg>