<?xml version="1.0" encoding="UTF-8"?><svg xmlns="http://www.w3.org/2000/svg" width="250" height="250" viewBox="0 0 250 250"><g id="a"/><g id="b"><path d="M130.3995,24.5937c.7527,0,1.4981,.131,2.2155,.3893l90.1172,32.4526c3.3954,1.2227,5.231,5.1243,4.0083,8.5197l-32.4526,90.1172c-.9472,2.6304-3.4808,4.3976-6.3044,4.3976-.7527,0-1.498-.131-2.2154-.3893l-36.2818-13.0656-13.3882-4.8213v66.8451c0,3.6089-3.0489,6.6579-6.6578,6.6579H33.6578c-3.6089,0-6.6578-3.0489-6.6578-6.6579V113.2566c0-3.6089,3.0489-6.6578,6.6578-6.6578h62.4897l2.381-6.6118L124.0952,28.9913c.9472-2.6303,3.4807-4.3976,6.3043-4.3976m0-10c-6.831,0-13.2739,4.2367-15.7129,11.0094l-25.5666,70.9956H33.6578c-9.1618,0-16.6578,7.496-16.6578,16.6578v95.7824c0,9.1618,7.4961,16.6579,16.6578,16.6579h95.7824c9.1618,0,16.6578-7.496,16.6578-16.6579v-52.6153l36.2818,13.0656c1.8472,.6652,3.7405,.9808,5.6036,.9808,6.831,0,13.2739-4.2367,15.7129-11.0094l32.4526-90.1172c3.1041-8.6198-1.4088-18.2123-10.0286-21.3164L136.0031,15.5745c-1.8472-.6652-3.7405-.9808-5.6036-.9808h0Z"/><g><path d="M140.8174,68.8105c-4.168,0-8.3467-2.104-10.646-5.3604-1.4941-2.1167-2.9106-5.668-1.1714-10.5645,1.8076-4.9507,5.7256-7.7925,10.748-7.7925,4.1689,0,8.3477,2.104,10.6465,5.3608,1.4941,2.1167,2.9111,5.6675,1.1719,10.5635-1.8086,4.9512-5.7266,7.793-10.749,7.793Z"/><path d="M139.7497,44.5933v1h.0002c4.0101,0,8.028,2.0209,10.236,5.1484,1.4263,2.0203,2.7766,5.414,1.112,10.1003-1.7334,4.7464-5.4806,7.4686-10.2809,7.4686-4.0107,0-8.0291-2.021-10.2372-5.1486-1.4263-2.0202-2.7765-5.414-1.1118-10.1005,1.733-4.7456,5.4802-7.4676,10.2805-7.4681l.0011-1m-.0012,0c-4.5986,.0005-9.1369,2.4216-11.2198,8.1251-3.4363,9.674,4.5132,16.5922,12.2883,16.5922,4.5986,0,9.1372-2.4218,11.2202-8.1256,3.4361-9.6736-4.5137-16.5925-12.2888-16.5917h0Z"/></g><g><path d="M194.3652,88.0938c-4.168,0-8.3467-2.104-10.6455-5.3599-1.4951-2.1167-2.9111-5.668-1.1729-10.5645,1.8086-4.9507,5.7275-7.7925,10.75-7.7925,4.168,0,8.3467,2.104,10.6455,5.3599,1.4941,2.1167,2.9111,5.668,1.1719,10.564-1.8086,4.9512-5.7266,7.793-10.749,7.793Z"/><path d="M193.2976,63.8767v1h.0002c4.0101,0,8.028,2.0209,10.236,5.1484,1.4263,2.0203,2.7766,5.414,1.112,10.1003-1.7334,4.7464-5.4806,7.4686-10.2809,7.4686-4.0107,0-8.0291-2.021-10.2372-5.1486-1.4263-2.0203-2.7765-5.414-1.1118-10.1005,1.7331-4.7456,5.4802-7.4676,10.2806-7.4681l.0011-1m-.0012,0c-4.5986,.0005-9.1369,2.4216-11.2198,8.1251-3.4363,9.674,4.5133,16.5922,12.2884,16.5922,4.5986,0,9.1372-2.4218,11.2202-8.1256,3.4361-9.6736-4.5137-16.5925-12.2887-16.5917h0Z"/></g><g><path d="M175.082,141.6416c-4.1689,0-8.3477-2.1035-10.6465-5.3604-1.4941-2.1172-2.9111-5.668-1.1719-10.5645,1.8086-4.9502,5.7266-7.792,10.749-7.792,4.1689,0,8.3477,2.104,10.6465,5.3604,1.4941,2.1172,2.9111,5.668,1.1719,10.5645-1.8086,4.9502-5.7266,7.792-10.749,7.792Z"/><path d="M174.0142,117.4246v1h.0002c4.0101,0,8.028,2.0208,10.236,5.1484,1.4263,2.0203,2.7766,5.414,1.112,10.1003-1.7334,4.7464-5.4806,7.4686-10.2809,7.4686-4.0107,0-8.0291-2.021-10.2372-5.1486-1.4263-2.0202-2.7765-5.414-1.1118-10.1005,1.7331-4.7456,5.4802-7.4676,10.2806-7.4681l.0011-1m-.0012,0c-4.5986,.0005-9.1369,2.4216-11.2198,8.1251-3.4363,9.674,4.5133,16.5922,12.2883,16.5922,4.5986,0,9.1372-2.4218,11.2202-8.1256,3.4361-9.6736-4.5137-16.5925-12.2888-16.5917h0Z"/></g><g><path d="M121.5337,122.3584c-4.168,0-8.3467-2.104-10.6455-5.3604-1.4946-2.1167-2.9111-5.668-1.1719-10.5645,1.8081-4.9507,5.7266-7.7925,10.749-7.7925,4.168,0,8.3472,2.104,10.646,5.3604,1.4941,2.1167,2.9111,5.668,1.1719,10.564-1.8086,4.9512-5.7271,7.793-10.7495,7.793Z"/><path d="M120.4663,98.1412v1h.0002c4.0101,0,8.028,2.0209,10.236,5.1484,1.4263,2.0203,2.7766,5.414,1.112,10.1003-1.7334,4.7464-5.4806,7.4686-10.2809,7.4686-4.0107,0-8.0291-2.021-10.2372-5.1486-1.4263-2.0203-2.7765-5.414-1.1118-10.1005,1.7331-4.7456,5.4802-7.4676,10.2806-7.4681l.0011-1m-.0012,0c-4.5986,.0005-9.1369,2.4216-11.2198,8.1251-3.4363,9.674,4.5132,16.5922,12.2884,16.5922,4.5986,0,9.1372-2.4218,11.2202-8.1256,3.4361-9.6736-4.5137-16.5925-12.2888-16.5917h0Z"/></g><g><path d="M51.769,122.2737c-6.2279,.0007-12.4569,4.0848-12.4936,12.2528,.0355,8.17,6.2637,12.2541,12.4931,12.2541s12.4569-4.085,12.4936-12.2534c-.0356-8.1696-6.2637-12.2543-12.4931-12.2535h0Z"/><path d="M108.6832,179.1879c-6.2279,.0007-12.4569,4.0848-12.4936,12.2528,.0355,8.17,6.2637,12.2541,12.4931,12.2541s12.4569-4.085,12.4936-12.2534c-.0356-8.1696-6.2637-12.2543-12.4931-12.2535h0Z"/></g><path d="M131.4649,23.042h0c.7525,0,1.4977,.131,2.2151,.3893l90.1171,32.4525c3.3955,1.2228,5.231,5.1244,4.0082,8.5199l-32.4525,90.1172c-.9472,2.6303-3.4807,4.3975-6.3043,4.3975-.7527,0-1.498-.131-2.2155-.3894l-90.1171-32.4525c-1.6559-.5963-2.9878-1.8174-3.7504-3.4384s-.8542-3.4256-.2579-5.0815L125.1601,27.4396c.9472-2.6303,3.4809-4.3976,6.3048-4.3976m-.0004-10c-6.8304,0-13.2741,4.2372-15.7129,11.0094l-32.4526,90.1171c-3.1042,8.6199,1.4087,18.2123,10.0286,21.3165l90.1172,32.4525c1.8477,.6654,3.74,.9808,5.6036,.9808,6.8304,0,13.2741-4.2372,15.7128-11.0094l32.4525-90.1172c3.1042-8.6199-1.4087-18.2123-10.0286-21.3165L137.0681,14.0228c-1.8477-.6654-3.74-.9808-5.6036-.9808h0Z"/><g><path d="M140.8818,69.2588c-4.168,0-8.3467-2.104-10.6455-5.3604-1.4946-2.1167-2.9106-5.668-1.1714-10.5645,1.8081-4.9507,5.7261-7.7925,10.7485-7.7925,4.168,0,8.3467,2.104,10.6455,5.3604,1.4951,2.1167,2.9111,5.668,1.1729,10.564-1.8086,4.9512-5.7275,7.793-10.75,7.793Z"/><path d="M139.8147,45.0416v1h.0002c4.0101,0,8.028,2.0208,10.236,5.1484,1.4263,2.0203,2.7766,5.414,1.112,10.1003-1.7334,4.7464-5.4806,7.4686-10.2809,7.4686-4.0107,0-8.0291-2.021-10.2372-5.1486-1.4263-2.0203-2.7765-5.414-1.1118-10.1005,1.7331-4.7456,5.4802-7.4676,10.2806-7.4681l.0011-1m-.0012,0c-4.5986,.0005-9.1369,2.4216-11.2198,8.1251-3.4363,9.674,4.5133,16.5922,12.2883,16.5922,4.5986,0,9.1372-2.4218,11.2202-8.1256,3.4361-9.6736-4.5137-16.5925-12.2887-16.5917h0Z"/></g><g><path d="M194.4297,88.542c-4.168,0-8.3467-2.104-10.6455-5.3599-1.4941-2.1167-2.9111-5.668-1.1719-10.5645,1.8086-4.9507,5.7266-7.7925,10.749-7.7925,4.168,0,8.3467,2.104,10.6465,5.3599,1.4941,2.1167,2.9102,5.668,1.1719,10.564-1.8086,4.9512-5.7275,7.793-10.75,7.793Z"/><path d="M193.3625,64.325v1h.0002c4.0101,0,8.028,2.0209,10.236,5.1484,1.4263,2.0203,2.7766,5.414,1.112,10.1003-1.7334,4.7464-5.4806,7.4686-10.2809,7.4686-4.0107,0-8.0291-2.021-10.2372-5.1486-1.4263-2.0203-2.7765-5.414-1.1118-10.1005,1.7331-4.7456,5.4802-7.4676,10.2806-7.4681l.0011-1m-.0012,0c-4.5986,.0005-9.1369,2.4216-11.2198,8.1251-3.4363,9.674,4.5133,16.5922,12.2883,16.5922,4.5986,0,9.1372-2.4218,11.2202-8.1256,3.4361-9.6736-4.5137-16.5925-12.2887-16.5917h0Z"/></g><g><path d="M175.1465,142.0898c-4.168,0-8.3467-2.1035-10.6455-5.3604-1.4941-2.1162-2.9111-5.668-1.1719-10.5645,1.8086-4.9502,5.7266-7.792,10.749-7.792,4.168,0,8.3467,2.104,10.6455,5.3604,1.4951,2.1162,2.9111,5.668,1.1729,10.5645-1.8086,4.9502-5.7275,7.792-10.75,7.792Z"/><path d="M174.0791,117.8729v1h.0002c4.0101,0,8.028,2.0209,10.236,5.1484,1.4263,2.0203,2.7766,5.414,1.112,10.1003-1.7334,4.7464-5.4806,7.4686-10.2809,7.4686-4.0107,0-8.0291-2.021-10.2372-5.1486-1.4263-2.0202-2.7765-5.414-1.1118-10.1005,1.7331-4.7456,5.4802-7.4676,10.2805-7.4681l.0011-1m-.0012,0c-4.5986,.0005-9.1369,2.4216-11.2198,8.1251-3.4363,9.674,4.5132,16.5921,12.2883,16.5921,4.5986,0,9.1372-2.4218,11.2202-8.1256,3.4361-9.6736-4.5137-16.5925-12.2887-16.5917h0Z"/></g><g><path d="M121.5986,122.8066c-4.168,0-8.3467-2.104-10.6455-5.3599-1.4946-2.1172-2.9106-5.6685-1.1714-10.5649,1.8081-4.9507,5.7261-7.7925,10.7485-7.7925,4.168,0,8.3467,2.104,10.6455,5.3604,1.4941,2.1167,2.9111,5.668,1.1719,10.564-1.8086,4.9512-5.7266,7.793-10.749,7.793Z"/><path d="M120.5312,98.5895v1h.0002c4.0101,0,8.028,2.0209,10.2361,5.1484,1.4263,2.0203,2.7766,5.414,1.112,10.1003-1.7334,4.7464-5.4806,7.4686-10.2809,7.4686-4.0107,0-8.0291-2.021-10.2372-5.1486-1.4263-2.0203-2.7765-5.414-1.1118-10.1005,1.7331-4.7456,5.4802-7.4676,10.2806-7.4681l.0011-1m-.0012,0c-4.5986,.0005-9.1369,2.4216-11.2198,8.1251-3.4363,9.674,4.5133,16.5922,12.2884,16.5922,4.5986,0,9.1372-2.4218,11.2202-8.1256,3.4361-9.6736-4.5137-16.5925-12.2887-16.5917h0Z"/></g></g></svg>