<?xml version="1.0" encoding="utf-8"?>
<!-- Generator: Adobe Illustrator 26.2.1, SVG Export Plug-In . SVG Version: 6.00 Build 0)  -->
<svg version="1.1" id="Layer_1" xmlns="http://www.w3.org/2000/svg" xmlns:xlink="http://www.w3.org/1999/xlink" x="0px" y="0px"
	 viewBox="0 0 171.2 164.6" style="enable-background:new 0 0 171.2 164.6;" xml:space="preserve">
<g id="a">
</g>
<g id="b">
	<path d="M87.8,8.9c0.6,0,1.2,0.1,1.7,0.3l69.8,25.1c2.6,0.9,4,4,3.1,6.6l-25.1,69.8c-0.7,2-2.7,3.4-4.9,3.4c-0.6,0-1.2-0.1-1.7-0.3
		l-28.1-10.1L92.2,100v51.7c0,2.8-2.4,5.2-5.2,5.2H12.9c-2.8,0-5.2-2.4-5.2-5.2V77.6c0-2.8,2.4-5.2,5.2-5.2h48.4l1.8-5.1l19.8-55
		C83.6,10.3,85.6,8.9,87.8,8.9 M87.8,1.2c-5.3,0-10.3,3.3-12.2,8.5l-19.8,55H12.9C5.8,64.7,0,70.5,0,77.6v74.1
		c0,7.1,5.8,12.9,12.9,12.9H87c7.1,0,12.9-5.8,12.9-12.9V111l28.1,10.1c1.4,0.5,2.9,0.8,4.3,0.8c5.3,0,10.3-3.3,12.2-8.5l25.1-69.8
		c2.4-6.7-1.1-14.1-7.8-16.5L92.1,2C90.7,1.4,89.2,1.2,87.8,1.2L87.8,1.2L87.8,1.2z"/>
	<g>
		<path d="M95.8,43.2c-3.2,0-6.5-1.6-8.2-4.1c-1.2-1.6-2.3-4.4-0.9-8.2c1.4-3.8,4.4-6,8.3-6c3.2,0,6.5,1.6,8.2,4.1
			c1.2,1.6,2.3,4.4,0.9,8.2C102.8,41,99.7,43.2,95.8,43.2L95.8,43.2z"/>
		<path d="M95,24.4v0.8h0c3.1,0,6.2,1.6,7.9,4c1.1,1.6,2.1,4.2,0.9,7.8c-1.3,3.7-4.2,5.8-8,5.8c-3.1,0-6.2-1.6-7.9-4
			c-1.1-1.6-2.1-4.2-0.9-7.8c1.3-3.7,4.2-5.8,8-5.8L95,24.4 M95,24.4c-3.6,0-7.1,1.9-8.7,6.3c-2.7,7.5,3.5,12.8,9.5,12.8
			c3.6,0,7.1-1.9,8.7-6.3C107.2,29.8,101,24.4,95,24.4L95,24.4L95,24.4z"/>
	</g>
	<g>
		<path d="M137.3,58.1c-3.2,0-6.5-1.6-8.2-4.1c-1.2-1.6-2.3-4.4-0.9-8.2c1.4-3.8,4.4-6,8.3-6c3.2,0,6.5,1.6,8.2,4.1
			c1.2,1.6,2.3,4.4,0.9,8.2C144.2,55.9,141.2,58.1,137.3,58.1z"/>
		<path d="M136.5,39.3v0.8h0c3.1,0,6.2,1.6,7.9,4c1.1,1.6,2.1,4.2,0.9,7.8c-1.3,3.7-4.2,5.8-8,5.8c-3.1,0-6.2-1.6-7.9-4
			c-1.1-1.6-2.1-4.2-0.9-7.8c1.3-3.7,4.2-5.8,8-5.8L136.5,39.3 M136.5,39.3c-3.6,0-7.1,1.9-8.7,6.3c-2.7,7.5,3.5,12.8,9.5,12.8
			c3.6,0,7.1-1.9,8.7-6.3C148.6,44.7,142.5,39.3,136.5,39.3L136.5,39.3L136.5,39.3z"/>
	</g>
	<g>
		<path d="M122.4,99.5c-3.2,0-6.5-1.6-8.2-4.1c-1.2-1.6-2.3-4.4-0.9-8.2c1.4-3.8,4.4-6,8.3-6c3.2,0,6.5,1.6,8.2,4.1
			c1.2,1.6,2.3,4.4,0.9,8.2C129.3,97.3,126.2,99.5,122.4,99.5z"/>
		<path d="M121.5,80.8v0.8h0c3.1,0,6.2,1.6,7.9,4c1.1,1.6,2.1,4.2,0.9,7.8c-1.3,3.7-4.2,5.8-8,5.8c-3.1,0-6.2-1.6-7.9-4
			c-1.1-1.6-2.1-4.2-0.9-7.8c1.3-3.7,4.2-5.8,8-5.8L121.5,80.8 M121.5,80.8c-3.6,0-7.1,1.9-8.7,6.3c-2.7,7.5,3.5,12.8,9.5,12.8
			c3.6,0,7.1-1.9,8.7-6.3C133.7,86.1,127.5,80.8,121.5,80.8L121.5,80.8L121.5,80.8z"/>
	</g>
	<g>
		<path d="M80.9,84.6c-3.2,0-6.5-1.6-8.2-4.1c-1.2-1.6-2.3-4.4-0.9-8.2c1.4-3.8,4.4-6,8.3-6c3.2,0,6.5,1.6,8.2,4.1
			c1.2,1.6,2.3,4.4,0.9,8.2C87.8,82.4,84.8,84.6,80.9,84.6z"/>
		<path d="M80.1,65.9v0.8h0c3.1,0,6.2,1.6,7.9,4c1.1,1.6,2.1,4.2,0.9,7.8c-1.3,3.7-4.2,5.8-8,5.8c-3.1,0-6.2-1.6-7.9-4
			c-1.1-1.6-2.1-4.2-0.9-7.8c1.3-3.7,4.2-5.8,8-5.8L80.1,65.9 M80.1,65.9c-3.6,0-7.1,1.9-8.7,6.3C68.7,79.6,74.9,85,80.9,85
			c3.6,0,7.1-1.9,8.7-6.3C92.3,71.2,86.1,65.9,80.1,65.9L80.1,65.9z"/>
	</g>
	<g>
		<path d="M26.9,84.5c-4.8,0-9.6,3.2-9.7,9.5c0,6.3,4.8,9.5,9.7,9.5s9.6-3.2,9.7-9.5C36.6,87.7,31.7,84.5,26.9,84.5
			C26.9,84.5,26.9,84.5,26.9,84.5z"/>
		<path d="M71,128.6c-4.8,0-9.6,3.2-9.7,9.5c0,6.3,4.8,9.5,9.7,9.5s9.6-3.2,9.7-9.5C80.6,131.8,75.8,128.6,71,128.6L71,128.6
			L71,128.6z"/>
	</g>
	<path d="M88.6,7.7L88.6,7.7c0.6,0,1.2,0.1,1.7,0.3l69.8,25.1c2.6,0.9,4,4,3.1,6.6L138,109.5c-0.7,2-2.7,3.4-4.9,3.4
		c-0.6,0-1.2-0.1-1.7-0.3L61.7,87.5c-1.3-0.5-2.3-1.4-2.9-2.7c-0.6-1.3-0.7-2.7-0.2-3.9l25.1-69.8C84.4,9.1,86.4,7.7,88.6,7.7
		 M88.6,0c-5.3,0-10.3,3.3-12.2,8.5L51.3,78.3c-2.4,6.7,1.1,14.1,7.8,16.5l69.8,25.1c1.4,0.5,2.9,0.8,4.3,0.8
		c5.3,0,10.3-3.3,12.2-8.5l25.1-69.8c2.4-6.7-1.1-14.1-7.8-16.5L92.9,0.8C91.5,0.2,90,0,88.6,0L88.6,0L88.6,0z"/>
	<g>
		<path d="M95.9,43.5c-3.2,0-6.5-1.6-8.2-4.1c-1.2-1.6-2.3-4.4-0.9-8.2c1.4-3.8,4.4-6,8.3-6c3.2,0,6.5,1.6,8.2,4.1
			c1.2,1.6,2.3,4.4,0.9,8.2C102.8,41.3,99.8,43.5,95.9,43.5L95.9,43.5z"/>
		<path d="M95.1,24.8v0.8h0c3.1,0,6.2,1.6,7.9,4c1.1,1.6,2.1,4.2,0.9,7.8c-1.3,3.7-4.2,5.8-8,5.8c-3.1,0-6.2-1.6-7.9-4
			c-1.1-1.6-2.1-4.2-0.9-7.8c1.3-3.7,4.2-5.8,8-5.8L95.1,24.8 M95.1,24.8c-3.6,0-7.1,1.9-8.7,6.3c-2.7,7.5,3.5,12.8,9.5,12.8
			c3.6,0,7.1-1.9,8.7-6.3C107.2,30.1,101.1,24.8,95.1,24.8L95.1,24.8z"/>
	</g>
	<g>
		<path d="M137.3,58.4c-3.2,0-6.5-1.6-8.2-4.1c-1.2-1.6-2.3-4.4-0.9-8.2c1.4-3.8,4.4-6,8.3-6c3.2,0,6.5,1.6,8.2,4.1
			c1.2,1.6,2.3,4.4,0.9,8.2C144.3,56.2,141.2,58.4,137.3,58.4z"/>
		<path d="M136.5,39.7v0.8h0c3.1,0,6.2,1.6,7.9,4c1.1,1.6,2.1,4.2,0.9,7.8c-1.3,3.7-4.2,5.8-8,5.8c-3.1,0-6.2-1.6-7.9-4
			c-1.1-1.6-2.1-4.2-0.9-7.8c1.3-3.7,4.2-5.8,8-5.8L136.5,39.7 M136.5,39.7c-3.6,0-7.1,1.9-8.7,6.3c-2.7,7.5,3.5,12.8,9.5,12.8
			c3.6,0,7.1-1.9,8.7-6.3C148.7,45,142.5,39.7,136.5,39.7L136.5,39.7z"/>
	</g>
	<g>
		<path d="M122.4,99.9c-3.2,0-6.5-1.6-8.2-4.1c-1.2-1.6-2.3-4.4-0.9-8.2c1.4-3.8,4.4-6,8.3-6c3.2,0,6.5,1.6,8.2,4.1
			c1.2,1.6,2.3,4.4,0.9,8.2C129.3,97.7,126.3,99.9,122.4,99.9L122.4,99.9z"/>
		<path d="M121.6,81.1v0.8h0c3.1,0,6.2,1.6,7.9,4c1.1,1.6,2.1,4.2,0.9,7.8c-1.3,3.7-4.2,5.8-8,5.8c-3.1,0-6.2-1.6-7.9-4
			c-1.1-1.6-2.1-4.2-0.9-7.8c1.3-3.7,4.2-5.8,8-5.8L121.6,81.1 M121.6,81.1c-3.6,0-7.1,1.9-8.7,6.3c-2.7,7.5,3.5,12.8,9.5,12.8
			c3.6,0,7.1-1.9,8.7-6.3C133.7,86.5,127.6,81.1,121.6,81.1L121.6,81.1L121.6,81.1z"/>
	</g>
	<g>
		<path d="M81,85c-3.2,0-6.5-1.6-8.2-4.1c-1.2-1.6-2.3-4.4-0.9-8.2c1.4-3.8,4.4-6,8.3-6c3.2,0,6.5,1.6,8.2,4.1
			c1.2,1.6,2.3,4.4,0.9,8.2C87.9,82.8,84.8,85,81,85L81,85z"/>
		<path d="M80.1,66.2V67h0c3.1,0,6.2,1.6,7.9,4c1.1,1.6,2.1,4.2,0.9,7.8c-1.3,3.7-4.2,5.8-8,5.8c-3.1,0-6.2-1.6-7.9-4
			c-1.1-1.6-2.1-4.2-0.9-7.8c1.3-3.7,4.2-5.8,8-5.8L80.1,66.2 M80.1,66.2c-3.6,0-7.1,1.9-8.7,6.3C68.8,80,74.9,85.3,81,85.3
			c3.6,0,7.1-1.9,8.7-6.3C92.3,71.6,86.2,66.2,80.1,66.2L80.1,66.2L80.1,66.2z"/>
	</g>
</g>
</svg>
