<?xml version="1.0" encoding="UTF-8"?><svg id="a" xmlns="http://www.w3.org/2000/svg" width="177.0636" height="170.2276" viewBox="0 0 177.0636 170.2276"><g id="b"><path d="M90.7749,9.247c.6025,0,1.1992,.1049,1.7735,.3116l72.1377,25.9779c2.718,.9788,4.1874,4.1019,3.2086,6.8199l-25.9779,72.1377c-.7582,2.1056-2.7863,3.5202-5.0466,3.5202-.6025,0-1.1991-.1049-1.7734-.3116l-29.0431-10.4589-10.7171-3.8594v53.5087c0,2.8889-2.4406,5.3296-5.3295,5.3296H13.3344c-2.8889,0-5.3295-2.4406-5.3295-5.3296V80.2206c0-2.8889,2.4406-5.3295,5.3295-5.3295H63.3566l1.906-5.2927L85.7284,12.7672c.7582-2.1055,2.7863-3.5202,5.0465-3.5202m0-8.0049c-5.4681,0-10.6256,3.3914-12.578,8.8129l-20.4658,56.8311H13.3344c-7.3339,0-13.3344,6.0005-13.3344,13.3344v76.6727c0,7.3339,6.0005,13.3344,13.3344,13.3344H90.007c7.3339,0,13.3344-6.0005,13.3344-13.3344v-42.1179l29.0431,10.4589c1.4787,.5325,2.9942,.7851,4.4856,.7851,5.4681,0,10.6256-3.3914,12.578-8.8129l25.9779-72.1377c2.4848-6.9-1.1277-14.5787-8.0278-17.0635L95.2606,2.0272c-1.4787-.5325-2.9942-.7851-4.4856-.7851h0Z"/><g><path d="M99.1143,44.642c-3.3364,0-6.6814-1.6842-8.522-4.2909-1.196-1.6944-2.3299-4.5372-.9377-8.4568,1.447-3.963,4.5833-6.2378,8.6036-6.2378,3.3372,0,6.6822,1.6842,8.5224,4.2913,1.196,1.6944,2.3303,4.5368,.9381,8.456-1.4478,3.9634-4.5841,6.2382-8.6044,6.2382h0Z"/><path d="M98.2597,25.2564v.8005h.0002c3.21,0,6.4263,1.6177,8.1938,4.1212,1.1417,1.6172,2.2226,4.3338,.8901,8.0852-1.3876,3.7994-4.3872,5.9785-8.2297,5.9785-3.2105,0-6.4272-1.6178-8.1948-4.1214-1.1417-1.6171-2.2226-4.3338-.89-8.0853,1.3872-3.7988,4.3868-5.9777,8.2294-5.9781l.0009-.8005m-.001,0c-3.6811,.0004-7.314,1.9385-8.9813,6.504-2.7507,7.7439,3.6128,13.2819,9.8366,13.2819,3.6811,0,7.3142-1.9386,8.9816-6.5044,2.7506-7.7436-3.6132-13.2821-9.837-13.2815h0Z"/></g><g><path d="M141.9787,60.0781c-3.3364,0-6.6814-1.6842-8.5216-4.2905-1.1968-1.6944-2.3303-4.5372-.9389-8.4568,1.4478-3.963,4.5848-6.2378,8.6052-6.2378,3.3364,0,6.6814,1.6842,8.5216,4.2905,1.196,1.6944,2.3303,4.5372,.9381,8.4564-1.4478,3.9634-4.5841,6.2382-8.6044,6.2382Z"/><path d="M141.1241,40.6926v.8005h.0002c3.21,0,6.4263,1.6177,8.1938,4.1212,1.1417,1.6172,2.2226,4.3338,.8901,8.0852-1.3876,3.7994-4.3872,5.9785-8.2297,5.9785-3.2105,0-6.4272-1.6178-8.1948-4.1214-1.1417-1.6172-2.2226-4.3338-.89-8.0853,1.3873-3.7988,4.3868-5.9777,8.2295-5.9781l.0009-.8005m-.001,0c-3.6811,.0004-7.314,1.9385-8.9813,6.504-2.7507,7.7439,3.6128,13.2819,9.8367,13.2819,3.6811,0,7.3142-1.9386,8.9816-6.5044,2.7506-7.7436-3.6132-13.2821-9.837-13.2815h0Z"/></g><g><path d="M126.5428,102.9424c-3.3372,0-6.6822-1.6838-8.5224-4.2909-1.196-1.6948-2.3303-4.5372-.9381-8.4568,1.4478-3.9626,4.5841-6.2374,8.6044-6.2374,3.3372,0,6.6822,1.6842,8.5224,4.2909,1.196,1.6948,2.3303,4.5372,.9381,8.4568-1.4478,3.9626-4.5841,6.2374-8.6044,6.2374Z"/><path d="M125.688,83.557v.8005h.0002c3.21,0,6.4263,1.6176,8.1938,4.1212,1.1417,1.6172,2.2226,4.3338,.8901,8.0852-1.3876,3.7994-4.3872,5.9785-8.2297,5.9785-3.2105,0-6.4272-1.6178-8.1948-4.1214-1.1417-1.6171-2.2226-4.3338-.89-8.0853,1.3873-3.7988,4.3868-5.9777,8.2295-5.9781l.0009-.8005m-.001,0c-3.6811,.0004-7.314,1.9385-8.9813,6.504-2.7507,7.7439,3.6128,13.2819,9.8366,13.2819,3.6811,0,7.3142-1.9386,8.9816-6.5044,2.7506-7.7436-3.6132-13.2821-9.837-13.2815h0Z"/></g><g><path d="M83.678,87.5065c-3.3364,0-6.6814-1.6842-8.5216-4.2909-1.1964-1.6944-2.3303-4.5372-.9381-8.4568,1.4474-3.963,4.5841-6.2378,8.6044-6.2378,3.3364,0,6.6818,1.6842,8.522,4.2909,1.196,1.6944,2.3303,4.5372,.9381,8.4564-1.4478,3.9634-4.5845,6.2382-8.6048,6.2382Z"/><path d="M82.8235,68.1209v.8005h.0002c3.21,0,6.4263,1.6177,8.1938,4.1212,1.1417,1.6172,2.2226,4.3338,.8901,8.0852-1.3876,3.7994-4.3872,5.9785-8.2297,5.9785-3.2105,0-6.4272-1.6178-8.1948-4.1214-1.1417-1.6172-2.2226-4.3338-.89-8.0853,1.3873-3.7988,4.3868-5.9777,8.2295-5.9781l.0009-.8005m-.001,0c-3.6811,.0004-7.314,1.9385-8.9813,6.504-2.7507,7.7439,3.6128,13.2819,9.8367,13.2819,3.6811,0,7.3142-1.9386,8.9816-6.5044,2.7506-7.7436-3.6132-13.2821-9.837-13.2815h0Z"/></g><g><path d="M27.8322,87.4387c-4.9854,.0006-9.9716,3.2698-10.001,9.8082,.0284,6.54,5.014,9.8093,10.0006,9.8093s9.9716-3.27,10.001-9.8087c-.0285-6.5397-5.014-9.8094-10.0006-9.8088h0Z"/><path d="M73.3913,132.9978c-4.9854,.0006-9.9716,3.2698-10.001,9.8082,.0284,6.54,5.014,9.8093,10.0006,9.8093s9.9716-3.27,10.001-9.8087c-.0285-6.5397-5.014-9.8094-10.0006-9.8088h0Z"/></g><path d="M91.6278,8.0049h0c.6024,0,1.1989,.1049,1.7732,.3116l72.1377,25.9778c2.7181,.9788,4.1874,4.102,3.2085,6.8201l-25.9778,72.1377c-.7582,2.1055-2.7863,3.5202-5.0465,3.5202-.6025,0-1.1991-.1049-1.7735-.3117l-72.1377-25.9778c-1.3255-.4773-2.3917-1.4548-3.0021-2.7524s-.6838-2.7422-.2064-4.0677L86.5809,11.5251c.7582-2.1055,2.7864-3.5202,5.0469-3.5202m-.0003-8.0049c-5.4677,0-10.6258,3.3918-12.578,8.8129l-25.9779,72.1377c-2.4849,6.9001,1.1276,14.5787,8.0278,17.0636l72.1377,25.9778c1.4791,.5326,2.9938,.7851,4.4856,.7851,5.4677,0,10.6258-3.3918,12.5779-8.8129l25.9778-72.1377c2.4849-6.9001-1.1277-14.5787-8.0278-17.0636L96.1131,.7851C94.634,.2525,93.1192,0,91.6275,0h0Z"/><g><path d="M99.1659,45.0009c-3.3364,0-6.6814-1.6842-8.5216-4.2909-1.1964-1.6944-2.3299-4.5372-.9377-8.4568,1.4474-3.963,4.5837-6.2378,8.604-6.2378,3.3364,0,6.6814,1.6842,8.5216,4.2909,1.1968,1.6944,2.3303,4.5372,.9389,8.4564-1.4478,3.9634-4.5848,6.2382-8.6052,6.2382h0Z"/><path d="M98.3117,25.6153v.8005h.0002c3.21,0,6.4263,1.6176,8.1938,4.1212,1.1417,1.6172,2.2226,4.3338,.8901,8.0852-1.3876,3.7994-4.3872,5.9785-8.2297,5.9785-3.2105,0-6.4272-1.6178-8.1948-4.1214-1.1417-1.6172-2.2226-4.3338-.89-8.0853,1.3873-3.7988,4.3868-5.9777,8.2295-5.9781l.0009-.8005m-.001,0c-3.6811,.0004-7.314,1.9385-8.9813,6.504-2.7507,7.7439,3.6128,13.2819,9.8366,13.2819,3.6811,0,7.3142-1.9386,8.9816-6.5044,2.7506-7.7436-3.6132-13.2821-9.837-13.2815h0Z"/></g><g><path d="M142.0304,60.4368c-3.3364,0-6.6814-1.6842-8.5216-4.2905-1.196-1.6944-2.3303-4.5372-.9381-8.4568,1.4478-3.963,4.5841-6.2378,8.6044-6.2378,3.3364,0,6.6814,1.6842,8.5224,4.2905,1.196,1.6944,2.3296,4.5372,.9381,8.4564-1.4478,3.9634-4.5848,6.2382-8.6052,6.2382Z"/><path d="M141.1761,41.0514v.8005h.0002c3.21,0,6.4263,1.6177,8.1938,4.1212,1.1417,1.6172,2.2226,4.3338,.8901,8.0852-1.3876,3.7994-4.3872,5.9785-8.2297,5.9785-3.2105,0-6.4272-1.6178-8.1948-4.1214-1.1417-1.6172-2.2226-4.3338-.89-8.0853,1.3873-3.7988,4.3868-5.9777,8.2295-5.9781l.0009-.8005m-.001,0c-3.6811,.0004-7.314,1.9385-8.9813,6.504-2.7507,7.7439,3.6128,13.2819,9.8366,13.2819,3.6811,0,7.3142-1.9386,8.9816-6.5044,2.7506-7.7436-3.6132-13.2821-9.837-13.2815h0Z"/></g><g><path d="M126.5944,103.3012c-3.3364,0-6.6814-1.6838-8.5216-4.2909-1.196-1.694-2.3303-4.5372-.9381-8.4568,1.4478-3.9626,4.5841-6.2374,8.6044-6.2374,3.3364,0,6.6814,1.6842,8.5216,4.2909,1.1968,1.694,2.3303,4.5372,.9389,8.4568-1.4478,3.9626-4.5848,6.2374-8.6052,6.2374h0Z"/><path d="M125.7399,83.9159v.8005h.0002c3.21,0,6.4263,1.6177,8.1938,4.1212,1.1417,1.6172,2.2226,4.3338,.8901,8.0852-1.3876,3.7994-4.3872,5.9785-8.2297,5.9785-3.2105,0-6.4272-1.6178-8.1948-4.1214-1.1417-1.6171-2.2226-4.3338-.89-8.0853,1.3873-3.7988,4.3868-5.9777,8.2294-5.9781l.0009-.8005m-.001,0c-3.6811,.0004-7.314,1.9385-8.9813,6.504-2.7507,7.7439,3.6128,13.2818,9.8366,13.2818,3.6811,0,7.3142-1.9386,8.9816-6.5044,2.7506-7.7436-3.6132-13.2821-9.837-13.2815h0Z"/></g><g><path d="M83.7299,87.8653c-3.3364,0-6.6814-1.6842-8.5216-4.2905-1.1964-1.6948-2.3299-4.5376-.9377-8.4571,1.4474-3.963,4.5837-6.2378,8.604-6.2378,3.3364,0,6.6814,1.6842,8.5216,4.2909,1.196,1.6944,2.3303,4.5372,.9381,8.4564-1.4478,3.9634-4.5841,6.2382-8.6044,6.2382h0Z"/><path d="M82.8755,68.4797v.8005h.0002c3.21,0,6.4263,1.6177,8.1939,4.1212,1.1417,1.6172,2.2226,4.3338,.8901,8.0852-1.3876,3.7994-4.3872,5.9785-8.2297,5.9785-3.2105,0-6.4272-1.6178-8.1948-4.1214-1.1417-1.6172-2.2226-4.3338-.89-8.0853,1.3873-3.7988,4.3868-5.9777,8.2295-5.9781l.0009-.8005m-.001,0c-3.6811,.0004-7.314,1.9385-8.9813,6.504-2.7507,7.7439,3.6128,13.2819,9.8367,13.2819,3.6811,0,7.3142-1.9386,8.9816-6.5044,2.7506-7.7436-3.6132-13.2821-9.837-13.2815h0Z"/></g></g></svg>