<?xml version="1.0" encoding="UTF-8"?><svg id="a" xmlns="http://www.w3.org/2000/svg" width="162.84" height="162.84" viewBox="0 0 162.84 162.84"><defs><style>.b{fill:none;stroke:#000;stroke-miterlimit:10;stroke-width:10px;}</style></defs><path d="M81.42,9.2c39.8222,0,72.22,32.3978,72.22,72.22s-32.3978,72.22-72.22,72.22S9.2,121.2422,9.2,81.42,41.5978,9.2,81.42,9.2m0-9.2C36.453,0,0,36.453,0,81.42s36.453,81.42,81.42,81.42,81.42-36.453,81.42-81.42S126.387,0,81.42,0h0Z"/><path class="b" d="M69.92,66.8264c-.6439,5.9944-8.0078,10.7217-16.9971,10.7217-9.4125,0-17.0429-5.1829-17.0429-11.5763"/><path class="b" d="M125.0903,67.2423c-.6439,5.9944-8.0078,10.7217-16.9971,10.7217-9.4125,0-17.0429-5.1829-17.0429-11.5763"/><path class="b" d="M39.56,111.78h0c26.2785,16.3776,54.6739,16.5626,81.0128,.5279l.8672-.5279"/></svg>