<?xml version="1.0" encoding="UTF-8"?><svg id="a" xmlns="http://www.w3.org/2000/svg" width="177" height="177" viewBox="0 0 177 177"><defs><style>.b{fill:none;stroke:#000;stroke-miterlimit:10;stroke-width:10px;}</style></defs><path d="M88.5,10c43.285,0,78.5,35.215,78.5,78.5s-35.215,78.5-78.5,78.5S10,131.785,10,88.5,45.215,10,88.5,10m0-10C39.6228,0,0,39.6228,0,88.5s39.6228,88.5,88.5,88.5,88.5-39.6228,88.5-88.5S137.3772,0,88.5,0h0Z"/><path class="b" d="M76,72.6374c-.6999,6.5156-8.7041,11.654-18.4751,11.654-10.231,0-18.5249-5.6336-18.5249-12.5829"/><path class="b" d="M135.9677,73.0895c-.6999,6.5156-8.7041,11.654-18.4751,11.654-10.231,0-18.5249-5.6336-18.5249-12.5829"/><path class="b" d="M43,121.5h0c28.5636,17.8017,59.4281,18.0028,88.0574,.5738l.9426-.5738"/></svg>